<?xml version="1.0" encoding="utf-8"?>
<!-- Generator: Adobe Illustrator 23.0.1, SVG Export Plug-In . SVG Version: 6.00 Build 0)  -->
<svg version="1.1" id="Layer_1" xmlns="http://www.w3.org/2000/svg" xmlns:xlink="http://www.w3.org/1999/xlink" x="0px" y="0px"
	 viewBox="0 0 220 90" style="enable-background:new 0 0 220 90;" xml:space="preserve">
<style type="text/css">
	.st0{fill:#FFCB3D;}
	.st1{fill:#DE6903;}
	.st2{fill-rule:evenodd;clip-rule:evenodd;fill:#F3F3F3;}
</style>
<title>Group 4</title>
<desc>Created with Sketch.</desc>
<g id="cine_v2">
	<g id="ayuda_2" transform="translate(-80.000000, -124.000000)">
		<g id="Group-4" transform="translate(80.000000, 124.000000)">
			<g id="Cat-2" transform="translate(34.000000, 0.000000)">
				<g id="Cat">
					<path id="Base-Color" class="st0" d="M141.6,23c5.2,2.6,7,5.2,7.3,7.4c0.4,3.8-0.5,6.8-2.6,11.8c-4.1,10-7.6,20.1-10.4,30.5
						c-0.8-0.2-1.6-0.4-2.4-0.6c1.7,6.5,1.6,11.4,1.6,11.4c-76.5,0-114.1,0-112.9,0c1.9,0,15.8-37.3,64.6-41.1
						c1.4-0.1,2.8-0.2,4.1-0.2c0.3-1.2,0.8-2.4,1.7-4c-2-5-3.6-16.7-4.2-21.6c0-0.2,0.1-0.4,0.1-0.6c0.3-0.5,1-0.8,1.6-0.5l15.5,7.6
						c2.6-1,5.4-1.8,8.4-2.7c2.8-0.8,5.6-1.6,8.2-2.2l5.5-14.3c0.2-0.5,0.9-0.9,1.4-0.6c0.2,0.1,0.3,0.2,0.5,0.4
						C132.7,7.5,139.7,17.8,141.6,23z"/>
					<path id="Color" class="st1" d="M19.3,79c-0.6-3.6,1-5.8,4.6-6.6c15.1-0.8,28.5,0.3,40.2,3.3s18.6,5.7,20.5,8H24
						C21.4,83.7,19.3,81.6,19.3,79z M138.9,54.4c1.8-2,7.2-10.7,7.2-10.7s-5.9,18-9.5,29.1c0.2-0.9-2.6,6.6-3,4.7v-0.1
						c-0.5-2.2-2.3-3.9-4.6-4c-2.2-0.1-4.5-0.2-6.9-0.2c-3.1,0-6.3,0.2-9.4,0.6l-4.5-13.7c4.4,2.2,9.4,3,14.2,2.6
						c1.7-0.1,3.3-0.5,4.9-0.9C131.8,60.5,135.8,57.8,138.9,54.4z M122.7,37.8c1,1.1,2.5,1.4,3.9,0.8c1.2-0.7,1.9-2.1,1.6-3.5
						c-0.1-0.6,0.3-1.2,0.9-1.3c0.6-0.1,1.2,0.3,1.3,0.9c0.4,2.3-0.7,4.7-2.7,5.8l-0.1,0c-1.8,0.9-3.9,0.6-5.5-0.5
						c-0.5,1.2-1.5,2.2-2.8,2.8c-2.6,1-5.6,0-6.9-2.3c-0.3-0.5-0.1-1.2,0.4-1.5c0.5-0.3,1.2-0.1,1.5,0.4c0.8,1.4,2.6,2,4.2,1.4
						c1.2-0.5,1.9-1.7,1.8-2.7c0,0,0,0,0,0c-0.3-0.5-0.4-1.2-0.3-1.8c0.1-0.5,0.3-0.9,0.6-1.1c0.6-0.5,1.6-0.2,2,0.5
						C122.8,36.3,122.8,37.1,122.7,37.8z M104.2,37.8c0.8,1.4,0.1,3.5-0.7,3.6c-0.6,0.1-1.3-0.7-1.5-1.2c-0.3-0.5-0.4-1.2-0.3-1.8
						c0.1-0.5,0.3-0.9,0.6-1.1C102.9,36.9,103.8,37.2,104.2,37.8z M137,26.2c0.7,1.4,0.1,3.4-0.7,3.6c-0.6,0.1-1.3-0.7-1.6-1.2
						c-0.3-0.5-0.4-1.2-0.3-1.8c0.1-0.5,0.3-0.9,0.6-1.1C135.7,25.3,136.6,25.5,137,26.2z"/>
				</g>
			</g>
			<rect id="Rectangle" x="5.6" y="82.9" class="st2" width="208.9" height="4.2"/>
		</g>
	</g>
</g>
</svg>
