<?xml version="1.0" encoding="utf-8"?>
<!-- Generator: Adobe Illustrator 23.0.1, SVG Export Plug-In . SVG Version: 6.00 Build 0)  -->
<svg version="1.1" id="Layer_1" xmlns="http://www.w3.org/2000/svg" xmlns:xlink="http://www.w3.org/1999/xlink" x="0px" y="0px"
	 viewBox="0 0 25 25" style="enable-background:new 0 0 25 25;" xml:space="preserve">
<style type="text/css">
	.st0{fill-rule:evenodd;clip-rule:evenodd;fill:#8E8E93;}
</style>
<title>Icons / Material / ic_clear Copy</title>
<desc>Created with Sketch.</desc>
<g id="Symbols">
	<g id="ic_tab" transform="translate(-269.000000, -9.000000)">
		<g id="Group-Copy-2" transform="translate(260.000000, 7.000000)">
			<g transform="translate(7.000000, 0.000000)">
				<path id="ic_settings" class="st0" d="M21.9,16c0-0.3,0.1-0.6,0.1-1s0-0.7-0.1-1l2.1-1.7c0.2-0.1,0.2-0.4,0.1-0.6l-2-3.5
					C22,8,21.8,8,21.5,8l-2.5,1c-0.5-0.4-1.1-0.7-1.7-1L17,5.4C17,5.2,16.8,5,16.5,5h-4C12.2,5,12,5.2,12,5.4l-0.4,2.7
					C11,8.3,10.5,8.7,9.9,9L7.4,8C7.2,8,7,8,6.8,8.3l-2,3.5c-0.1,0.2-0.1,0.5,0.1,0.6L7.1,14C7,14.3,7,14.7,7,15s0,0.7,0.1,1L5,17.6
					c-0.2,0.1-0.2,0.4-0.1,0.6l2,3.5C7,21.9,7.2,22,7.4,21.9l2.5-1c0.5,0.4,1.1,0.7,1.7,1l0.4,2.6c0,0.2,0.2,0.4,0.5,0.4h4
					c0.2,0,0.5-0.2,0.5-0.4l0.4-2.6c0.6-0.2,1.2-0.6,1.7-1l2.5,1c0.2,0.1,0.5,0,0.6-0.2l2-3.5c0.1-0.2,0.1-0.5-0.1-0.6L21.9,16
					L21.9,16z M14.5,18.5c-1.9,0-3.5-1.6-3.5-3.5s1.6-3.5,3.5-3.5S18,13.1,18,15S16.4,18.5,14.5,18.5L14.5,18.5z"/>
			</g>
		</g>
	</g>
</g>
</svg>
