<?xml version="1.0" encoding="utf-8"?>
<!-- Generator: Adobe Illustrator 23.0.1, SVG Export Plug-In . SVG Version: 6.00 Build 0)  -->
<svg version="1.1" id="Layer_1" xmlns="http://www.w3.org/2000/svg" xmlns:xlink="http://www.w3.org/1999/xlink" x="0px" y="0px"
	 viewBox="0 0 250 230" style="enable-background:new 0 0 250 230;" xml:space="preserve">
<style type="text/css">
	.st0{opacity:0.2176;fill-rule:evenodd;clip-rule:evenodd;fill:#D8D8D8;enable-background:new    ;}
	.st1{fill-rule:evenodd;clip-rule:evenodd;fill:#E8AB48;}
	.st2{fill-rule:evenodd;clip-rule:evenodd;fill:#FFA8AA;}
	.st3{fill-rule:evenodd;clip-rule:evenodd;fill:#E06064;}
	.st4{filter:url(#Adobe_OpacityMaskFilter);}
	.st5{fill-rule:evenodd;clip-rule:evenodd;fill:#FFFFFF;}
	.st6{mask:url(#mask-2_1_);fill-rule:evenodd;clip-rule:evenodd;fill:#FFC15D;}
	.st7{fill-rule:evenodd;clip-rule:evenodd;fill:#26214C;}
	.st8{fill-rule:evenodd;clip-rule:evenodd;fill:#5AC8FA;}
	.st9{fill-rule:evenodd;clip-rule:evenodd;fill:#3A8AA1;}
	.st10{fill-rule:evenodd;clip-rule:evenodd;fill:#492D1E;}
	.st11{fill-rule:evenodd;clip-rule:evenodd;fill:#5AB2FA;}
	.st12{fill-rule:evenodd;clip-rule:evenodd;fill:#FFC15D;}
	.st13{fill-rule:evenodd;clip-rule:evenodd;fill:#FFAB5A;}
	.st14{filter:url(#Adobe_OpacityMaskFilter_1_);}
	.st15{mask:url(#mask-4_1_);fill-rule:evenodd;clip-rule:evenodd;fill:#FFC15D;}
	.st16{filter:url(#Adobe_OpacityMaskFilter_2_);}
	.st17{mask:url(#mask-6_1_);fill-rule:evenodd;clip-rule:evenodd;fill:#FFC15D;}
	.st18{fill-rule:evenodd;clip-rule:evenodd;fill:#5856D6;}
	.st19{fill-rule:evenodd;clip-rule:evenodd;fill:#F56C70;}
	.st20{filter:url(#Adobe_OpacityMaskFilter_3_);}
	.st21{mask:url(#mask-8_1_);fill-rule:evenodd;clip-rule:evenodd;fill:#492D1E;}
	.st22{fill-rule:evenodd;clip-rule:evenodd;fill:#3B859C;}
	.st23{fill-rule:evenodd;clip-rule:evenodd;fill:#3D357A;}
	.st24{fill-rule:evenodd;clip-rule:evenodd;fill:#FF7875;}
	.st25{filter:url(#Adobe_OpacityMaskFilter_4_);}
	.st26{mask:url(#mask-10_1_);fill-rule:evenodd;clip-rule:evenodd;fill:#FF7875;}
	.st27{fill-rule:evenodd;clip-rule:evenodd;fill:#3BC7B1;}
	.st28{fill-rule:evenodd;clip-rule:evenodd;fill:#18A993;}
	.st29{filter:url(#Adobe_OpacityMaskFilter_5_);}
	.st30{mask:url(#mask-12_1_);fill-rule:evenodd;clip-rule:evenodd;fill:#3BC7B1;}
	.st31{fill-rule:evenodd;clip-rule:evenodd;fill:#4A2D1D;}
	.st32{fill-rule:evenodd;clip-rule:evenodd;fill:#272451;}
	.st33{fill-rule:evenodd;clip-rule:evenodd;}
	.st34{fill-rule:evenodd;clip-rule:evenodd;fill:#4B2D1B;}
	.st35{fill-rule:evenodd;clip-rule:evenodd;fill:#27264F;}
	.st36{fill-rule:evenodd;clip-rule:evenodd;fill:#182851;}
	.st37{fill-rule:evenodd;clip-rule:evenodd;fill:#F26B68;}
	.st38{filter:url(#Adobe_OpacityMaskFilter_6_);}
	.st39{mask:url(#mask-18_1_);fill-rule:evenodd;clip-rule:evenodd;fill:#5856D6;}
	.st40{fill-rule:evenodd;clip-rule:evenodd;fill:#5751D9;}
	.st41{fill-rule:evenodd;clip-rule:evenodd;fill:#553527;}
	.st42{fill:#482D1F;}
	.st43{fill:none;stroke:#492D1E;stroke-width:0.2403;}
</style>
<g>
	<ellipse id="Oval" class="st0" cx="113.5" cy="218.8" rx="60.6" ry="7.7"/>
	<ellipse id="Oval-Copy" class="st0" cx="200.9" cy="160.2" rx="44.2" ry="5.6"/>
	<ellipse id="Oval-Copy-2" class="st0" cx="49.1" cy="179.4" rx="44.2" ry="5.6"/>
</g>
<title>Group 4</title>
<desc>Created with Sketch.</desc>
<g id="Group-97" transform="translate(5.000000, 8.000000)">
	<path id="Fill-1" class="st1" d="M33.6,28.2c0.1,1.6,1.4,2.9,3,3.5c1.6,0.6,3.5,0.7,5.2,0.7c1.8,0,3.6-0.1,5.3,0.3
		c1,0.2,1.9,0.6,2.9,0.7c1,0.1,2.1,0,2.8-0.7c0.8-0.7,0.8-1.8,0.7-2.8c0-0.3-0.1-0.6-0.2-0.9c-0.2-0.3-0.6-0.4-0.9-0.6
		c-1.7-0.7-3.7-0.9-5.6-0.5c-0.7,0.1-1.5,0.3-2.2,0.4c-2,0.2-3.8-0.8-5.7-1.3C37.1,26.5,34.6,26.6,33.6,28.2c-0.1,0.2-0.2,0.5,0,0.7
		"/>
	<path id="Fill-3" class="st2" d="M24.7,22c1-1,2.4-1.7,3.8-2c0.5-0.1,1.1-0.1,1.6-0.4c0.3-0.2,0.5-0.5,0.7-0.8
		c0.8-1.1,1.6-2.3,2.4-3.4c0.1-0.2,0.3-0.4,0.3-0.7c-0.1-0.3-0.5-0.5-0.8-0.5c-0.4,0.1-0.7,0.3-0.9,0.5c-0.2-1.2-1-2.4-2.2-2.9
		c-1.2-0.6-2.6-0.6-3.8,0c-0.3,0.1-0.6,0.3-0.8,0.6c-0.5,0.5-0.7,1.1-0.9,1.7c-1,2.7-2.3,5.2-4,7.6c1.7-0.3,3.4-0.3,5,0"/>
	<path id="Fill-5" class="st3" d="M26.8,13.3c0,0,0,0-0.1,0.1c-0.1,0.1-0.2,0.1-0.2,0.3c-0.2,0.2-0.2,0.8,0,1l-0.2-0.1
		c0.4,0,0.8-0.2,1.3-0.4c0.1-0.1,0.2-0.1,0.3-0.2c0.1,0,0.2-0.1,0.2-0.1c0,0-0.1,0.1,0,0.1c0,0,0,0,0-0.1c0-0.1,0-0.2,0-0.3
		c0-0.4,0-0.8,0-1.1c0-0.7,0.1-1.1,0.1-1.1s0.1,0.4,0.3,1c0.1,0.3,0.2,0.7,0.2,1.1c0,0.1,0,0.2,0.1,0.3c0,0,0,0.1,0,0.2
		c0,0.1-0.1,0.3-0.2,0.4c-0.2,0.2-0.2,0.2-0.4,0.2c-0.1,0.1-0.2,0.1-0.3,0.2c-0.5,0.3-1.1,0.4-1.7,0.3l-0.2,0L25.9,15
		c-0.2-0.4-0.1-0.7-0.1-1c0.1-0.3,0.3-0.4,0.4-0.6C26.6,13.3,26.8,13.3,26.8,13.3"/>
	<path id="Fill-7" class="st3" d="M27.1,15c0,0-0.1,0.1-0.1,0.2c0,0.1,0,0.3,0.2,0.4c0.2,0.1,0.4,0.1,0.6-0.1
		c0.2-0.1,0.5-0.4,0.8-0.7c0.2-0.1,0.3-0.2,0.3-0.3c0-0.1,0.1-0.2,0.1-0.4c0-0.4,0.1-0.7,0.1-1c0.1-0.5,0.2-0.9,0.2-0.9
		s0.1,0.3,0.2,0.9c0.1,0.3,0.1,0.6,0.2,0.9c0,0.2,0.1,0.4,0,0.7c0,0.2-0.1,0.3-0.2,0.4c-0.1,0.1-0.2,0.2-0.3,0.2
		c-0.3,0.3-0.6,0.5-1.1,0.7c-0.4,0.2-0.9,0.1-1.1-0.2c-0.3-0.3-0.1-0.6,0-0.7C27,15,27.1,15,27.1,15"/>
	<path id="Fill-9" class="st3" d="M27,15.8c0,0,0,0.1,0,0.2c0,0.1,0,0.3,0.1,0.5l-0.1-0.1c0.5,0.2,1.4,0.1,2-0.4
		c0.6-0.5,0.9-1.2,1.1-1.8c0.2-0.6,0.3-0.9,0.3-0.9s0.1,0.4,0.1,1c0,0.3,0,0.7-0.2,1.1c-0.1,0.4-0.4,0.9-0.8,1.2
		c-0.5,0.4-1.1,0.5-1.6,0.5c-0.5,0-0.9-0.2-1.2-0.4l-0.1-0.1l0,0c-0.1-0.3,0-0.6,0.1-0.7C27,15.8,27,15.8,27,15.8"/>
	<g id="Group-13" transform="translate(0.000000, 15.500000)">
		<g id="Clip-12">
		</g>
		<defs>
			<filter id="Adobe_OpacityMaskFilter" filterUnits="userSpaceOnUse" x="4.7" y="4.2" width="40.8" height="34.5">
				<feColorMatrix  type="matrix" values="1 0 0 0 0  0 1 0 0 0  0 0 1 0 0  0 0 0 1 0"/>
			</filter>
		</defs>
		<mask maskUnits="userSpaceOnUse" x="4.7" y="4.2" width="40.8" height="34.5" id="mask-2_1_">
			<g class="st4">
				<polygon id="path-1_1_" class="st5" points="4.7,4.2 45.5,4.2 45.5,38.7 4.7,38.7 				"/>
			</g>
		</mask>
		<path id="Fill-11" class="st6" d="M44.5,20.2c-8.4-1.3-16.9-1.7-25.3-1.2c-1,0.1-2.3-0.3-2.3-1.2c0-0.3,0.9-1.1,1.1-1.3
			c2.9-4.5,5.5-5.7,7.2-10.3c-1.1-0.2-3.1-2.5-4-1.9c-4.5,3-7.6,6.5-11.7,10c-1.4,1.2-2.8,2.4-3.8,4c-1,1.6-1.4,3.6-0.7,5.3
			c0.6,1.4,1.8,2.4,2.9,3.4c2.4,2,4.8,4,7.2,6c2.3,1.9,4.7,3.9,7.6,5c4.7,1.7,10,0.6,14.4-1.6c2-1,4-2.3,5.3-4.2
			c1.5-2.1,2.1-4.7,2.7-7.2c0.2-1.1,0.5-2.2,0.2-3.3c-0.3-1.1-1.2-2.1-2.3-2"/>
	</g>
	<path id="Fill-14" class="st2" d="M77.5,34.6c0-0.5-0.1-0.6-0.4-1.1c-0.4-0.5-0.9-0.9-1.4-1.3c-0.8-0.7-1.5-1.6-1.7-2.7
		c-0.2-1.1,0.1-2.3,1-2.9c0.5-0.4,1.1-0.6,1.4-1.1c0.1-0.3,0.2-0.6,0.2-0.9c0.1-0.7,0.3-1.3,0.7-1.9c0.2-0.4,0.5-0.7,0.9-0.8
		c0.4-0.1,0.9,0.1,1,0.5c0,0.3-0.1,0.6,0,0.8c0.3,0.6,1.3,0,1.7,0.5c0.2,0.2,0.2,0.4,0.3,0.6c0.1,0.3,0.4,0.6,0.7,0.8
		c0.3,0.3,0.7,0.5,1,0.8c0.2,0.2,0.4,0.3,0.5,0.6c0.1,0.2,0.1,0.4,0,0.6c-0.1,0.9-0.1,1.7-0.2,2.6c-0.1,0.9-0.1,1.8-0.7,2.5
		c-0.2,0.2-0.5,0.4-0.7,0.7c-0.8,0.8-0.6,2.1-0.4,3.2c-1.2,0.2-2.4,0.2-3.6-0.1c-0.5-0.1-0.5-0.3-0.4-0.8
		C77.5,34.6,77.5,35.1,77.5,34.6"/>
	<path id="Fill-16" class="st3" d="M81.9,27.7c0,0,0.1,0.1,0.1,0.3c0,0.2,0,0.6-0.3,0.9c-0.1,0.2-0.3,0.4-0.5,0.5
		c-0.1,0.1-0.3,0.1-0.4,0.2c-0.1,0-0.3,0.1-0.6,0c-0.2-0.1-0.3-0.2-0.3-0.3c0-0.1-0.1-0.2-0.1-0.2c0-0.1-0.1-0.3-0.1-0.4
		c0-0.3,0-0.6,0.1-0.9c0.1-0.5,0.4-1,0.8-1.3c0.4-0.3,0.9-0.5,1.3-0.5c0.9-0.1,1.4,0.3,1.6,0.5l0,0l0,0c0,0.2,0,0.2,0,0.2
		s0-0.1-0.1-0.2l0,0c-0.2-0.1-0.8-0.3-1.4-0.1c-0.3,0.1-0.6,0.3-0.9,0.5c-0.2,0.3-0.4,0.6-0.5,1c-0.1,0.2-0.1,0.5-0.1,0.7
		c0,0.1,0,0.2,0,0.4l0,0.1c0,0-0.1,0-0.1,0.1c0,0,0,0,0,0c0,0,0-0.1,0-0.1c0,0,0,0,0,0c0,0,0.1,0,0.1,0c0.1,0,0.2,0,0.3-0.1
		c0.2-0.1,0.4-0.2,0.5-0.3c0.3-0.2,0.4-0.5,0.5-0.7C81.9,27.8,81.9,27.7,81.9,27.7"/>
	<path id="Fill-18" class="st3" d="M80.5,27.3c0,0-0.1,0.1-0.2,0.2c-0.2,0.1-0.4,0.2-0.8,0.2c-0.1,0-0.2,0-0.3,0c-0.1,0-0.1,0-0.2,0
		c-0.1,0-0.2-0.1-0.2-0.2c-0.1-0.2-0.1-0.2-0.1-0.3c0-0.1,0-0.2-0.1-0.3c-0.1-0.4-0.1-0.8,0.1-1.3c0.1-0.5,0.4-0.9,0.8-1.2
		c0.4-0.3,0.8-0.4,1.1-0.4c0.7-0.1,0.8,0.5,0.8,0.5c0,0,0.1-0.2-0.1-0.2c-0.2,0-0.4,0-0.7,0.2c-0.2,0.1-0.5,0.3-0.7,0.5
		c-0.2,0.2-0.4,0.6-0.5,0.9c-0.1,0.4-0.1,0.7-0.2,1.1c0,0.1,0,0.2,0,0.3c0,0.1,0,0.2,0,0.2c-0.1,0-0.1,0.1-0.1,0c0-0.1,0,0,0.1,0
		c0.1,0,0.2,0,0.2,0c0.3,0.1,0.5,0.1,0.7,0.1C80.4,27.4,80.5,27.3,80.5,27.3"/>
	<path id="Fill-20" class="st3" d="M77.8,26.5c0,0,0,0.1-0.1,0.2c-0.1,0.1-0.3,0.1-0.6-0.1c-0.3-0.2-0.4-0.6-0.4-1
		c0-0.4,0-0.7,0.1-1.1c0.1-0.4,0.2-0.8,0.5-1.1c0.2-0.3,0.5-0.4,0.7-0.5c0.2-0.1,0.4-0.1,0.5-0.1c0.1,0,0.2,0,0.2,0
		s-0.2,0.2-0.5,0.5c-0.1,0.2-0.3,0.3-0.4,0.6c-0.1,0.2-0.2,0.5-0.2,0.8c-0.1,0.3-0.1,0.6-0.2,0.9c0,0.3-0.1,0.5,0,0.6
		c0.1,0.2,0.2,0.2,0.3,0.3C77.8,26.6,77.8,26.5,77.8,26.5"/>
	<path id="Fill-22" class="st7" d="M60.7,131.4c-2.5,3.3-3.5,7.8-2.8,11.9c0.1,0.6,0.3,1.1,0.7,1.5c0.4,0.3,0.8,0.5,1.3,0.6
		c0.9,0.3,1.2,0,1.8,0.7c0.6,0.7,0.9,1.8,0.4,2.6c-0.4,0.6-1.1,0.9-1.9,1c-1.8,0.2-3.1,0-4.4-1.3c-1.3-1.3-2.1-3.1-2.6-4.9
		c-0.4-1.6-0.6-3.3-1.9-4.3c-0.8-0.6-2-0.8-2.4-1.7c-0.4-0.9,0.2-1.9,1-2.4c0.8-0.5,1.8-0.7,2.6-1.2c2.4-1.4,3.5-4.8,6.3-5.2
		c0.7-0.1,1.5,0.1,1.9,0.7c0.4,0.7,0,1.6-0.4,2.3c-0.6,1-1.2,2-2,3"/>
	<path id="Fill-22-Copy" class="st7" d="M39.2,152.5c0.3,4.2-1.3,8.5-4.2,11.5c-0.4,0.4-0.8,0.8-1.4,0.9c-0.5,0.1-1-0.1-1.4-0.2
		c-0.9-0.3-1-0.6-1.9-0.4c-0.9,0.2-1.7,1-1.7,1.9c0,0.7,0.5,1.4,1,1.9c1.4,1.2,2.6,1.7,4.4,1.3c1.8-0.4,3.5-1.4,4.8-2.7
		c1.2-1.1,2.3-2.5,3.9-2.6c1-0.1,2.1,0.4,2.9-0.1c0.8-0.5,0.8-1.7,0.5-2.6c-0.4-0.9-1.1-1.6-1.5-2.4c-1.3-2.4-0.4-5.9-2.4-7.8
		c-0.5-0.5-1.3-0.8-2-0.4c-0.7,0.4-0.9,1.3-0.9,2.1c-0.1,1.2-0.1,2.4,0,3.6"/>
	<path id="Fill-24" class="st8" d="M51.3,63.4c5.9,9.7,11.8,19.4,19.4,27.8c3.8,4.3,8.3,8.9,8,14.6c-0.1,2.8-1.5,5.5-2.9,7.9
		c-3.7,6.6-8,12.9-12.8,18.8c-1.6,2-3.9,4.2-6.4,3.7c-2.1-0.4-3.4-2.5-3.7-4.6c-0.2-2.1,0.4-4.2,0.9-6.2c1.4-5.3,2.4-10.7,2.9-16.2
		c0.2-1.7,0.3-3.5-0.3-5.1c-1.4-3.9-6.2-5.2-9.4-7.8c-5.8-4.7-6.5-13.2-6.7-20.6c-0.1-5.1,0.7-11.5,5.5-13c2.9-0.9,6.4,0.9,7.4,3.8"
		/>
	<path id="Fill-26" class="st8" d="M58.7,121.1c1.9-3.7,1.9-7.8,1.6-11.8c-0.1-1.5-0.2-3-1.1-4.3c-0.8-1.2-2.1-1.9-3.3-2.6
		c-0.4-0.2-0.7-0.4-1.1-0.6c0.6,0.6,1.1,1.4,1.4,2.2c0.6,1.6,0.5,3.4,0.3,5.1c-0.5,5.4-1.5,10.8-2.9,16c-0.4,1.5-0.8,3-0.9,4.6
		c0.1-0.1,0.2-0.3,0.3-0.4C55,126.5,57.1,124,58.7,121.1"/>
	<path id="Fill-28" class="st9" d="M43.4,67c1.6,0.7,2.9,1.7,4,3.1c1.9,2.3,3,5.2,5.4,7.1c0.8,0.6,1.6,1.2,2.6,1.4
		c0.9,0.2,1.8,0,2.6-0.2c0.8-0.3,1.6-0.6,2.3-1.1c-2.5-3.6-4.8-7.4-7.1-11.1c-0.2-0.7-0.7-1.4-1.2-1.9c-0.2-0.3-0.4-0.6-0.6-0.9
		l0.5,0.9c-1.5-1.6-3.9-2.4-6-1.7c-1.9,0.6-3.2,2-4,3.8C42.6,66.5,43,66.7,43.4,67"/>
	<path id="Fill-30" class="st10" d="M39.2,27.1c0.5-1.5-0.7-2.1-1.5-3.4c-0.8-1.3-1.9-2.5-2.5-3.9c-0.6-1.5-0.6-3.1-0.6-4.7
		c0-1.3,0-2.7,0-4c0-0.5,0-1,0.2-1.5c0.4-0.8,1.4-1.1,2.3-1c0.9,0.1,1.8,0.3,2.6,0.4c3.2,0,5.7-3.4,8.8-3.2C51,5.7,52.8,8,54,10.2
		c1.2,2.1,2.2,4.6,1.1,6.7c-1.8,3.5-7.6,2.8-9.9,5.9c-0.8,1.1-1.1,2.6-2.2,3.5c-0.8,0.7-1.9,0.8-2.9,1.3c-0.5,0.2-0.2-0.1-0.7-0.2
		c-0.5-0.1-1.1-1.7-0.7-1.9"/>
	<path id="Fill-32" class="st3" d="M39.7,27.7c-0.2,3-0.3,6,0.2,8.9c0.1,0.8,0.3,1.6,0.8,2.3c1.4,1.9,4.1,1.4,6.2,0.7
		c0.3-3.1-0.1-6.3-0.9-9.2c-0.1-0.3-0.2-0.7-0.5-0.9c-0.2-0.2-0.5-0.3-0.8-0.4c-1.8-0.4-3.6-0.8-5.4-1.2"/>
	<path id="Fill-36" class="st11" d="M33.7,61.4c0.7,8.5-2.3,16.8-3.9,25.1c-1.3,6.7-1.6,13.5-1.9,20.3c-0.2,3.2-0.3,6.5-0.1,9.7
		c0.2,2.5,0.7,5,1.1,7.5c1.8,9.9,3.8,19.8,7.1,29.3c0.5,1.3,0.7,2.1,1.1,3.4c0.5,1.7,2.5,2.2,4.7,1.5c2.3-0.7,2.5-1.4,2.4-6
		c-0.3-8-0.7-16.1-1.1-24.1c-0.2-3.5-0.3-7,0.3-10.4c0.5-3,1.6-5.8,2.5-8.7c3.5-11.6,5.8-24.5,1.7-36c-1-2.8-2.1-5.4-6.6-7.7
		c-2.7-1.4-5-3.8-8.1-3.6"/>
	<path id="Fill-38" class="st9" d="M31.9,79.3c1.2-0.3,2.4-0.2,3.6,0.1c1.1,0.3,1.8,1.1,2.7,1.7c1.5,1,3.4,0.2,4.3-1.2
		c0.9-1.4,1.2-3.2,1.4-4.9c0.2-1.3,0.2-2.7,0.5-4c0,0-0.1-0.1-0.1-0.2c-0.1-0.5,0.1-1,0.2-1.5c0.1-0.5,0.3-1,0.4-1.5
		c-0.9-1-2.1-2-4-2.9c-2.4-1.2-4.5-3.4-7.2-3.6c0.5,6.1-0.9,12-2.3,18C31.7,79.3,31.8,79.3,31.9,79.3"/>
	<path id="Fill-40" class="st8" d="M45,112.3c-0.8,1.2-1.6,2.3-2.4,3.6c-0.8,1.2-1.4,2.5-1.9,3.9c-0.4,1.3-0.7,2.7-0.4,4.1
		c0.2,1.2,0.8,2.3,1.4,3.4c0.5,0.8,1,1.6,1.5,2.4l-0.1-1.2c-0.2-3.5-0.3-7.1,0.3-10.5C43.8,116,44.4,114.1,45,112.3"/>
	<path id="Fill-42" class="st12" d="M41,72.9c-3.4-0.8-5.7-3.8-7.5-6.8c-4.2-7.1-6.8-15-7.6-23.1c-0.1-1.2-0.2-2.5,0.3-3.7
		c0.5-1.1,1.4-1.9,2.4-2.5c2.7-1.6,6-2,9.1-2.2c4.4-0.2,8.8-0.2,13.2,0.2c1.6,0.1,3.3,0.3,4.7,1.1c2.9,1.6,3.9,5.3,4.3,8.5
		c1,6.9,0.7,14.3-3,20.3c-3.6,6-11.4,9.8-18,7.3"/>
	<path id="Fill-44" class="st13" d="M59.3,46.9c-1.4,0.3-2.8,0.4-4.3,0.5c-0.1,2.3-0.8,4.5-2.3,6.2c-2.7,2.9-7.1,3.7-10.8,2.8
		c-4-0.9-7.5-3.7-8.9-7.6c-0.1,0-0.1,0-0.2,0.1c-0.3,0.1-0.3,0.1-0.6,0.1c-0.5-0.1-0.9-0.2-1.4-0.3c-1-0.2-1.9-0.5-2.9-0.7
		c-0.7-0.2-1.4-0.4-2.1-0.6c1.2,6.6,3.6,12.9,6.9,18.7c1.7,3,4.1,6,7.4,6.8l-2-0.8c6.5,2.5,14.2-1.3,17.9-7.3
		C59.2,59.5,59.8,53.1,59.3,46.9"/>
	<path id="Fill-46" class="st12" d="M43.7,34.3c4.4-0.1,8.9-0.2,13.1,1.2c2.4,0.8,4.6,1.9,6.9,2.8c2.2,0.8,4.4,1.3,6.7,1.5
		c1,0.1,2,0.1,2.9-0.2c2.4-0.8,3.5-3.7,4.2-6.2c1,0.9,2.4,1.4,3.8,1.3c2.7,5.6,0.9,13-4,16.6c-4.5,3.4-10.6,3.5-16.2,2.9
		c-3.6-0.4-7.2-1-10.5-2.5c-3.3-1.5-6.2-4-7.7-7.4c-1.5-3.4-1.2-7.6,1.2-10.4"/>
	<g id="Group-50" transform="translate(0.000000, 15.500000)">
		<g id="Clip-49">
		</g>
		<defs>
			<filter id="Adobe_OpacityMaskFilter_1_" filterUnits="userSpaceOnUse" x="4.7" y="4.2" width="40.8" height="34.5">
				<feColorMatrix  type="matrix" values="1 0 0 0 0  0 1 0 0 0  0 0 1 0 0  0 0 0 1 0"/>
			</filter>
		</defs>
		<mask maskUnits="userSpaceOnUse" x="4.7" y="4.2" width="40.8" height="34.5" id="mask-4_1_">
			<g class="st14">
				<polygon id="path-3_1_" class="st5" points="4.7,4.2 45.5,4.2 45.5,38.7 4.7,38.7 				"/>
			</g>
		</mask>
		<path id="Fill-48" class="st15" d="M44.5,20.2c-8.4-1.3-16.9-1.7-25.3-1.2c-1,0.1-2.3-0.3-2.3-1.2c0-0.3,0.9-1.1,1.1-1.3
			c2.9-4.5,5.5-5.7,7.2-10.3c-1.1-0.2-3.1-2.5-4-1.9c-4.5,3-7.6,6.5-11.7,10c-1.4,1.2-2.8,2.4-3.8,4c-1,1.6-1.4,3.6-0.7,5.3
			c0.6,1.4,1.8,2.4,2.9,3.4c2.4,2,4.8,4,7.2,6c2.3,1.9,4.7,3.9,7.6,5c4.7,1.7,10,0.6,14.4-1.6c2-1,4-2.3,5.3-4.2
			c1.5-2.1,2.1-4.7,2.7-7.2c0.2-1.1,0.5-2.2,0.2-3.3c-0.3-1.1-1.2-2.1-2.3-2"/>
	</g>
	<path id="Fill-51" class="st12" d="M43.7,34.3c4.4-0.1,8.9-0.2,13.1,1.2c2.4,0.8,4.6,1.9,6.9,2.8c2.2,0.8,4.4,1.3,6.7,1.5
		c1,0.1,2,0.1,2.9-0.2c2.4-0.8,3.5-3.7,4.2-6.2c1,0.9,2.4,1.4,3.8,1.3c2.7,5.6,0.9,13-4,16.6c-4.5,3.4-10.6,3.5-16.2,2.9
		c-3.6-0.4-7.2-1-10.5-2.5c-3.3-1.5-6.2-4-7.7-7.4c-1.5-3.4-1.2-7.6,1.2-10.4"/>
	<g id="Group-55" transform="translate(0.000000, 15.500000)">
		<g id="Clip-54">
		</g>
		<defs>
			<filter id="Adobe_OpacityMaskFilter_2_" filterUnits="userSpaceOnUse" x="4.7" y="4.2" width="40.8" height="34.5">
				<feColorMatrix  type="matrix" values="1 0 0 0 0  0 1 0 0 0  0 0 1 0 0  0 0 0 1 0"/>
			</filter>
		</defs>
		<mask maskUnits="userSpaceOnUse" x="4.7" y="4.2" width="40.8" height="34.5" id="mask-6_1_">
			<g class="st16">
				<polygon id="path-5_1_" class="st5" points="4.7,4.2 45.5,4.2 45.5,38.7 4.7,38.7 				"/>
			</g>
		</mask>
		<path id="Fill-53" class="st17" d="M44.5,20.2c-8.4-1.3-16.9-1.7-25.3-1.2c-1,0.1-2.3-0.3-2.3-1.2c0-0.3,0.9-1.1,1.1-1.3
			c2.9-4.5,5.5-5.7,7.2-10.3c-1.1-0.2-3.1-2.5-4-1.9c-4.5,3-7.6,6.5-11.7,10c-1.4,1.2-2.8,2.4-3.8,4c-1,1.6-1.4,3.6-0.7,5.3
			c0.6,1.4,1.8,2.4,2.9,3.4c2.4,2,4.8,4,7.2,6c2.3,1.9,4.7,3.9,7.6,5c4.7,1.7,10,0.6,14.4-1.6c2-1,4-2.3,5.3-4.2
			c1.5-2.1,2.1-4.7,2.7-7.2c0.2-1.1,0.5-2.2,0.2-3.3c-0.3-1.1-1.2-2.1-2.3-2"/>
	</g>
	<path id="Fill-56" class="st12" d="M43.7,34.3c4.4-0.1,8.9-0.2,13.1,1.2c2.4,0.8,4.6,1.9,6.9,2.8c2.2,0.8,4.4,1.3,6.7,1.5
		c1,0.1,2,0.1,2.9-0.2c2.4-0.8,3.5-3.7,4.2-6.2c1,0.9,2.4,1.4,3.8,1.3c2.7,5.6,0.9,13-4,16.6c-4.5,3.4-10.6,3.5-16.2,2.9
		c-3.6-0.4-7.2-1-10.5-2.5c-3.3-1.5-6.2-4-7.7-7.4c-1.5-3.4-1.2-7.6,1.2-10.4"/>
	<path id="Fill-58" class="st13" d="M37,50.6c-0.6-1.5-0.2-3.7-1.8-4.7c-0.8-0.5-1.8-0.5-2.8-0.6c-1.3,0-2.5,0-3.8,0.1
		c-1.1,0.1-2.2,0.2-3.3,0c-0.8-0.1-1.5-0.3-2.3-0.5c-1.9-0.4-3.7-0.9-5.6-1.4c-3.8-1.1-7.9-2.5-10.9-5.1c-0.7-0.6-1.4-1.4-2-2.2
		c-0.1,0.8,0,1.6,0.3,2.3c0.6,1.4,1.8,2.4,2.9,3.3c2.4,2,4.8,3.9,7.3,5.9c2.4,1.9,4.8,3.9,7.7,4.9c4.7,1.7,10,0.6,14.5-1.6
		C37.2,51.1,37.1,50.9,37,50.6"/>
	<path id="Fill-60" class="st13" d="M80.1,44.4c-2.6,1.9-5.6,3.2-8.7,4.3c-6.6,2.3-14.4,1.4-20.3-2.4c-0.5,0.5-0.9,1-1.5,1.5
		c-0.9,0.8-1.8,1.4-2.8,2c1.1,0.9,2.4,1.6,3.7,2.2c3.3,1.4,6.9,2,10.5,2.4c5.6,0.6,11.7,0.5,16.2-2.7c3.1-2.2,4.9-5.8,5.2-9.5
		C81.9,43,81,43.8,80.1,44.4"/>
	<path id="Fill-62" class="st18" d="M26.9,34.2c1,4.9,0.5,10.2-1.5,14.8c-0.7,1.7-1.6,3.4-1.9,5.2c-0.3,2.2,0.2,4.4,0,6.5
		c-0.1,2.3-1,4.5-1.7,6.7c-0.7,2.2-1.2,4.6-0.7,6.9c0.6,2.3,2.5,4.3,4.8,4.2c1.2-0.1,2.3-0.7,3.4-1c1.7-0.5,3.6-0.5,5.4,0.1
		c1,0.4,1.9,0.9,3,0.9c1.8,0,3.3-1.4,3.9-3.1c0.6-1.7,0.5-3.5,0.4-5.3c-0.5-6.9-0.9-13.8-1.4-20.6c-0.3-5.1-0.7-10.3-2.2-15.2
		c-0.2-0.8-0.5-1.6-1.1-2.1c-1.9-1.7-4.7,0.3-7.3,0.5c-1,0.1-2.1-0.1-2.9,0.4c-0.8,0.6-0.6,2.3,0.3,2.1"/>
	<path id="Fill-64" class="st18" d="M51.1,35c-2.8,3.2-3.3,6.2-3.9,10.5c-0.6,4.3-0.1,8.7,0.5,13.1c0.8,5.1,1.8,10.3,4.2,14.8
		c0.8,1.6,2.1,3.2,3.9,3.3c0.9,0.1,1.8-0.3,2.7-0.7c3.2-1.4,6.5-2.9,9.7-4.3c1-0.4,2-0.9,2.5-1.9c0.8-1.6-0.7-3.5-2.3-4.3
		c-1.6-0.8-3.6-1.1-5-2.2c-2-1.6-2.5-4.4-2.8-6.9c-0.6-5-1.2-10-1.8-15c-0.3-2.2,0-5.6-2.2-6.3C54.7,34.4,53,34.1,51.1,35"/>
	<path id="Fill-66" class="st2" d="M38.6,17.4c0.4,3-0.6,6.2,0.4,9c1,2.9,3.9,4.8,6.9,5.1c1.3,0.1,2.7-0.1,3.6-1.1
		c0.5-0.5,0.7-1.1,1-1.6c1.6-3.6,2.7-7.5,3-11.5c0.1-1.2,0.1-2.3-0.2-3.4c-0.5-1.6-1.7-2.8-3.2-3.5c-1.5-0.7-3.1-0.9-4.8-0.9
		c-1.3,0-2.6,0.2-3.6,1.1c-0.8,0.7-1.2,1.6-1.7,2.6c-1,2.2-2,4.5-1.8,7"/>
	<path id="Fill-68" class="st19" d="M48.2,29.8c-0.5-0.4-1-0.7-1.6-0.9c-1.3-0.3-2.7-0.2-4,0.3c-0.5,0.2-0.9,0.4-1.4,0.6
		c1.2,1,2.7,1.6,4.2,1.7c1.3,0.1,2.6-0.1,3.5-1.1C48.6,30.2,48.4,30,48.2,29.8"/>
	<path id="Fill-70" class="st2" d="M38,19.9c0.3-0.8,0.6-1.7-0.3-2.4c-0.3-0.2-0.9-0.4-1.5-0.3c-0.4,0.1-0.5,0.3-0.5,0.5
		c-0.2,0.6-0.3,1.2-0.1,1.8c0.2,0.6,0.9,1.2,2,1.5c0,0,0.1,0,0.2,0c0.2,0,0.3-0.1,0.2-0.2c-0.2-0.5-0.1-1,0.4-1.4"/>
	<g id="Group-74" transform="translate(34.000000, 0.500000)">
		<g id="Clip-73">
		</g>
		<defs>
			<filter id="Adobe_OpacityMaskFilter_3_" filterUnits="userSpaceOnUse" x="3.5" y="4.4" width="20.5" height="17.5">
				<feColorMatrix  type="matrix" values="1 0 0 0 0  0 1 0 0 0  0 0 1 0 0  0 0 0 1 0"/>
			</filter>
		</defs>
		<mask maskUnits="userSpaceOnUse" x="3.5" y="4.4" width="20.5" height="17.5" id="mask-8_1_">
			<g class="st20">
				<polygon id="path-7_1_" class="st5" points="3.5,4.4 24,4.4 24,21.9 3.5,21.9 				"/>
			</g>
		</mask>
		<path id="Fill-72" class="st21" d="M6.6,20.3c0-0.9,0-1.8,0-2.8c0-1.7,0.1-3.5,1.3-4.6c1.1-0.9,2.6-0.9,4-0.5
			c1.3,0.4,2.6,1,3.9,1.3c3.8,0.7,7.8-2.3,8.2-6.2c0.1-0.7,0-1.6-0.6-2c-0.8-0.6-1.8-0.1-2.6,0.5s-1.4,1.4-2.3,1.6
			C17.2,7.8,16,6.8,15,5.9s-2.3-1.8-3.5-1.4c-1.1,0.4-1.6,1.6-2.3,2.5c-1,1.2-2.5,1.9-3.6,3.1c-1,1.1-1.4,2.6-1.8,4.1
			c-0.2,0.7-0.4,1.4-0.2,2.1c0.2,1,1.1,1.7,1.2,2.7c0.1,0.5-0.1,1-0.1,1.6c0,0.5,0.2,1.1,0.7,1.3c0.5,0.1,0.9-0.2,1.1-0.6
			c0.2-0.4,0.2-0.9,0.2-1.4c-0.1-1.7-0.4-2.7-1-3.2"/>
	</g>
	<path id="Fill-75" class="st3" d="M36.4,18.2c0,0,0.1-0.1,0.2-0.1c0.2,0,0.4,0.1,0.5,0.5c0.2,0.3,0.2,0.8,0.2,1
		c0,0.3-0.1,0.4-0.1,0.4s0-0.2-0.1-0.4c0-0.2-0.1-0.5-0.2-0.7c-0.1-0.2-0.2-0.4-0.3-0.6C36.5,18.3,36.4,18.2,36.4,18.2"/>
	<path id="Fill-85" class="st22" d="M49.3,87.3c0,0,0,0,0.1,0c0.1,0,0.2,0,0.4-0.1c0.3-0.1,0.7-0.4,1-0.9c0.3-0.5,0.3-1.1,0.1-1.8
		c-0.2-0.7-0.7-1.4-1.2-2.2c-1.1-1.6-1.6-3.3-1.7-4.5c-0.1-0.6-0.1-1.1-0.1-1.4c0-0.3,0-0.5,0-0.5s0,0.2,0.1,0.5
		c0.1,0.3,0.2,0.8,0.4,1.4c0.4,1.1,1.1,2.6,2.1,4.1c0.5,0.8,1,1.6,1.2,2.5c0.2,0.9,0,1.7-0.5,2.2c-0.4,0.5-1,0.7-1.4,0.8
		c-0.2,0-0.3,0-0.4,0C49.3,87.3,49.3,87.3,49.3,87.3"/>
	<path id="Fill-89" class="st22" d="M50.8,74.8c0,0,0.1,0.1,0.4,0.2c0.2,0.1,0.6,0.3,1,0.6c0.8,0.5,2,1,3.3,1.5
		c1.3,0.5,2.5,0.8,3.5,1c0.5,0.1,0.8,0.2,1.1,0.2c0.3,0,0.4,0.1,0.4,0.1s-0.1,0-0.4,0.1c-0.3,0.1-0.7,0.1-1.1,0.1
		c-1,0-2.3-0.1-3.7-0.6c-1.4-0.5-2.5-1.4-3.3-2c-0.4-0.3-0.6-0.6-0.8-0.9C50.9,74.9,50.8,74.8,50.8,74.8"/>
	<path id="Fill-91" class="st22" d="M47.9,73.4c0,0.3-0.4,0.5-1,0.5s-1-0.2-1-0.5s0.4-0.5,1-0.5S47.9,73.1,47.9,73.4"/>
	<path id="Fill-93" class="st12" d="M35.8,27.5c0.5,0.8,1.3,1.4,1.9,1.8c1.5,0.9,2.6,1.4,4.4,1.2c1.5-0.1,3-0.7,4.4-0.1
		c1,0.4,1.7,1.3,2.7,1.7c1,0.4,2.2,0.2,3.2-0.2c0.3-0.1,0.8-0.7,1.5-2.2c0.2-0.4,0.5,2.4,0.5,2.8c0,1.1-0.4,1.1-0.4,1.5
		c0,1.2,1,2.4,0.4,3.4c-0.2,0.4-0.6,0.6-1.1,0.7c-2.3,0.6-4.5-1.2-6.9-1.7c-2.4-0.5-4.8,0.2-7.3,0c-1.8-0.1-3.5-0.8-5-1.8
		c-1.2-0.9-2.2-2.6-1.4-3.8c0.2-0.2,0.4-0.5,0.5-0.7c0.2-0.5,0.1-1.1,0.1-1.6c0-0.6,0.3-1.3,0.8-1.6C34.8,26.6,35.6,26.9,35.8,27.5
		c0,0.2,0.5,0.7,0.6,0.9c0.1,0.3-0.1,0.4,0.2,0.4"/>
</g>
<g id="Group-70" transform="translate(147.000000, 0.000000)">
	<path class="st23" d="M79.1,12.1c-0.2,0-0.3-0.3-0.2-0.4c0.1-0.1,0.3-0.2,0.5-0.2c1-0.2,2-0.3,3-0.3c1,0,2,0.2,2.9,0.6
		c0.2,0.1,0.3,0.2,0.3,0.4c0,0.1-0.2,0.2-0.3,0.3c-1.5,0.5-3.1,0.7-4.6,0.5c-0.2,0-0.4-0.1-0.7-0.1c-0.4-0.2-0.8-0.6-1.1-0.9"/>
	<path class="st24" d="M81.3,11.9c-0.1-0.5,0.3-0.8,0.7-1.1c1.8-1.3,3.8-2.6,4.5-4.8c0.2-0.6,0.4-1.4,1-1.5c0.4,0.9-0.2,2-0.5,3
		c-0.2,0.8-0.2,1.7-0.3,2.5c-0.1,0.8-0.5,1.7-1.2,2c-0.5,0.2-1,0.2-1.5,0.2c-0.4,0-0.7,0-1.1,0c-0.7,0-1.4-0.1-1.9-0.6"/>
	<path class="st24" d="M83.3,9.8c1-1.8,1.9-3.6,2.9-5.3c0.2-0.1,0.4,0.2,0.4,0.5c0,1.1-0.5,2.2-1.2,3c-0.7,0.9-1.7,1.6-2.6,2.2"/>
	<path class="st23" d="M11.7,53.5c-0.5,0.1-0.9,0.5-1.2,1c-0.2,0.5-0.3,1-0.4,1.6c-0.1,0.7-0.2,1.4-0.3,2.1C9.7,59,9.6,60,10,60.7
		c0.1,0.2,0.3,0.5,0.4,0.7c0,0.2,0,0.3,0.1,0.5c0.1,0.2,0.4,0.3,0.6,0.2c0.2,0,0.4-0.2,0.6-0.3c1-0.8,2.1-1.8,2.5-3.1
		c0.5-1.3,0.3-2.9-0.7-3.7c-0.1-0.1-0.3-0.2-0.4-0.3c-0.1-0.2-0.2-0.4-0.3-0.6c-0.3-0.5-1.1-0.7-1.6-0.4"/>
	<g id="Group-11" transform="translate(0.000000, 48.000000)">
		<g id="Clip-10">
		</g>
		<defs>
			<filter id="Adobe_OpacityMaskFilter_4_" filterUnits="userSpaceOnUse" x="-0.9" y="3.1" width="14.4" height="8.1">
				<feColorMatrix  type="matrix" values="1 0 0 0 0  0 1 0 0 0  0 0 1 0 0  0 0 0 1 0"/>
			</filter>
		</defs>
		<mask maskUnits="userSpaceOnUse" x="-0.9" y="3.1" width="14.4" height="8.1" id="mask-10_1_">
			<g class="st25">
				<polygon id="path-9_1_" class="st5" points="-0.9,3.1 13.5,3.1 13.5,11.2 -0.9,11.2 				"/>
			</g>
		</mask>
		<path class="st26" d="M12.4,7.2C11.8,6.8,11,7,10.2,6.8C9.8,6.7,9.7,6.5,9.6,6.2c-0.4-0.8-0.6-1-1-1.8C8.3,4,7.6,3.4,7.1,3.2
			C6.2,2.9,5.5,3.1,4.6,3.3c-0.3,0-0.5,0.2-0.7,0.4c0,0.4,1.3,0.2,2,0.2c0.7,0,1.2,0.3,0.9,0.8C6,5.1,5.3,4.7,4.5,4.6
			C2.7,4.5,0.7,5,0.7,5.4c-0.1,0.4,2,0.2,3,0.2c0.4,0,0.7,0,1.1,0.2c0.3,0.1-0.4,0.4-0.7,0.4c-1.6,0-3.3,0-4.8,0.4
			C-0.9,6.6-0.9,7-0.6,7C1,7.3,2.5,7.2,4,7.5C3.9,8.1,3.3,8.2,2.7,8.2C2,8.3,0.7,8.3,0.2,8.6c-0.2,0.1-0.6,0.3-0.5,0.5
			c0.1,0.2,0.5,0.3,0.7,0.3c1.2-0.1,2.5-0.2,3.7-0.4c0.2,0,0.6,0.4,0.5,0.6c-0.5,0.6-2.1,0.7-2,1.6c3.2-0.9,6.7-1,9.9-0.6
			c0.3,0,0.7,0.1,0.9-0.2c0.2-0.2,0.1-0.5,0.1-0.8C13.2,8.6,13.2,7.9,12.4,7.2"/>
	</g>
	<path id="Fill-12" class="st27" d="M38.5,81c-1.6,0-2.7,1.7-3.5,3c-2.5,3.9-6.6,7.3-7,11.9c0,0.2,0,0.5,0.1,0.7
		c0.1,0.2,0.3,0.3,0.5,0.4c13.2,7.6,26,10.3,38.1,19.5c1.4,1,2.8,2.2,3.4,3.8c0.2,0.5,0.8,0.6,1.2,0.2c0.5-0.6,0.9-1.9,0.9-2.7
		c0.1-2.8,0.4-3.2-1.8-5c-0.7-0.6-1.3-0.6-1.8-1.4c-0.9-1.6-0.6-3.2-2.1-4.3c-1.5-1.1-3.4,0.4-5.2,0.1c-1.1-0.2-4.5-5.4-5.4-6.1
		c-3.9-3-8.1-4.8-11.8-4.9c-1.5-0.1-1.8-0.9-0.6-1.8c1.4-1.1,3.3-1.5,3.9-1.8c3.4-1.7,5.6-2.1,8.9-3.9c3.3-1.8,5.1-5.2,5.3-8.9
		c0-0.8-0.1-1.6-0.6-2.2c-0.5-0.6-1.3-0.8-2-0.9c-1.2-0.3-2.5-0.5-3.7-0.7c-1.5-0.3-3.1-0.5-4.6-0.3c-1.5,0.2-2.8,0.7-4.2,1.3
		c-2.7,1.1-5.5,2.3-8.2,3.4c-0.2,0.1-0.4,0.2-0.4,0.4c0,0.2,0.3,0.3,0.3,0.1"/>
	<path class="st28" d="M35.7,83.8c0.4,0.2,0.8,0.4,1.2,0.6c1.4,0.6,2.8,1.1,4.3,1.4c1.4,0.3,2.9,0.6,4.3,0.4
		c2.9-0.3,5.4-2.3,8.3-2.2c0.2,0,0.3,0.2,0.3,0.3c0,1-0.5,1.9-1.2,2.6c-1.4,1.5-3.3,2.4-5,3.6c-1.2,0.9-2.5,1.9-3,3.3
		c1.3-0.8,2.8-1.1,3.4-1.4c3.5-1.7,5.7-2.1,9.1-3.9c3.4-1.8,5.1-5.1,5.3-8.9c0-0.8-0.1-1.6-0.6-2.2c-0.5-0.6-1.3-0.8-2.1-0.9
		c-1.3-0.3-2.5-0.5-3.8-0.7c-1.5-0.2-3.1-0.5-4.6-0.3c-1.5,0.2-2.9,0.7-4.2,1.3c-2.8,1.1-5.5,2.3-8.3,3.4c-0.2,0.1-0.4,0.2-0.4,0.4
		c0,0.2,0.3,0.3,0.3,0.1l0.2,0.1C37.6,80.9,36.5,82.5,35.7,83.8"/>
	<g id="Group-20" transform="translate(62.000000, 69.000000)">
		<g id="Clip-19">
		</g>
		<defs>
			<filter id="Adobe_OpacityMaskFilter_5_" filterUnits="userSpaceOnUse" x="-3" y="1.9" width="26.4" height="81.6">
				<feColorMatrix  type="matrix" values="1 0 0 0 0  0 1 0 0 0  0 0 1 0 0  0 0 0 1 0"/>
			</filter>
		</defs>
		<mask maskUnits="userSpaceOnUse" x="-3" y="1.9" width="26.4" height="81.6" id="mask-12_1_">
			<g class="st29">
				<polygon id="path-11_1_" class="st5" points="-3,1.9 23.5,1.9 23.5,83.5 -3,83.5 				"/>
			</g>
		</mask>
		<path class="st30" d="M-2.9,8.1c0.4,4.2-0.7,5.5,0.7,9.5c1,2.9,2,5.5,3.8,9.4c1.6,3.4,5.1,9.4,6.7,12.9c0.7,1.4,1.6,2.8,2.3,4.2
			c0.9,1.9,1.6,3.9,2.2,5.9c0.8,2.4,1.6,4.9,2.3,7.3c0.5,1.7,1.1,3.4,1.3,5.1c0.3,1.9,0.2,3.8,0.2,5.7c-0.1,4.1,0.5,5.3,0.4,9.4
			c0,2,0.4,4.9,2.1,5.8c1.4,0.7,1.7,0.1,2.6-1.1c0.9-1.3,1.4-1.4,1.4-3c-0.1-1.6-0.5-2.9-0.4-4.5c0.1-1,0.8-2.1,0.7-3.1
			c0-2-0.9-2.8-1.7-4.7c-0.3-0.8-0.8-2.1-1-3c-0.2-1-0.3-2-0.3-3C20,51.5,19.4,42.4,18,33.1c-0.4-2.3-0.7-4.7-0.7-7.4
			c0-2.4,0-4.5-0.2-6.8c-0.1-1.5-0.5-2.9-0.9-4.3c-0.8-2.9-1.6-5.8-3.2-8.3c-1.7-2.5-4.3-4.4-7.3-4.4c-1.4,0-2.7,0.4-4.1,0.9
			C0.6,3.2-0.3,3.5-1.2,4c-0.4,0.2-0.8,0.4-1,0.8c-0.3,0.5-0.1,1.1,0.1,1.6C-1.8,7.4-3.3,7.1-2.9,8.1"/>
	</g>
	<path id="Fill-21" class="st28" d="M60.3,86.2c0.2-0.2,0.3-0.3,0.5-0.5c0.9-0.7,1.9-1.2,2.9-1.7c1.8-0.8,3.8-1.6,5.8-1.6
		c0.8,0,1.9,0,2.2-1c0.1-0.4,0.2-0.7,0.4-1.1c0.1-0.3,0.4-0.6,0.6-0.8c0.4-0.4,0.8-0.1,1.2,0c0.9,0.2,1.8-0.1,2.5-0.5
		c0.2-0.1,0.4-0.2,0.5-0.3c-0.5-1.3-1-2.5-1.8-3.6c-1.6-2.5-4.2-4.4-7.1-4.4c-1.4,0-2.7,0.4-4,0.9c-0.9,0.4-1.8,0.7-2.7,1.2
		c-0.4,0.2-0.8,0.4-1,0.8c-0.3,0.5-0.1,1.1,0.1,1.7c0.3,1-1.1,0.8-0.8,1.7C60.1,81.1,59.2,82.5,60.3,86.2"/>
	<path id="Fill-23" class="st28" d="M78.7,136.9c0,1.1,0,2,0,2.8c1,0.1,2.1,0.2,3.1,0.3c-0.1-0.2-0.2-0.5-0.1-0.8
		c-0.8-3.2-1.6-6.3-2.4-9.5c-1.5-6-3.2-12-6.1-17.5c-0.7-1.3-1.4-2.5-2.2-3.7c-0.8-1.1-1.7-2.2-2.7-3.2c0.6,1.2,1.2,2.2,1.6,3.1
		c0.7,1.4,1.6,2.8,2.4,4.2c1,1.9,1.6,3.9,2.3,5.9c0.8,2.5,1.6,4.9,2.4,7.4c0.6,1.7,1.1,3.4,1.4,5.1C78.8,133,78.7,135,78.7,136.9"/>
	<path id="Fill-25" class="st7" d="M70.4,112.6c-0.7-0.6-1.3-0.6-1.8-1.5c-0.9-1.7-0.6-3.2-2.1-4.4c-1.5-1.2-3.3,0.4-5.1,0.1
		c-0.1,0-0.1,0-0.2-0.1c0,0.2,0,0.4,0,0.6c-0.3,1.5-1.3,2.7-2.5,3.6c2.7,1.6,5.4,3.3,8.1,5.4c1.3,1.1,2.7,2.3,3.3,3.9
		c0.2,0.5,0.8,0.7,1.1,0.3c0.5-0.6,0.9-2,0.9-2.8C72.2,114.9,72.5,114.4,70.4,112.6"/>
	<g id="Group-29" transform="translate(83.000000, 135.000000)">
		<g id="Clip-28">
		</g>
	</g>
	<path class="st12" d="M53.3,37.2c-0.6,2.1-1.2,4.1-1.8,6.2c-0.3,1-0.6,2.1-0.4,3.2c0.2,0.8,0.7,1.5,1.2,2.1
		c1.6,1.6,3.9,2.3,6.1,1.9c0.3-0.1,0.6-0.1,0.9-0.3c0.9-0.5,1.3-1.6,1.3-2.6c0-1-0.4-2-0.8-3c-0.8-2-1.6-4-2.4-6
		c-0.3-0.9-0.7-1.8-1.5-2.2c-1-0.6-2.4,0-2.8,1.1"/>
	<path class="st12" d="M48.6,52c0.4,3.3,0.7,6.7-0.2,9.8C48,63,47.5,64.2,47,65.3c-1.3,2.8-2.7,5.5-4,8.3c-0.7,1.4-1.4,2.9-2.5,4.1
		c-0.8,0.9-2,1.8-1.9,3c2.3,0.1,4.6,0.5,6.7,1.2c0.7,0.2,1.4,0.5,2.1,0.4c0.7,0,1.3-0.3,1.9-0.5c2.4-0.9,4.9-1.7,7.4-2.2
		c0.4-0.1,0.8-0.1,1.1,0.1c0.2,0.2,0.2,0.5,0.3,0.7c0.1,0.9,0.1,1.8,0,2.7c1.5,0.5,3.2-0.3,4.3-1.3c1.2-1,2.2-2.3,3.7-3
		c1.6-0.7,3.4-0.5,5-0.3c-0.2-0.9-0.8-1.6-1.6-1.9c0.6-0.8,1.8-1.1,2.7-0.6c0.5,0.3,1.1,0.8,1.6,0.6c0.6-0.2,0.8-0.9,1-1.5
		c0.5-1.7,1.8-3.1,3.4-3.8c1.4-0.6,2.9-0.6,4.3-1.2c1.4-0.6,2.6-2,2.1-3.4c-0.1-0.3-0.3-0.6-0.6-0.9c-1-1.3-2-2.7-3-4
		c-1.1-1.5-2.3-3-3.6-4.4c-3.4-3.6-8-5.9-11.4-9.5c-0.7-0.7-1.3-1.4-2.2-1.9c-1.8-0.9-3.9-0.2-5.7,0.6c-2.6,1.1-5.1,2.3-7.5,3.7
		c-0.6,0.3-1.2,0.7-1.5,1.2c-0.4,0.5-0.4,1.3,0,1.8"/>
	<path id="Fill-34" class="st13" d="M65.9,71c-1.9-2.6-4.2-5-6.8-7c0.1,1.5,0.3,3,0.4,4.6c0.2,2.8,0.3,5.6-0.3,8.3
		c-0.3,1.4-0.8,2.8-1.4,4.1c0,0.7,0,1.4-0.1,2.1c1.5,0.5,3.2-0.3,4.5-1.3c1.2-1,2.3-2.3,3.8-2.9c1.3-0.5,2.8-0.5,4.2-0.4
		C69.1,75.9,67.7,73.4,65.9,71"/>
	<path class="st13" d="M50.3,81.4c0.2-1,0.5-1.9,0.7-2.9c0.5-2.5,0.9-5.1,1-7.6c-0.6,1-1.1,2-1.7,2.9C49,75.9,47.6,78,46,79.9
		c-0.5,0.6-1.1,1.2-1.7,1.7c0.3,0.1,0.6,0.2,0.9,0.3c0.7,0.2,1.3,0.5,2,0.4c0.6,0,1.2-0.3,1.8-0.5C49.5,81.7,49.9,81.5,50.3,81.4"/>
	<path class="st31" d="M50.8,32.4c-3.5,1.7-7.1,3.3-10.6,5c-0.3,0.1-0.6,0.3-0.7,0.5c-0.1,0.3-0.1,0.6-0.1,1
		c0.1,1.9-1.4,3.4-2.8,4.6c-1.3,1.1-2.5,2.3-3.9,3.2c-0.9,0.6-1.8,1.1-2.6,1.7c-1.2,1-2.1,2.2-3.4,3c-0.9,0.5-2,0.7-3,0.9
		c-3.6,0.7-7.4,1.4-11,0.6c-0.6-0.1-1.4-0.1-1.6,0.5c-0.1,0.3,0.2,0.7,0.4,0.9c1.6,2.2,1.2,5.7-0.9,7.4c2,0,3.8-0.9,5.7-1.5
		c2.6-0.8,5.4-0.8,8.1-1c0.9-0.1,1.9-0.2,2.7-0.6c0.8-0.4,1.4-1,2.1-1.5c2.5-1.9,5.8-2.7,8.1-4.8c1.5-1.4,2.8-3.4,4.8-3.8
		c0,2.3,1.4,4.3,2.1,6.5c0.7,2.1,0.9,4.3,1.1,6.5c0.2,2.3,0.4,4.7-0.4,6.9c-0.4,1.3-1.2,2.4-1.6,3.7c-0.3,1-0.4,2.1-0.8,3.1
		c-0.9,2-3,3.2-3.8,5.2c1.1,0,2.3-0.1,3.4-0.1c0.8,0,1.7-0.1,2.4-0.4c0.9-0.4,1.5-1.3,2.1-2.2c1.4-2,2.8-3.9,3.6-6.2
		c1.1-2.9,1.2-6.2,2.1-9.2c0.6-1.8,1.5-3.5,2.1-5.4c0.4-1.1,0.6-2.3,0.8-3.5c0.8-5,0.8-10.2-0.1-15.2c-0.1-0.5-0.2-1-0.4-1.5
		c-0.3-0.6-0.8-1-1.2-1.4c-1-0.9-2.1-1.9-3.1-2.8"/>
	<g>
		<g>
			<path id="path-15" class="st32" d="M55,7.4c-0.8-0.1-1.4-0.6-2.1-0.9c-2.3-1.2-5.1-1.3-7.4-0.3c-1.9,0.9-3.3,2.5-4.3,4.3
				c-0.4,0.7-1.4,1.9-1,2.7c0.4,1,2.1,0.1,2,1.3c0,0.3-0.2,0.6-0.4,0.9c-0.6,0.8-1.4,1.6-1.8,2.5c-0.5,0.9-0.6,2.2,0.1,2.9
				c0.6,0.7,1.5,0.8,2.3,1.1c1.8,0.7,1.3,2.3,2.4,3.7c1.1,1.3,2.7,2.1,4.4,2.1c2.2-0.1,4.2-1.4,6.3-1.9c1.4-0.4,2.8-0.4,4.1-0.8
				c1.4-0.4,2.7-1.1,3.3-2.4c0.5-1.1,0.3-2.3,0.4-3.5c0.3-3.3,2.5-6.2,2-9.7c-0.1-1-0.6-2-1.4-2.7c-0.3-0.3-0.8-0.6-1.2-0.6
				c-0.4,0-0.8,0.3-1.2,0.5c-0.9,0.4-1.9,0.5-2.8,0.2c-0.9-0.3-1.8-0.9-2.6-0.5c-0.4,0.2-0.6,0.6-1,0.9c-0.3,0.3-0.8,0.4-1.2,0.2"/>
		</g>
		<g>
			<path class="st33" d="M55,7.4c-0.8-0.1-1.4-0.6-2.1-0.9c-2.3-1.2-5.1-1.3-7.4-0.3c-1.9,0.9-3.3,2.5-4.3,4.3
				c-0.4,0.7-1.4,1.9-1,2.7c0.4,1,2.1,0.1,2,1.3c0,0.3-0.2,0.6-0.4,0.9c-0.6,0.8-1.4,1.6-1.8,2.5c-0.5,0.9-0.6,2.2,0.1,2.9
				c0.6,0.7,1.5,0.8,2.3,1.1c1.8,0.7,1.3,2.3,2.4,3.7c1.1,1.3,2.7,2.1,4.4,2.1c2.2-0.1,4.2-1.4,6.3-1.9c1.4-0.4,2.8-0.4,4.1-0.8
				c1.4-0.4,2.7-1.1,3.3-2.4c0.5-1.1,0.3-2.3,0.4-3.5c0.3-3.3,2.5-6.2,2-9.7c-0.1-1-0.6-2-1.4-2.7c-0.3-0.3-0.8-0.6-1.2-0.6
				c-0.4,0-0.8,0.3-1.2,0.5c-0.9,0.4-1.9,0.5-2.8,0.2c-0.9-0.3-1.8-0.9-2.6-0.5c-0.4,0.2-0.6,0.6-1,0.9c-0.3,0.3-0.8,0.4-1.2,0.2"/>
		</g>
	</g>
	<path class="st13" d="M50.8,34.2c-0.3-0.4-0.6-0.9-0.7-1.4c0-0.1,0-0.2,0-0.3c0.1-0.3,0.5-0.2,0.7-0.1c1,0.5,2.1,0.4,3.2,0.3
		c1.1-0.1,2.1-0.4,3.2-0.3c0.2,0,0.5,0.1,0.6,0.4c0,0.2-0.1,0.4-0.3,0.5c-0.9,0.7-2,0.9-3,1c-1.1,0-2.1-0.1-3.2,0
		C51.1,34.3,50.9,34.3,50.8,34.2c-0.2-0.1-0.3-0.4-0.2-0.5"/>
	<path class="st24" d="M54.2,18c-1.5-0.1-2.9,0.8-3.9,1.9c-2.5,2.9-2.9,7.4-0.9,10.7c1,1.6,2.9,3,4.8,2.7c1.1-0.2,2-0.9,2.6-1.8
		c0.6-0.9,0.9-1.9,1.2-2.9c0.7-2.4,1.1-5.1-0.1-7.4c-0.9-1.7-2.6-2.9-4.5-3.3"/>
	<path class="st24" d="M48.6,25.9c-0.4-0.3-1-0.3-1.4,0c-0.4,0.2-0.7,0.6-0.9,1.1c-0.1,0.3-0.1,0.7,0,1c0.1,0.3,0.4,0.6,0.8,0.6
		c0.3,0,0.5-0.1,0.8-0.3c0.6-0.4,1.2-0.9,1.2-1.5c0.1-0.6-0.6-1.3-1.3-1.1"/>
	<path id="Fill-50" class="st24" d="M49.1,28.5c0.7,1.9,1.6,3.8,2.6,5.5c0.2,0.4,0.5,0.8,0.9,1c0.6,0.4,1.4,0.2,2.1,0
		c0.7-0.2,1.5-0.6,1.8-1.4c0.1-0.3,0.1-0.6,0.2-0.9c0-0.5,0-0.9,0-1.4c0-0.2-0.1-0.5-0.3-0.5c-0.1,0-0.1,0.1-0.2,0.1
		c-0.9,0.9-2.2,1.4-3.4,1.3c-1.2-0.1-2.4-0.7-3.2-1.7"/>
	<path id="Fill-52" class="st34" d="M56.8,31c1.5-1.6,4-1.2,6.1-1.9c1.4-0.5,2.5-1.6,3.6-2.7c4.5-4.6,8.3-9.9,11.3-15.6
		c0.1-0.1,0.2-0.3,0.3-0.4c0.1-0.1,0.3-0.1,0.5-0.1c2.1-0.1,4.2,0.2,6.2,0.9c-0.2,1-1,1.8-1.7,2.6c-2.6,2.7-4.7,5.8-6.3,9.2
		c-0.6,1.2-1.2,2.5-2.3,3.2c-0.2,0.1-0.5,0.3-0.7,0.5c-0.2,0.2-0.3,0.5-0.5,0.8c-0.7,1.5-2,2.5-3.1,3.6c-1.6,1.5-2.9,3.2-3.9,5.1
		c-1,0-1.8-0.7-2.5-1.4c-1.9-1.9-4-3.8-6.6-4.3"/>
	<path id="Fill-54" class="st31" d="M54.9,35.7c-0.1,3.7,0.5,7.3,1.1,10.9c0.2,1.1,0.4,2.3,0.8,3.4c0.4,0.9,0.9,1.7,1.5,2.5
		c4.8,7,9.5,14,14.3,21c0.4,0.6,0.9,1.2,1.6,1.2c0.4,0,0.7-0.3,1.1-0.6c2.3-2.1,4.8-4,7.5-5.5c1.5-0.9,3.1-1.7,4.8-1.5
		c-2.6-4.2-5.8-8-9.6-11.1c-0.9-0.7-1.7-1.4-2.6-2.2c-2.6-2.4-4.4-5.6-6.2-8.6c-1.1-1.9-2.3-4.1-1.9-6.3c0.1-0.8,0.4-1.5,0.6-2.3
		c0.1-0.8,0-1.7-0.7-2.2c-0.4-0.3-0.9-0.4-1.4-0.6c-1.4-0.6-2.4-1.8-3.7-2.5c-1.5-0.8-3.5-0.8-5,0.1c-0.2,0.1-0.4,0.3-0.5,0.5
		c-0.3,0.4,0,1,0,1.5c0.2,1.2-0.6,2.4-1.7,2.8"/>
	<path class="st12" d="M51,32.5c-0.2-0.1-0.4,0-0.6,0.1c0,0.3,0.3,0.4,0.6,0.5c2.1,0.3,4.3,0.1,6.4-0.4c0.3-0.1,0.6-0.1,0.8-0.1
		s0.5,0.3,0.5,0.6c0,0.3-0.4,0.6-0.5,0.9c-0.3,0.7,0.8,1.5,0.5,2.3c-0.1,0.2-0.2,0.3-0.4,0.5c-1.2,1-2.8,1.4-4.3,1.2
		c-1-0.1-2.2-0.7-2.3-1.7c0-0.2,0-0.4-0.1-0.5c-0.1-0.2-0.3-0.2-0.5-0.3c-0.5-0.3-0.8-0.9-0.9-1.4c-0.1-0.6,0.1-1.2,0.2-1.7"/>
	<path class="st13" d="M54,35.9c0.1,0.3,0.7,0.3,0.9,0.3c0.4,0,0.9,0,1.3-0.1c0.9-0.2,1.7-0.5,2.6-0.7c-0.2-0.4-0.3-0.7-0.3-1.1
		c-0.7,0.3-1.3,0.5-2.1,0.6C56.1,34.9,53.7,35.2,54,35.9"/>
	<path class="st13" d="M55.4,37.9c-1.3-0.1-2.3-0.6-3.3-1.3c-0.3-0.2-0.6-0.3-0.9-0.4c0,0,0,0-0.1,0c0.1,0.1,0.1,0.3,0.1,0.4
		c0.2,0.9,1.3,1.4,2.4,1.5c0.8,0.1,1.6,0,2.3-0.2C55.7,37.9,55.5,37.9,55.4,37.9"/>
	<path class="st35" d="M50.3,18.7c0.3-0.7,1.1-1,1.8-0.8c0.7,0.2,1.3,0.7,1.7,1.2c0.5,0.5,0.9,1.2,1.4,1.6c0.4,0.4,1,0.6,1.5,0.8
		c0.8,0.2,1.7,0.1,2.2-0.5c0.3-0.3,0.5-0.8,0.6-1.2c0.1-0.5,0.2-1.1,0-1.6c-0.2-0.5-0.7-1-1.2-0.9c-0.4,0-0.8,0.2-1.2,0.3
		c-1.9,0.5-3.8-2.1-5.7-1.4c-0.8,0.3-1.3,1.1-1.7,1.8c-0.6,1.2-1.3,2.4-1.4,3.7c0,0.4,0,0.9-0.3,1.3c-0.1,0.1-0.3,0.2-0.4,0.4
		c-0.6,0.5-0.6,1.6,0,2.1c0.2,0.2,0.5,0.3,0.7,0.2c0.6-0.1,0.6-0.9,0.5-1.5c-0.1-0.9-0.1-1.7,0-2.6c0-0.8,0.2-1.6,0.6-2.2
		c0.5-0.7,1.3-1.1,1.7-1.8"/>
</g>
<g id="Group-38" transform="translate(89.000000, 65.000000)">
	<path class="st24" d="M9,79.8c-0.9,3-0.9,6.1-0.2,9.1c-0.7,0.1-1.2-0.6-1.5-1.2c-0.2-0.4-0.4-0.9-0.7-1.3c-0.1-0.2-0.2-0.4-0.4-0.4
		c-0.2-0.1-0.4,0.1-0.6,0.3c-0.4,0.5-0.4,1.2-0.2,1.8c0.2,0.6,0.6,1.1,1.1,1.6c-0.8,0.6-2.1,0.1-2.3-0.8c0-0.2,0-0.4-0.2-0.5
		c-0.3-0.2-0.9,0.1-1-0.3c0-0.1,0-0.2,0-0.4c0-0.5-0.9-0.4-1.2-0.8c-0.1-0.1-0.1-0.3-0.1-0.5c-0.1-1.1-0.2-2.3-0.3-3.4
		c0-0.2,0-0.3,0-0.5c0.1-0.2,0.2-0.3,0.4-0.4c1.5-1.2,3-2.4,4.6-3.6c0.7-0.5,1.4-1.1,2.3-1C9,78.2,9.3,79.1,9,79.9
		c-0.3,0.7,0.5-0.8-0.3,0.7"/>
	<path class="st36" d="M7.3,84.4c-0.4,3,0.6,5.9,2.3,8.4c4.3,6.3,12.2,9.8,19.7,8.9c2.6-0.3,5-1.1,7.6-1.6c4.4-0.8,8.9-0.5,13.2,0.7
		c3.5,1,6.8,2.7,10.3,3.3c5.5,0.9,11.3-0.9,15.3-4.7c0.4-0.4,0.8-0.9,0.7-1.5c-0.1-0.5-0.7-0.8-1.3-0.9c-12.5-3.7-25.3-6.2-38.3-7.4
		c-3.7-0.3-7.4-0.6-11-1.6c-3.1-0.9-6.1-2.3-9.2-3.3C13.5,83.8,10.5,84.2,7.3,84.4"/>
	<path class="st37" d="M25.9,138c9.3-6.1,18.5-12.3,27.8-18.4c1.9-1.3,4-2.7,5.1-4.7c1.2-2.1,1.3-4.7,1.3-7.1
		c0-5.7-0.5-11.4-1.5-17.1c-1.5-8.9-5.1-18.7-13.5-22.1c-1.9-0.8-4-1.2-5.9-0.6c-2,0.5-3.7,2.1-4.1,4c-0.3,1.8,0.5,3.5,1.2,5.2
		c3.1,6.6,5.3,11.9,5.6,19.2c0.2,3.3,4.4,6.9,5.1,9.8c0.7,2.9-2.6,4.6-5.7,8c-3.9,4.2-8.8,11.5-12.2,16.1c-2.5,3.3-6.2,4-5.6,7.4
		c2.9-0.3,5.8-1.5,7.9-3.6"/>
	<path class="st24" d="M12.6,132.2c5.7-4.9,8.1-17.6,14.4-21.8c2.2-1.5,3.2-2.5,5.7-2.9c3-0.4,0.8-1.4-0.5-3.8
		c-0.5-0.9-2.7-3.4-3.4-4c-4.3-3.8-5.9-8.8-2.9-13.8c2.5-4.2,5.7-11.1,11.3-10.4c3.8,0.4,7,3.4,8.7,6.9c1.7,3.5,2.2,7.4,2.4,11.3
		c0.3,5.3,0.2,10.9-2.6,15.3c-1.6,2.5-3.9,4.4-6.1,6.3c-7.5,6.3-14.9,12.5-22.4,18.8c-1.2,1-2.5,2-4,1.9c-1.5-0.1-2.9-1.9-1.9-3.1
		c1.4-0.9,2.8-1.5,3.5-3"/>
	<path class="st7" d="M30.2,135.4c-2.7,3.2-5.5,6.5-6.1,10.6c-0.2,1.2-0.3,2.7-1.3,3.4c-0.1,0.1-0.2,0.1-0.4,0.1
		c-0.2,0-0.3-0.1-0.4-0.3c-1.5-1.6-1.2-4.1-0.7-6.3c0.5-2.1,1.2-4.5,0.2-6.4c-0.4-0.7-1-1.5-0.9-2.3c0.1-1,1.1-1.6,2-1.8
		c1-0.2,2-0.1,3-0.2c0.4,0,0.8-0.1,1.1,0.1c0.6,0.3,0.5,1.1,0.6,1.7c0.3,1.1,1.6,1.9,2.8,1.5"/>
	<path class="st7" d="M16.8,133.5c-3.1,3.3-6.2,6.8-7.2,11.3c-0.3,1.4-0.5,3-1.7,3.7c-0.1,0.1-0.2,0.1-0.4,0.1
		c-0.2,0-0.3-0.2-0.4-0.3c-1.4-2-0.8-4.8-0.1-7.1c0.7-2.3,1.7-4.9,0.9-7.2c-0.3-0.9-0.8-1.7-0.7-2.7c0.2-1.1,1.2-1.7,2.3-1.8
		c1-0.1,2,0.1,3,0.1c0.4,0,0.8,0,1.1,0.2c0.5,0.4,0.4,1.3,0.5,2c0.2,1.3,1.5,2.3,2.7,2"/>
	<g id="Group-15" transform="translate(26.000000, 0.500000)">
		<g id="Clip-14">
		</g>
		<defs>
			<filter id="Adobe_OpacityMaskFilter_6_" filterUnits="userSpaceOnUse" x="0.5" y="2.2" width="52.3" height="50.2">
				<feColorMatrix  type="matrix" values="1 0 0 0 0  0 1 0 0 0  0 0 1 0 0  0 0 0 1 0"/>
			</filter>
		</defs>
		<mask maskUnits="userSpaceOnUse" x="0.5" y="2.2" width="52.3" height="50.2" id="mask-18_1_">
			<g class="st38">
				<polygon id="path-17_1_" class="st5" points="0.5,2.2 52.8,2.2 52.8,52.5 0.5,52.5 				"/>
			</g>
		</mask>
		<path id="Fill-13" class="st39" d="M17.1,43.1c-4.2,0.8-8.7-0.5-11.9-3.4c-3.2-2.8-5-7.2-4.7-11.4c0.1-1.6,0.6-3.4,2.1-4.2
			c1.1-0.6,2.6-0.4,3.8-0.9c2.4-1,2.8-4.1,4-6.4c2-3.7,7.3-5.3,11.1-3.2c1.3,0.7,2.3,1.7,3.6,2.3c1.5,0.7,3.2,0.7,4.8,0.8
			c2.9,0.1,5.9,0.1,8.6-0.9c2.7-1,5.2-3.3,5.5-6.2c0.3-2.6-0.9-6.1,1.5-7.2c1.2-0.6,2.8,0,3.7,1.1C50,4.6,50.4,6,50.7,7.3
			c1.4,5.6,2.8,11.4,1.6,17.1s-5.7,11.1-11.5,11.3c-0.9,0-1.9-0.1-2.7,0.3c-2.6,1-2.6,4.5-2.9,7.2c-0.5,3.9-3,7.7-6.7,8.9
			s-8.5-0.9-9.4-4.7c-0.2-1-0.2-2.1-0.7-3.1c-1.3-2.5-5-2-7.8-1.1"/>
	</g>
	<path class="st24" d="M46.8,35.5c-0.3,0.9-0.2,1.8,0,2.7c0.3,1.8,0.5,3.5,0.8,5.3c0.1,0.5,0.1,1.1-0.2,1.5
		c-0.3,0.4-0.8,0.6-1.3,0.7c-0.8,0.2-1.9,0.2-2.4-0.5c-0.4-0.5-0.3-1.2-0.4-1.8c-0.2-1.1-0.9-1.9-1.2-3c-0.7-2.1,0.8-4.6,3-5.2
		c0.3-0.1,0.7-0.1,1,0c0.9,0.5-0.2,1.8,0.5,2.4"/>
	<path class="st24" d="M54.3,25.5c-0.5-0.1-1.1-0.1-1.6-0.2c-0.6-0.1-1.2-0.2-1.8-0.4c-1.9-0.8-3-3-4.9-3.8c-1-0.4-2.2-0.4-3.3-0.3
		c-1.3,0.1-2.6,0.2-3.8,0.3c-0.4,0-0.8,0.2-0.8,0.5c0,0.4,0.5,0.5,0.9,0.5c1.3,0,2.6,0,3.9-0.1c0.6,0,1.2,0,1.7,0.3
		c0.3,0.2,0.5,0.5,0.7,0.8c1.8,2.5,4.6,4.6,7.5,4.2c0.3,0,0.7-0.1,0.9-0.3c0.5-0.4,1-1.7,0.4-1.8c-1-0.1-1.2,0-1.7-0.2"/>
	<path class="st35" d="M71.5,32.2c-0.2-0.9-1.1-1.5-2-1.9c-6.3-3-13-5-19.9-5.7c-0.7,0.6-0.5,1.7,0.1,2.4c0.6,0.7,1.4,1,2.3,1.3
		c2.6,0.9,5.2,1.8,7.8,2.7c0.3,0.1,0.5,0.2,0.7,0.4c0.5,0.7-0.4,1.5-1.2,1.9c-4,1.9-7.7,4.5-10.8,7.6c-2.5,1-5.7-0.1-8.5,0
		c-1.6,0-3.2,0.5-4.8,0.8c-1.8,0.4-3.6,0.7-5.3,1.3c-4.2,1.5-7.4,5.1-10.2,8.7C13.5,59.7,8.4,68.4,4.5,77.9c-0.1,0.3-0.3,0.8-0.1,1
		c0.1,0.2,0.4,0.3,0.6,0.4c1.4,0.5,2.1,1.4,3.5,1.9c3.4-6.1,8.2-12.1,12.9-17.3c2.2-2.3,4.5-4.6,7.4-5.8c0.7-0.3,1.5-0.5,2.1-0.2
		c0.6,0.3,0.9,0.8,1.2,1.4c2.3,4.1,1.1,10.6,1.5,15.7c3.5-0.8,7.1-1.3,10.7-1.4c1.9-0.1,3.9,0,5.8,0.2C50,73.6,50,73.3,50,73.2
		c0.5-4.8,1-9.6,1.5-14.5c0.2-1.9,0.4-3.9,1.3-5.6c0.6-1.2,1.6-2.2,2.6-3.1c4.9-5,9.9-10,14.8-15.1C70.9,34.2,71.8,33.2,71.5,32.2"
		/>
	<path class="st24" d="M35.1,29.5c0,4,1.5,8,4.3,11c0.5,0.6,1.2,1.2,2,1.4c1.4,0.3,2.8-0.7,3.8-1.8c1.2-1.2,2-2.6,2.8-4.2
		c0.8-1.5,0.8-3.4,0.1-5c-0.4-1-1.2-1.9-1.9-2.7c-1.4-1.4-3.1-2.6-5.1-2.6c-0.8,0-1.6,0.3-2.4,0.6c-1.2,0.5-2.3,1.3-3,2.4
		c-0.7,1.1-0.8,2.6,0,3.6"/>
	<path class="st40" d="M34.3,28.9c1.1-1.4,2.6-2.3,4.3-2.6c0.5-0.1,1.1-0.1,1.6,0.1c1.8,0.8,1.4,3.6,2.7,5.1c0.9,1,2.5,1.2,3.8,1
		c1.4-0.1,2.8-0.4,4.1,0c1,0.3,1.8,1.1,2.7,1.4c1,0.3,2.3,0.1,2.6-1c0.2-0.9-0.6-1.7-1.4-2.1c-0.9-0.3-1.8-0.3-2.7-0.5
		c-2-0.6-3.1-2.6-4.7-3.9c-2.5-1.9-5.9-2.1-9-1.9c-1.1,0.1-2.2,0.2-3.1,0.8c-0.9,0.6-1.6,1.7-1.2,2.7c0.2,0.7,0.7,1.2,1,1.8
		c0.2,0.6,0.2,1.3,0.1,2c-0.2,1.8-0.4,3.5-0.6,5.3c0,0.2,0,0.4-0.1,0.5c-0.3,0.5-1,0.4-1.4-0.1c-0.3-0.4-0.4-1-0.4-1.6
		c-0.1-1.3-0.1-2.6-0.2-3.9c0-0.5,0-1,0.1-1.4c0.6-1.5,2.9-1.7,3.2-3.2"/>
	<path class="st24" d="M45.6,34.1c0.7-0.4,1.6-0.2,2.4-0.1c0.8,0.1,1.7,0.1,2.3-0.6c0.1-0.1,0.2-0.3,0.2-0.4c0-0.2-0.1-0.3-0.2-0.4
		c-0.4-0.6-0.9-1.2-1.5-1.3c-0.6-0.1-1.1,0.3-1.5,0.7C46.5,32.6,46,33.3,45.6,34.1"/>
	<path class="st35" d="M25.4,82.2c0.3,0,0.7,0,1-0.1c1.5-0.1,3-0.4,4.5-1c1.4-0.5,2.9-1.1,4.3-1.7c2.8-1.1,5.8-2.2,8.9-2.2
		c1.6,0,3.1,0.2,4.7,0.3c1.2,0.1,2.4,0.3,3.6,0.3c0.4,0,0.8,0.1,1.3,0.1c-0.2-0.2-0.4-0.4-0.5-0.6c-1-1.4-1.6-3.1-2.3-4.4
		c-1.4-2.8-0.5-5.6,1.5-7.9c1.8-2.2,3.9-3.8,3.9-6.7c-0.1-3.3-3.6-5.6-2.8-8.8c-4.4-0.3-7.6,5.4-12,5c-1-0.1-2-0.5-3-0.8
		c-2.4-0.7-4.9-0.8-7.3-0.1c-0.9,0.2-1.8,0.7-2.2,1.5c-0.5,1,0.1,2.2,0.6,3.2c2,4.1,3.2,8.8,2.8,13.3c-0.4,4.6-2,7.4-5.7,10l0,0.1
		C26.2,82.1,25.9,82,25.4,82.2"/>
	<path class="st12" d="M33,76.3c-7.5,5.3-16.8,6.9-25.9,8.3c4.6,1,8.9,3.7,11.8,7.5c2,2.7,3.4,5.9,6.1,7.9c2.4,1.8,5.7,2.3,8.5,1.3
		c2.5-0.9,4.5-2.8,6.8-4.1c3.9-2.2,8.8-2.4,12.9-0.7c4.2,1.7,7.5,5.3,11.9,6.4c4.2,1.1,8.9-0.5,11.7-3.9c0.2-0.3,0.5-0.6,0.5-1
		c0.1-0.4-0.1-0.7-0.2-1.1c-1.1-3.4-2.3-6.8-4.3-9.7c-3.2-4.4-8.2-7.1-13-9.4c-3.8-1.8-7.8-3.4-11.9-4.1c-6.2-0.9-12.3-0.4-18.1,4.8
		"/>
	<path class="st13" d="M40.6,95.6c-0.6-2.6-1.3-5.2-2.4-7.7c-0.4-0.8-0.8-1.7-1.4-2.4c-0.2-0.2-0.4-0.4-0.7-0.4
		c-0.3-0.1-0.6,0-1,0.2c-1.2,0.6-2.3,1.5-3.3,2.4c-0.5,0.4-1,0.9-1.5,1.3c-0.3,0.3-0.7,0.6-1.1,0.8c-1.9,1.1-3.9,1.9-6,2.5
		c-1.2,0.3-2.4,0.6-3.6,0.7c1.6,2.4,2.9,5,5.2,6.7c2.4,1.7,5.6,2.2,8.3,1.3c2.5-0.8,4.4-2.7,6.7-3.9c0.3-0.2,0.6-0.3,0.9-0.4
		C40.7,96.3,40.7,95.9,40.6,95.6"/>
	<path class="st13" d="M65,91.7c-0.9-1.6-1.9-3.2-3.1-4.6c1.9,3.3,3.3,7,4.2,10.7c0.4,1.8,0.7,3.7,0.9,5.6c0.9,0.1,1.7,0,2.6-0.1
		C68.7,99.2,67.1,95.3,65,91.7"/>
	<path class="st41" d="M39.3,37.8c0.3,0,0.5-0.1,0.7-0.2c0.2-0.1,0.3-0.3,0.5-0.5c0.2-0.1,0.5-0.2,0.8-0.1c0.3,0.1,0.5,0.3,0.5,0.5
		c0,0.1,0.1,0.2,0.1,0.3c0,0.1,0,0.3-0.1,0.4c-0.1,0.3-0.4,0.5-0.8,0.6c-0.3,0.1-0.7,0.1-1.1,0c-0.3-0.1-0.8-0.2-0.9-0.5
		c-0.1-0.2-0.1-0.7,0.1-0.6c0.2,0,0.4,0,0.5,0"/>
</g>
<g id="Group" transform="translate(49.500000, 25.900752) scale(-1, 1) translate(-49.500000, -25.900752) translate(46.000000, 20.900752)">
	<path id="Eyes" class="st42" d="M-1.5,5.4c0,0.5,0,1.3-0.4,1.6c-0.5,0.5-1.2-1-0.9-1.9c0.1-0.4,0.4-0.5,0.6-0.5
		C-1.7,4.8-1.5,5.1-1.5,5.4z M3.9,5.9c0,0.5,0,1.3-0.4,1.6C3.1,8,2.3,6.5,2.7,5.6C2.8,5.3,3,5.2,3.3,5.2C3.6,5.2,3.9,5.5,3.9,5.9z"
		/>
	<path id="Mouth" class="st42" d="M1.5,12.7c0.2,0,0.7-0.2,0.9-0.5c0-0.1,0-0.2,0-0.2c-0.1-0.2-0.5-0.2-1-0.2
		c-0.9,0-1.7-0.2-1.7-0.2s0.2,0.7,0.3,0.9C0.2,13,1.2,12.7,1.5,12.7z"/>
	<path id="Nose" class="st42" d="M-0.8,9.6L-0.8,9.6c-0.1,0.4,0.1,0.8,0.4,0.9c0.1,0,0.1,0,0.1,0c0.3,0.1,0.5,0.1,1.3,0.2
		c0.2,0,0.3-0.1,0.3-0.3c0-0.2-0.1-0.3-0.2-0.4c-0.8-0.1-1-0.1-1.3-0.2c0,0-0.1,0-0.1,0c0,0,0,0,0-0.1l0.8-3.5l0,0l0.2-1.9
		C0.8,4.1,0.7,4,0.5,4S0.2,4.1,0.2,4.3L0,6.2L-0.8,9.6z"/>
</g>
<path id="Fill-27" class="st7" d="M231.7,143.7c0.1-1,0.8-2,0.8-3.1c0-2-0.9-2.8-1.7-4.6c-0.2-0.4-0.4-1-0.6-1.6
	c-0.7,0.2-1.5,0.3-2.3,0.3c-0.8,0-1.7,0-2.5-0.2c0,0.9,0,1.8,0,2.6c-0.1,4.1,0.5,5.2,0.4,9.3c0,2,0.4,4.9,2.2,5.7
	c1.4,0.7,1.7,0.1,2.6-1.1c0.9-1.3,1.5-1.4,1.4-2.9C232,146.6,231.6,145.3,231.7,143.7"/>
<g id="Group-3" transform="translate(201.000000, 17.500000)">
	<g id="Group-2" transform="translate(0.000000, 0.500000)">
		<path id="Path" class="st42" d="M-2.6,5.6c-0.2-0.1-0.2-0.3-0.1-0.4C-2.5,5-2.2,4.9-1.9,4.9C-1.1,5-0.4,5.5-1.2,5.7
			C-1.7,5.8-2.3,5.7-2.6,5.6z"/>
		<path class="st42" d="M0.9,6C0.7,5.9,0.6,5.7,0.8,5.6C1,5.5,1.3,5.3,1.6,5.4C2.4,5.4,3.1,6,2.3,6.1C1.8,6.2,1.2,6.1,0.9,6z"/>
		<path class="st42" d="M-1.6,6.8c0,0.3,0,0.9-0.2,1.1c-0.3,0.3-0.7-0.6-0.5-1.2C-2.2,6.4-2.1,6.3-2,6.3C-1.7,6.4-1.6,6.6-1.6,6.8z
			 M1.7,7.1c0,0.3,0,0.9-0.2,1.1C1.2,8.5,0.7,7.6,0.9,7C1,6.7,1.1,6.6,1.3,6.7C1.5,6.7,1.7,6.9,1.7,7.1z"/>
	</g>
</g>
<path id="Path-2" class="st43" d="M200.5,25.6c-0.5,0.9-0.8,1.6-0.8,2c0,0.4,0.3,0.6,1,0.6"/>
</svg>
