<?xml version="1.0" encoding="utf-8"?>
<!-- Generator: Adobe Illustrator 23.0.1, SVG Export Plug-In . SVG Version: 6.00 Build 0)  -->
<svg version="1.1" id="Layer_1" xmlns="http://www.w3.org/2000/svg" xmlns:xlink="http://www.w3.org/1999/xlink" x="0px" y="0px"
	 viewBox="0 0 40 40" style="enable-background:new 0 0 40 40;" xml:space="preserve">
<style type="text/css">
	.st0{fill-rule:evenodd;clip-rule:evenodd;fill:#FFC253;}
</style>
<title>Icons / ic_sun / normal</title>
<desc>Created with Sketch.</desc>
<g id="Symbols">
	<g id="ic_sun">
		<g>
			<path class="st0" d="M20,12c-4.4,0-8,3.6-8,8s3.6,8,8,8s8-3.6,8-8S24.4,12,20,12z M18.7,8V5.3C18.7,4.5,19.2,4,20,4
				s1.3,0.5,1.3,1.3V8c0,0.8-0.5,1.3-1.3,1.3S18.7,8.8,18.7,8z M21.3,32v2.7c0,0.8-0.5,1.3-1.3,1.3s-1.3-0.5-1.3-1.3V32
				c0-0.8,0.5-1.3,1.3-1.3S21.3,31.2,21.3,32z M8.7,10.5c-0.5-0.5-0.5-1.3,0-1.9c0.5-0.5,1.3-0.5,1.9,0l1.9,1.9
				c0.5,0.5,0.5,1.3,0,1.9c-0.1,0.3-0.5,0.4-0.9,0.4c-0.4,0-0.7-0.1-0.9-0.4L8.7,10.5z M31.3,29.5c0.5,0.5,0.5,1.3,0,1.9
				c-0.3,0.3-0.7,0.4-0.9,0.4s-0.7-0.1-0.9-0.4l-1.9-1.9c-0.5-0.5-0.5-1.3,0-1.9s1.3-0.5,1.9,0L31.3,29.5z M8,21.3H5.3
				C4.5,21.3,4,20.8,4,20s0.5-1.3,1.3-1.3H8c0.8,0,1.3,0.5,1.3,1.3S8.8,21.3,8,21.3z M36,20c0,0.8-0.5,1.3-1.3,1.3H32
				c-0.8,0-1.3-0.5-1.3-1.3s0.5-1.3,1.3-1.3h2.7C35.5,18.7,36,19.2,36,20z M12.4,27.6c0.5,0.5,0.5,1.3,0,1.9l-1.9,1.9
				c-0.3,0.3-0.7,0.4-0.9,0.4s-0.7-0.1-0.9-0.4c-0.5-0.5-0.5-1.3,0-1.9l1.9-1.9C11.1,27.1,12,27.1,12.4,27.6z M27.6,12.4
				c-0.5-0.5-0.5-1.3,0-1.9l1.9-1.9c0.5-0.5,1.3-0.5,1.9,0c0.5,0.5,0.5,1.3,0,1.9l-1.9,1.9c-0.3,0.3-0.7,0.4-0.9,0.4
				S27.7,12.7,27.6,12.4z"/>
		</g>
	</g>
</g>
</svg>
