<?xml version="1.0" encoding="utf-8"?>
<!-- Generator: Adobe Illustrator 23.0.1, SVG Export Plug-In . SVG Version: 6.00 Build 0)  -->
<svg version="1.1" id="Layer_1" xmlns="http://www.w3.org/2000/svg" xmlns:xlink="http://www.w3.org/1999/xlink" x="0px" y="0px"
	 viewBox="0 0 25 25" style="enable-background:new 0 0 25 25;" xml:space="preserve">
<style type="text/css">
	.st0{fill-rule:evenodd;clip-rule:evenodd;fill:#8E8E93;}
</style>
<title>Icons / Material / ic_clear</title>
<desc>Created with Sketch.</desc>
<g id="Symbols">
	<g id="input_texto_completo" transform="translate(-222.000000, -29.000000)">
		<g id="Group" transform="translate(0.000000, 8.000000)">
			<g transform="translate(221.000000, 17.000000)">
				<path id="ic_remove_red_eye" class="st0" d="M13.5,8.5c-5,0-9.3,3.1-11,7.5c1.7,4.4,6,7.5,11,7.5s9.3-3.1,11-7.5
					C22.8,11.6,18.5,8.5,13.5,8.5L13.5,8.5z M13.5,21c-2.8,0-5-2.2-5-5s2.2-5,5-5s5,2.2,5,5S16.3,21,13.5,21L13.5,21z M13.5,13
					c-1.7,0-3,1.3-3,3s1.3,3,3,3s3-1.3,3-3S15.2,13,13.5,13L13.5,13z"/>
			</g>
		</g>
	</g>
</g>
</svg>
