<?xml version="1.0" encoding="utf-8"?>
<!-- Generator: Adobe Illustrator 23.0.1, SVG Export Plug-In . SVG Version: 6.00 Build 0)  -->
<svg version="1.1" id="Layer_1" xmlns="http://www.w3.org/2000/svg" xmlns:xlink="http://www.w3.org/1999/xlink" x="0px" y="0px"
	 viewBox="0 0 25 25" style="enable-background:new 0 0 25 25;" xml:space="preserve">
<style type="text/css">
	.st0{fill-rule:evenodd;clip-rule:evenodd;fill:#5856D6;}
</style>
<title>Icons / Material / ic_clear</title>
<desc>Created with Sketch.</desc>
<g id="Symbols">
	<g id="ic_tab" transform="translate(-28.000000, -12.000000)">
		<g transform="translate(27.000000, 7.000000)">
			<path id="ic_people" class="st0" d="M17.5,17c1.7,0,3-1.3,3-3s-1.3-3-3-3s-3,1.3-3,3S15.8,17,17.5,17L17.5,17z M9.5,17
				c1.7,0,3-1.3,3-3s-1.3-3-3-3s-3,1.3-3,3S7.8,17,9.5,17L9.5,17z M9.5,19c-2.3,0-7,1.2-7,3.5V25h14v-2.5C16.5,20.2,11.8,19,9.5,19
				L9.5,19z M17.5,19c-0.3,0-0.6,0-1,0.1c1.2,0.8,2,2,2,3.4V25h6v-2.5C24.5,20.2,19.8,19,17.5,19L17.5,19z"/>
		</g>
	</g>
</g>
</svg>
