<?xml version="1.0" encoding="utf-8"?>
<!-- Generator: Adobe Illustrator 23.0.1, SVG Export Plug-In . SVG Version: 6.00 Build 0)  -->
<svg version="1.1" id="Layer_1" xmlns="http://www.w3.org/2000/svg" xmlns:xlink="http://www.w3.org/1999/xlink" x="0px" y="0px"
	 viewBox="0 0 241 42" style="enable-background:new 0 0 241 42;" xml:space="preserve">
<style type="text/css">
	.st0{fill-rule:evenodd;clip-rule:evenodd;fill:#4A00BD;}
</style>
<title>Group 2</title>
<desc>Created with Sketch.</desc>
<g id="cine_v2">
	<g id="login_1" transform="translate(-40.000000, -95.000000)">
		<g id="Group-3" transform="translate(40.000000, 95.854700)">
			<g id="Group-2">
				<path id="Fill-8" class="st0" d="M87.3,8.5c1.3,0,2.2-0.4,2.8-1.2c0.6-0.8,0.9-1.8,0.9-3.1c0-1.3-0.3-2.3-0.9-3.1
					C89.5,0.4,88.6,0,87.3,0c-1.3,0-2.3,0.4-3.2,1.2C83.3,2,82.9,3,82.9,4.3s0.4,2.3,1.3,3.1C85,8.1,86.1,8.5,87.3,8.5"/>
				<g id="Group" transform="translate(0.000000, 1.145300)">
					<polygon id="Fill-1" class="st0" points="23.9,0 17.1,19.3 10.2,0 0,0 0,31 7.9,31 7.9,12.6 14.4,31 19.7,31 26.1,12.6 
						26.1,31 34,31 34,0 					"/>
					<path id="Fill-2" class="st0" d="M50.3,24.5c-0.7,0.9-1.6,1.4-2.8,1.4s-2.1-0.5-2.8-1.5c-0.7-1-1-2.3-1-3.8
						c0-1.6,0.3-2.8,1-3.8s1.6-1.5,2.8-1.5s2.1,0.5,2.8,1.5c0.7,1,1,2.2,1,3.8C51.4,22.3,51,23.6,50.3,24.5 M47.5,8.8
						c-3.5,0-6.3,1.1-8.5,3.3c-2.2,2.2-3.2,5.1-3.2,8.5s1.1,6.3,3.2,8.5c2.2,2.2,5,3.3,8.5,3.3c3.5,0,6.3-1.1,8.4-3.3
						c2.2-2.2,3.2-5,3.2-8.5s-1.1-6.3-3.2-8.5C53.8,9.9,51,8.8,47.5,8.8"/>
					<polygon id="Fill-4" class="st0" points="70.4,22.3 66,9.3 57.9,9.3 66.6,32 73.7,32 82.5,9.3 74.7,9.3 					"/>
					<polygon id="Fill-6" class="st0" points="83.3,32 91.3,32 91.3,9.3 83.3,9.3 					"/>
					<path id="Fill-9" class="st0" d="M100.2,18.2c0.5-2.2,1.7-3.3,3.7-3.3c0.9,0,1.7,0.3,2.3,0.9c0.6,0.6,0.9,1.4,1,2.4H100.2z
						 M104,8.8c-3.4,0-6.2,1.1-8.3,3.3s-3.2,5-3.2,8.6c0,3.5,1.1,6.4,3.2,8.5c2.1,2.2,4.8,3.3,8,3.3c3.2,0,5.7-0.7,7.6-2.2
						c1.9-1.5,3-3.5,3.5-6.2h-7.4c-0.4,1.5-1.6,2.2-3.3,2.3c-2.4,0-3.7-1.4-4-4.2h14.8v-2c0-3.4-1-6.2-2.9-8.3
						C110,9.8,107.4,8.8,104,8.8z"/>
					<path id="Fill-10" class="st0" d="M136.5,21.6h4.8c-0.8,2.5-2.8,3.8-5.9,3.8c-2.2,0-3.9-0.8-5.3-2.4c-1.3-1.6-2-3.7-2-6.4
						c0-2.7,0.6-4.8,1.9-6.5c1.3-1.6,3-2.5,5.2-2.5c2.7,0,4.6,1.2,5.5,3.8h8.3c-0.6-3.3-2.1-5.9-4.5-7.9c-2.4-2-5.5-3-9.3-3
						c-4.5,0-8.1,1.5-11,4.5s-4.3,6.8-4.3,11.5s1.4,8.6,4.3,11.5c2.9,3,6.5,4.4,10.8,4.4c4.3,0,7.8-1.3,10.4-3.8
						c2.6-2.5,3.9-5.9,3.9-10.2v-3.1h-12.9V21.6z"/>
					<path id="Fill-11" class="st0" d="M159.1,11.2v-2h-8V32h8V18.5c0.4-1.7,1.8-2.6,4-2.6c1.3,0,2.4,0.2,3.3,0.7V9.2
						c-0.5-0.3-1.2-0.4-2.2-0.4C162,8.8,160.3,9.6,159.1,11.2"/>
					<path id="Fill-12" class="st0" d="M181.4,24.5c-0.7,0.9-1.6,1.4-2.8,1.4s-2.1-0.5-2.8-1.5c-0.7-1-1-2.3-1-3.8
						c0-1.6,0.3-2.8,1-3.8c0.7-1,1.6-1.5,2.8-1.5s2.1,0.5,2.8,1.5c0.7,1,1,2.2,1,3.8C182.4,22.3,182.1,23.6,181.4,24.5 M178.6,8.8
						c-3.5,0-6.3,1.1-8.5,3.3c-2.2,2.2-3.2,5.1-3.2,8.5s1.1,6.3,3.2,8.5c2.2,2.2,5,3.3,8.5,3.3c3.5,0,6.3-1.1,8.4-3.3
						c2.2-2.2,3.2-5,3.2-8.5s-1.1-6.3-3.2-8.5C184.9,9.9,182,8.8,178.6,8.8"/>
					<path id="Fill-13" class="st0" d="M205.7,23c-0.2,0.8-0.6,1.4-1.2,1.8c-0.6,0.5-1.3,0.7-2,0.7c-2,0-3-1.1-3-3.3v-13h-7.9v14.9
						c0,2.5,0.7,4.6,2.1,6.1c1.4,1.5,3.4,2.2,6,2.2c2.6,0,4.6-0.8,6-2.5v2h8V9.3h-8V23z"/>
					<path id="Fill-14" class="st0" d="M231.1,24.3c-0.8,0.9-1.9,1.4-3.4,1.4c-1.5,0-2.6-0.7-3.3-2.1v-5.9c0.7-1.4,1.8-2.1,3.3-2.1
						c1.5,0,2.6,0.5,3.4,1.4c0.8,0.9,1.2,2.1,1.2,3.6C232.3,22.1,231.9,23.3,231.1,24.3 M237.5,12.2c-1.8-2.2-4.3-3.4-7.5-3.4
						c-1.1,0-2.2,0.2-3.2,0.7c-1,0.5-1.8,1-2.4,1.6V9.3h-8V40h8v-9.9c0.6,0.6,1.4,1.2,2.4,1.6c1,0.5,2.1,0.7,3.2,0.7
						c3.2,0,5.7-1.1,7.5-3.4c1.8-2.3,2.7-5.1,2.7-8.5C240.3,17.2,239.4,14.4,237.5,12.2"/>
				</g>
			</g>
		</g>
	</g>
</g>
</svg>
