<?xml version="1.0" encoding="UTF-8"?>
<svg width="241px" height="42px" viewBox="0 0 241 42" version="1.1" xmlns="http://www.w3.org/2000/svg" xmlns:xlink="http://www.w3.org/1999/xlink">
    <!-- Generator: Sketch 52.6 (67491) - http://www.bohemiancoding.com/sketch -->
    <title>Group 2</title>
    <desc>Created with Sketch.</desc>
    <g id="cine_v2" stroke="none" stroke-width="1" fill="none" fill-rule="evenodd">
        <g id="login_1" transform="translate(-40.000000, -95.000000)" fill="#5856D6">
            <g id="Group-3" transform="translate(40.000000, 95.854700)">
                <g id="Group-2">
                    <path d="M87.3341719,8.5134 C88.5899088,8.5134 89.5243123,8.1186 90.1331544,7.3332 C90.7462246,6.5436 91.0506456,5.5272 91.0506456,4.2798 C91.0506456,3.003 90.7462246,1.9656 90.1331544,1.1802 C89.5243123,0.3906 88.5899088,-9.76996262e-14 87.3341719,-9.76996262e-14 C86.0826632,-9.76996262e-14 85.0256456,0.399 84.1631193,1.2054 C83.3048211,2.0076 82.877786,3.0324 82.877786,4.2798 C82.877786,5.5272 83.3048211,6.5436 84.1631193,7.3332 C85.0256456,8.1186 86.0826632,8.5134 87.3341719,8.5134" id="Fill-8"></path>
                    <g id="Group" transform="translate(0.000000, 1.145300)">
                        <polygon id="Fill-1" points="23.8957866 0 17.0762902 19.2834646 10.2271254 0 0 0 0 31 7.87484418 31 7.87484418 12.554032 14.3976564 31 19.6786338 31 26.1251558 12.554032 26.1251558 31 34 31 34 0"></polygon>
                        <path d="M50.3444772,24.5041 C49.667986,25.4533 48.7251263,25.9237 47.5201263,25.9237 C46.3151263,25.9237 45.3722667,25.4365 44.6957754,24.4537 C44.0192842,23.4751 43.6810386,22.1983 43.6810386,20.6317 C43.6810386,19.0651 44.0192842,17.7883 44.6957754,16.8097 C45.3722667,15.8311 46.3151263,15.3397 47.5201263,15.3397 C48.7251263,15.3397 49.667986,15.8311 50.3444772,16.8097 C51.0209684,17.7715 51.359214,19.0567 51.359214,20.6569 C51.359214,22.2739 51.0209684,23.5549 50.3444772,24.5041 M47.5243544,8.7961 C44.0531088,8.7961 41.237214,9.9007 39.0724421,12.1183 C36.9076702,14.3317 35.8252842,17.1793 35.8252842,20.6569 C35.8252842,24.1345 36.9076702,26.9737 39.0724421,29.1703 C41.237214,31.3711 44.0531088,32.4673 47.5243544,32.4673 C50.9956,32.4673 53.8114947,31.3711 55.9720386,29.1703 C58.1325825,26.9737 59.2149684,24.1345 59.2149684,20.6569 C59.2149684,17.1793 58.1325825,14.3317 55.9720386,12.1183 C53.8114947,9.9007 50.9956,8.7961 47.5243544,8.7961" id="Fill-2"></path>
                        <polygon id="Fill-4" points="70.4011737 22.30582 66.0420333 9.28582 57.9156825 9.28582 66.6128228 31.97842 73.7455772 31.97842 82.4892263 9.28582 74.6630684 9.28582"></polygon>
                        <polygon id="Fill-6" points="83.3225789 31.978 91.2967193 31.978 91.2967193 9.2896 83.3225789 9.2896"></polygon>
                        <path d="M100.195961,18.2209 C100.707558,16.0369 101.92947,14.9491 103.861698,14.9491 C104.804558,14.9491 105.565611,15.2515 106.140628,15.8605 C106.719874,16.4653 107.041207,17.2549 107.108856,18.2209 L100.195961,18.2209 Z M103.963172,8.7961 C100.576488,8.7961 97.8028737,9.8965 95.6381018,12.0931 C93.4733298,14.2897 92.3909439,17.1415 92.3909439,20.6443 C92.3909439,24.1513 93.4564175,26.9947 95.5873649,29.1829 C97.7352246,31.3753 100.411593,32.4715 103.61647,32.4715 C106.817119,32.4715 109.362418,31.7239 111.243909,30.2287 C113.129628,28.7377 114.283891,26.6797 114.715154,24.0547 L107.354084,24.0547 C106.910137,25.5457 105.793926,26.3017 104.009681,26.3185 C101.633505,26.3185 100.310119,24.9325 100.047979,22.1563 L114.8124,22.1563 L114.8124,20.1907 C114.8124,16.7593 113.852628,14.0041 111.937312,11.9209 C110.021996,9.8377 107.36254,8.7961 103.963172,8.7961 Z" id="Fill-9"></path>
                        <path d="M136.46477,21.59224 L141.272086,21.59224 C140.426472,24.10384 138.473104,25.35544 135.399296,25.35544 C133.204928,25.34284 131.450279,24.53644 130.148033,22.94884 C128.84156,21.36124 128.190437,19.23184 128.190437,16.56484 C128.190437,13.89364 128.824647,11.73904 130.097296,10.10104 C131.369946,8.45884 133.103454,7.63984 135.302051,7.63984 C138.04184,7.62304 139.868367,8.87884 140.777402,11.40304 L149.098244,11.40304 C148.472489,8.12284 146.975753,5.48944 144.616489,3.50284 C142.252998,1.52044 139.149595,0.52504 135.302051,0.52504 C130.824525,0.52504 127.158788,2.01184 124.300612,4.98124 C121.442437,7.95064 120.013349,11.79364 120.013349,16.51444 C120.013349,21.23524 121.442437,25.07404 124.300612,28.03084 C127.1757,30.98764 130.773788,32.47024 135.103332,32.47024 C139.428647,32.47024 142.891437,31.20604 145.483244,28.67764 C148.058139,26.13664 149.3477,22.74724 149.3477,18.51784 L149.3477,15.43924 L136.46477,15.43924 L136.46477,21.59224 Z" id="Fill-10"></path>
                        <path d="M159.070993,11.24806 L159.070993,9.28666 L151.092625,9.28666 L151.092625,31.97926 L159.070993,31.97926 L159.070993,18.50146 C159.502256,16.77106 160.846782,15.90586 163.1088,15.90586 C164.415274,15.90586 165.5188,16.14946 166.427835,16.62826 L166.427835,9.18166 C165.950063,8.92126 165.214379,8.79526 164.225011,8.79526 C162.043326,8.79526 160.32673,9.61006 159.070993,11.24806" id="Fill-11"></path>
                        <path d="M181.383788,24.5041 C180.707296,25.4533 179.764437,25.9237 178.559437,25.9237 C177.354437,25.9237 176.411577,25.4365 175.735086,24.4537 C175.058595,23.4751 174.720349,22.1983 174.720349,20.6317 C174.720349,19.0651 175.058595,17.7883 175.735086,16.8097 C176.411577,15.8311 177.354437,15.3397 178.559437,15.3397 C179.764437,15.3397 180.707296,15.8311 181.383788,16.8097 C182.060279,17.7715 182.398525,19.0567 182.398525,20.6569 C182.398525,22.2739 182.060279,23.5549 181.383788,24.5041 M178.563665,8.7961 C175.092419,8.7961 172.276525,9.9007 170.111753,12.1183 C167.946981,14.3317 166.864595,17.1793 166.864595,20.6569 C166.864595,24.1345 167.946981,26.9737 170.111753,29.1703 C172.276525,31.3711 175.092419,32.4673 178.563665,32.4673 C182.034911,32.4673 184.850805,31.3711 187.011349,29.1703 C189.171893,26.9737 190.254279,24.1345 190.254279,20.6569 C190.254279,17.1793 189.171893,14.3317 187.011349,12.1183 C184.850805,9.9007 182.034911,8.7961 178.563665,8.7961" id="Fill-12"></path>
                        <path d="M205.723942,23.0278 C205.525223,23.7796 205.1151,24.3844 204.506258,24.8464 C203.88896,25.3 203.212468,25.531 202.4641,25.531 C200.493819,25.531 199.504451,24.4432 199.504451,22.2634 L199.504451,9.2896 L191.652925,9.2896 L191.652925,24.1744 C191.652925,26.7196 192.359012,28.7356 193.771188,30.2308 C195.183363,31.7218 197.174784,32.4694 199.749679,32.4694 C202.320346,32.4694 204.315995,31.6462 205.723942,29.9914 L205.723942,31.978 L213.702311,31.978 L213.702311,9.2896 L205.723942,9.2896 L205.723942,23.0278 Z" id="Fill-13"></path>
                        <path d="M231.102933,24.27058 C230.324968,25.21138 229.187618,25.67758 227.682425,25.67758 C226.18146,25.67758 225.090618,24.98038 224.414126,23.59018 L224.414126,17.67658 C225.124442,16.28638 226.22374,15.58918 227.707793,15.58918 C229.196074,15.58918 230.324968,16.06378 231.102933,17.01718 C231.880898,17.94118 232.265653,19.14238 232.265653,20.63338 C232.265653,22.12018 231.880898,23.32978 231.102933,24.27058 M237.542284,12.16618 C235.728442,9.91918 233.225425,8.79358 230.03746,8.79358 C228.912793,8.79358 227.843091,9.02878 226.81567,9.49078 C225.792477,9.96118 224.993372,10.50718 224.414126,11.13718 L224.414126,9.28918 L216.439986,9.28918 L216.439986,39.99958 L224.414126,39.99958 L224.414126,30.13798 C224.993372,30.76798 225.792477,31.31398 226.81567,31.77598 C227.843091,32.23798 228.912793,32.46898 230.03746,32.46898 C233.208512,32.46898 235.703074,31.33918 237.521144,29.07538 C239.334986,26.80738 240.244021,23.98918 240.244021,20.60818 C240.260933,17.22718 239.360354,14.41318 237.542284,12.16618" id="Fill-14"></path>
                    </g>
                </g>
            </g>
        </g>
    </g>
</svg>