<?xml version="1.0" encoding="utf-8"?>
<!-- Generator: Adobe Illustrator 23.0.1, SVG Export Plug-In . SVG Version: 6.00 Build 0)  -->
<svg version="1.1" id="Layer_1" xmlns="http://www.w3.org/2000/svg" xmlns:xlink="http://www.w3.org/1999/xlink" x="0px" y="0px"
	 viewBox="0 0 25 25" style="enable-background:new 0 0 25 25;" xml:space="preserve">
<style type="text/css">
	.st0{fill:#5856D6;}
</style>
<title>Shape</title>
<desc>Created with Sketch.</desc>
<g id="Symbols">
	<g transform="translate(-2.000000, -3.000000)">
		<g id="movie-open" transform="translate(2.500000, 3.000000)">
			<path id="Shape" class="st0" d="M20.4,3.4L16.8,4l2.5,3l1.8-0.3L20.4,3.4 M14,4.5l-1.8,0.3l2.6,3l1.8-0.3L14,4.5 M9.5,5.3
				L7.6,5.7l2.6,3L12,8.4L9.5,5.3 M4.9,6.2L4,6.4c-1,0.2-1.7,1.1-1.5,2l0.4,1.7l4.6-0.8L4.9,6.2 M2.9,10.1v8.6c0,1,0.8,1.7,1.9,1.7
				h14.9c1,0,1.9-0.8,1.9-1.7v-8.6H2.9z"/>
		</g>
	</g>
</g>
</svg>
