<?xml version="1.0" encoding="utf-8"?>
<!-- Generator: Adobe Illustrator 23.0.1, SVG Export Plug-In . SVG Version: 6.00 Build 0)  -->
<svg version="1.1" id="Layer_1" xmlns="http://www.w3.org/2000/svg" xmlns:xlink="http://www.w3.org/1999/xlink" x="0px" y="0px"
	 viewBox="0 0 25 25" style="enable-background:new 0 0 25 25;" xml:space="preserve">
<style type="text/css">
	.st0{fill-rule:evenodd;clip-rule:evenodd;fill:#8E8E93;}
</style>
<title>Icons / Material / ic_cancel Copy 2</title>
<desc>Created with Sketch.</desc>
<g id="Symbols">
	<g transform="translate(-8.000000, -7.000000)">
		<g id="Group-3">
			<g transform="translate(5.000000, 4.000000)">
				<path id="ic_search" class="st0" d="M19,18h-0.8l-0.3-0.3c1-1.1,1.6-2.6,1.6-4.2C19.5,9.9,16.6,7,13,7s-6.5,2.9-6.5,6.5
					S9.4,20,13,20c1.6,0,3.1-0.6,4.2-1.6l0.3,0.3v0.8l5,5L24,23L19,18L19,18z M13,18c-2.5,0-4.5-2-4.5-4.5S10.5,9,13,9
					s4.5,2,4.5,4.5S15.5,18,13,18L13,18z"/>
			</g>
		</g>
	</g>
</g>
</svg>
