<?xml version="1.0" encoding="utf-8"?>
<!-- Generator: Adobe Illustrator 23.0.1, SVG Export Plug-In . SVG Version: 6.00 Build 0)  -->
<svg version="1.1" id="Layer_1" xmlns="http://www.w3.org/2000/svg" xmlns:xlink="http://www.w3.org/1999/xlink" x="0px" y="0px"
	 viewBox="0 0 220 170" style="enable-background:new 0 0 220 170;" xml:space="preserve">
<style type="text/css">
	.st0{fill:#E1E5F0;}
	.st1{fill:#F2F6FB;}
	.st2{fill:#D8DEED;}
	.st3{fill:#DE3190;}
	.st4{fill:#474961;}
	.st5{fill:#3ABF7C;}
	.st6{opacity:0.177;fill:#444444;enable-background:new    ;}
	.st7{fill:#482D1F;}
	.st8{fill:#F2A98A;}
	.st9{opacity:0.2;fill:#8C2A00;enable-background:new    ;}
</style>
<title>Group 4</title>
<desc>Created with Sketch.</desc>
<g id="cine_v2">
	<g id="votacion-enviada" transform="translate(-54.000000, -106.000000)">
		<g id="Group-4" transform="translate(54.000000, 106.000000)">
			<g id="Group">
				<path id="Shadow" class="st0" d="M117.7,43.4c4.3-8.1,12.8-14.7,28.5-16.1c19.2-1.7,26.6,6.2,29.9,17.1c2.3-0.5,4.8-0.8,7.6-1
					c31.2-2,34.4,18.1,31.2,28.5c-2.6,8.6-21.5,9.1-35.2,9c-2.6,10.1-14,9.2-25,9.2c-11.6,0-31.6-3.4-38.4-13.1
					c-13.2,0.2-27.5-1.6-31.6-5.3c-7.4-6.7-6.6-26.3,24.7-28.3C112.5,43.1,115.2,43.2,117.7,43.4z"/>
				<path id="Clouds" class="st1" d="M55.8,62.1c6.2-11,17.9-19.9,39.3-21.8c26.3-2.4,36.7,8.4,41.4,23.3c3.5-0.8,7.4-1.3,11.8-1.6
					c43.3-2.8,47.7,25.4,43.3,39.9c-3.7,12.2-30.6,12.8-49.6,12.7c-3.3,14.8-19.5,13.5-34.9,13.5c-16.3,0-44.5-4.9-53.7-18.7
					c-18.4,0.4-38.4-2.3-44-7.4c-10.3-9.5-9.1-37.2,34.2-39.9C48,61.6,52.1,61.7,55.8,62.1z M26.1,11.7c2.6-4.8,7.7-8.7,17.1-9.6
					c11.5-1,16,3.7,18,10.2c1.5-0.3,3.1-0.5,4.9-0.7c18.7-1.2,20.6,10.9,18.7,17.1c-1.6,5.2-13.2,5.5-21.4,5.4
					c-1.5,6.2-8.4,5.7-15.1,5.7c-7,0-19-2.1-23.1-7.8c-8,0.1-16.5-1-19-3.2c-4.4-4.1-3.9-16,14.8-17.2
					C22.9,11.5,24.6,11.6,26.1,11.7z"/>
			</g>
			<g id="Woman-on-bike-2" transform="translate(16.000000, 20.000000)">
				<g>
					<g id="Bike" transform="translate(14.887218, 55.636979)">
						<path id="Combined-Shape" class="st2" d="M80.3,68.6c-0.5,0-0.8-0.4-0.8-0.9c0-0.5,0.4-0.8,0.9-0.8l15.8,0.5
							c0.5,0,0.8,0.4,0.8,0.9c0,0.5-0.4,0.8-0.9,0.8L80.3,68.6z M56.7,54.6c-0.3-0.4-0.3-0.9,0.1-1.2c0.4-0.3,0.9-0.3,1.2,0.1
							l9.6,11.3c0.3,0.4,0.3,0.9-0.1,1.2c-0.4,0.3-0.9,0.3-1.2-0.1L56.7,54.6z M46.7,30.2l-5.4,12.6c9.1,4.1,15.5,13.3,15.5,24
							c0,14.6-11.8,26.4-26.4,26.4S4,81.4,4,66.8s11.8-26.4,26.4-26.4c3.3,0,6.4,0.6,9.3,1.7l9.5-22.2c0.2-0.4,0.7-0.6,1.1-0.4
							s0.6,0.7,0.4,1.1l-3.2,7.5h60.1l-6.1-12.3c-0.3,0-0.6,0-0.9,0c-0.5,0-0.8-0.4-0.8-0.8c0-0.5,0.4-0.8,0.8-0.8c0,0,0,0,0.1,0
							L98.8,10c-0.2-0.4,0-0.9,0.4-1.1c0.4-0.2,0.9,0,1.1,0.4l2.3,4.7c2.7-0.6,4.7-2.7,4.7-5c0-2.8-2.9-5.2-6.5-5.2H85.1
							c-0.5,0-0.8-0.4-0.8-0.8S84.6,2,85.1,2h15.7c4.5,0,8.2,3.1,8.2,6.9c0,3.1-2.4,5.6-5.6,6.6l13.5,27.3c3.3-1.5,7-2.4,10.9-2.4
							c14.6,0,26.4,11.8,26.4,26.4s-11.8,26.4-26.4,26.4s-26.4-11.8-26.4-26.4c0-10.1,5.7-18.8,14-23.3l-6.6-13.3l-31,34.4
							c-0.3,0.4-0.9,0.4-1.3,0L46.7,30.2z M117.7,44.3l10.9,22.1c0.2,0.4,0,0.9-0.4,1.1c-0.4,0.2-0.9,0-1.1-0.4l-10.9-22.1
							c-7.8,4.2-13,12.3-13,21.8c0,13.6,11.1,24.7,24.7,24.7s24.7-11.1,24.7-24.7s-11.1-24.7-24.7-24.7
							C124.2,42.1,120.8,42.9,117.7,44.3z M48.5,29.8l28.7,33.1L107,29.8H48.5z M40.6,44.4l-9.4,22c-0.2,0.4-0.7,0.6-1.1,0.4
							c-0.4-0.2-0.6-0.7-0.4-1.1l9.4-22c-2.7-1-5.6-1.6-8.7-1.6c-13.6,0-24.7,11.1-24.7,24.7s11.1,24.7,24.7,24.7
							s24.7-11.1,24.7-24.7C55.1,56.8,49.2,48.2,40.6,44.4z"/>
						<path class="st0" d="M127.8,72c-2.8,0-5.2-2.3-5.2-5.1s2.3-5.1,5.2-5.1c2.8,0,5.2,2.3,5.2,5.1S130.6,72,127.8,72z M30.4,72.1
							c-2.9,0-5.2-2.3-5.2-5.2c0-2.9,2.3-5.2,5.2-5.2s5.2,2.3,5.2,5.2C35.6,69.7,33.3,72.1,30.4,72.1z M76.4,72.7
							c-4.8,0-8.6-3.9-8.6-8.6s3.9-8.6,8.6-8.6S85,59.3,85,64S81.2,72.7,76.4,72.7z M46.4,18.5h14.4c2,0,3.6,1.6,3.6,3.6
							s-1.6,3.6-3.6,3.6H46.4c-2,0-3.6-1.6-3.6-3.6S44.4,18.5,46.4,18.5z"/>
					</g>
					<g id="Legs" transform="translate(55.657895, 53.945885)">
						<path id="Base" class="st3" d="M43.8,68.7c0.2-0.5,0.3-1,0.4-1.5l13.2,0.4c0.4,0,0.6,0.3,0.6,0.7l0,0.1c0,0.4-0.3,0.7-0.7,0.7
							L43.8,68.7z M27.6,67.4L13.8,51.4c-0.3-0.3-0.2-0.7,0.1-1l0.1-0.1c0.2-0.2,0.4-0.2,0.7-0.1c0.1,0,0.2,0.1,0.3,0.2L28.5,66
							l9.1,2c0.4,0.1,0.6,0.5,0.6,0.8l0,0.1c-0.1,0.4-0.5,0.6-0.8,0.5L27.6,67.4z"/>
						<path id="Shoes" class="st4" d="M57.6,67.6c-0.1-0.1-0.2-0.1-0.3-0.1l-13.2-0.4c0,0.2-0.1,0.5-0.1,0.7l0,0
							c0.2-0.7,0.3-1.4,0.3-2.2c0-2-0.7-3.9-1.9-5.3l2.2-2.4c0.7,0.7,6.5,4.1,9.5,5.6c0.8,0.4,1.6,0.8,2.3,1.3c0.4,0.3,1,1,1.2,1.9
							c0,0.1,0,0.3,0,0.4C57.7,67.3,57.6,67.5,57.6,67.6z M14.6,50.2l7.8-7.2l8.5,9.6l0.1,1l0.3,2.7c0,1,0,1.9,0.1,2.9
							c0.1,0.4,0.1,0.8,0.2,1.2c0.1,0.3,0.1,0.6,0.2,0.8c0.8,0.5,1.8,1.1,3.2,2.2c0.7,0.5,1.4,1.1,2,1.8c0.3,0.4,0.8,1.2,0.8,2
							c0,0.1,0,0.3,0,0.4c0,0.1-0.1,0.3-0.1,0.4c-0.1,0-0.1-0.1-0.2-0.1l-9.1-2L15,50.4C14.9,50.3,14.8,50.3,14.6,50.2z M39.8,58.2
							l2.4-0.1l-1,1.1c-0.2-0.2-0.5-0.4-0.7-0.5C40.4,58.5,40.1,58.3,39.8,58.2z"/>
						<path class="st5" d="M47.7,31.4H52c0,0.6-0.1,1.3-0.1,2c-0.2,2.8,0.8,7.5,1.8,11.9L42.2,58.1l-2.5,0.1c-1.2-0.7-2.6-1-4.1-1
							c-0.9,0-1.8,0.1-2.6,0.4c-0.2-0.3-0.3-0.7-0.3-1.1l0.2-3.1c-0.4-0.1-0.9-0.3-1.3-0.5c-4.9-2-8.5-3.8-10.8-5.4
							c-1.7-1.1-4-3.3-7.1-6.6c-0.9-1.2-1.2-2.2-0.8-2.8l18.6-14.4c-5.9,0.2-10.6,0.2-14,0.1c-7-0.3-11-2.4-12.9-7.5
							c-1-2.6-0.3-5.1-0.1-6.2C6,2.6,14.4,2.1,15.9,2c1,0,5.6,0.3,13.8,1C43,4.1,50.2,4.9,51.4,5.4c0.6,0.2,1.3,0.6,1.4,0.7
							c6.4,3.6,3.1,10.4,2.8,10.9l-0.1,0c-0.7,1.9-1.7,4-2.7,5.8c-0.3,2.4-0.6,4.6-0.7,6.9h-3.4C48.4,30.3,48.1,30.8,47.7,31.4z
							 M54.2,47.3c1,4.1,2,7.7,1.9,8.6c-0.1,1-0.9,1.7-1.9,1.7l-1,0L44.6,58L54.2,47.3z"/>
						<path id="Shadow-Leg" class="st6" d="M47.8,31.4H52c0,0.6-0.1,1.3-0.1,2c-0.2,2.8,0.8,7.5,1.8,11.9L42.3,58l-2.5,0.1
							c-1.2-0.7-2.6-1-4.1-1c-0.9,0-1.8,0.1-2.6,0.4c-0.2-0.3-0.3-0.7-0.3-1.1l0.1-3.1c0.5,0.1,0.9-0.1,1.2-0.5
							c1.1-1.8,2.1-2.7,3.9-5.4C41.3,42.3,44.8,36.3,47.8,31.4z M52.9,22.8c-0.3,2.4-0.6,4.6-0.7,6.9h-3.4c0.6-1,1.2-1.9,1.7-2.8
							C50.8,26.4,51.8,24.8,52.9,22.8z M54.2,47.3c1,4.1,2,7.7,1.9,8.6c-0.1,1-0.9,1.7-1.9,1.7l-1,0l-8.6,0.3L54.2,47.3z"/>
						<path class="st7" d="M32,23.8l3.6-4.5c0.1-0.1,0.1-0.4-0.1-0.5c-0.1-0.1-0.4-0.1-0.5,0.1l-3.6,4.5c-0.1,0.1-0.1,0.4,0.1,0.5
							C31.7,23.9,31.9,23.9,32,23.8z"/>
					</g>
					
						<g id="Body" transform="translate(83.944103, 35.055275) rotate(5.000000) translate(-83.944103, -35.055275) translate(59.244855, 9.942535)">
						<path id="T-shirt" class="st3" d="M34.3,26.6c2.3,2.5,1.2,5.6,0.4,7.2c0.2,0,0.4,0.2,0.4,0.4l0,0.2c0.1,0.3-0.1,0.5-0.3,0.6
							l-1.5,0.4l-0.5,3.2l0,0.2l-1.2,8.3l-0.2,1.6c0,0.1-0.1,0.1-0.1,0.2c0,0.2-20.1,2.8-20.3,2.4c0,0,0,0,0,0
							c-0.1-0.1-0.1-0.3-0.2-0.4c-0.8-1.6-1.1-3.4-0.9-5.2l1.5-10.9l-4.5-1.5c-0.4-0.2-0.7-0.6-0.5-1.1c0,0,0,0,0,0
							c0.2-0.4,0.6-0.7,1.1-0.5l0,0c-0.5-1.9-1.1-5.5,2.4-7.4c1.3-2.1,2.6-3.8,4.7-4.9c1.9-1,3.9-1.1,5.5-0.9c0.8-0.1,1.7-0.1,2.6,0
							l3.9,0.6C30.8,19.5,33.8,22.7,34.3,26.6z"/>
						<path id="Shadow-T-shirt" class="st6" d="M34.2,26.5c1.1,1.1,1.4,2.4,1.4,3.6c0,1.5-0.6,2.9-1,3.7c0.2,0,0.4,0.1,0.5,0.3
							l0.1,0.3c0.1,0.3-0.1,0.5-0.4,0.6c-0.6,0.1-1.1,0.3-1.5,0.3l0.9-6.1l0-0.3C34.3,28.1,34.3,27.3,34.2,26.5z"/>
						<path id="Skin" class="st8" d="M26.7,16.2l-0.3,1.5c0,0.1,0,0.2-0.1,0.2c-0.4,1.3-1.8,2.1-3.1,1.8c-1.2-0.3-2-1.6-1.8-2.8
							l0.4-2.3l0.3-1.5l0.2-1.5c-0.1-0.1-0.3-0.2-0.4-0.3c-0.6-0.5-1-2.9-0.7-3.8c0.2-0.9,3.6,0.1,3.5-0.3c0-0.3-0.1-1.7-0.3-4.3
							c0-0.3,0.2-0.5,0.4-0.5c0.6-0.1,1.2-0.2,1.8-0.4c0.1,0,0.1,0,0.2,0c0.6-0.1,3.7-0.7,5.7,1.5c0.2,0.2,0.3,0.4,0.5,0.6
							c0.4,0.6,0.6,1.2,0.6,1.9l0.1,3c0,0.3,0,0.6,0,0.9c-0.4,3.8-1.8,6.5-3.2,6.8c-0.2,0-1.1,0.1-2.2,0c-0.1,0,0,0-1.5-0.4
							C26.8,16.3,26.8,16.2,26.7,16.2z M32.5,40.8l0.3-2.1l0-0.2l0.5-3.2l1.2-0.3l1.6,5.1c4.3,1.2,7.6,2.1,9.9,2.7
							c2.3,0.7,2.7,1.1,1.2,1.3l-2.9-0.5c0.6,0.2,1.1,0.7,1.2,1.4c0.1,0.9-0.5,1.8-1.5,1.9l-1.2,0.2l0.6-3.6c0.1,0,0.1,0,0.2,0
							c0.1,0,0.2,0,0.3,0l-7.1-1.2c0.4,0.5,0.6,1.1,0.7,1.7c0.3,2.1-1.2,4.1-3.3,4.4L31.3,49c-9.7,1.4-15.8,2.2-18.6,2.5
							C12,51.7,9.5,52,6.8,51c-0.3-0.1-1-0.6-1.6-1.1c-0.4-0.4-0.7-1.2-0.9-2.5c-0.4-2.1,1-5.5,3.3-11.2c0.4-0.9,0.7-1.7,1-2.5
							l12.3,4.2c-0.3,0.7-0.6,1.3-0.9,1.8C23.4,40,28.3,40.3,32.5,40.8z"/>
						<path id="Hair" class="st7" d="M33.8,9.3c0.1,0.4,0.3,0.7,0.5,1.1c0.2,0.4,0.6,1.2,1,2.3c0.3,0.7,0.4,1.3,0.2,1.6
							c-0.2,0.3-2.9,0.9-3.1,0.9c0,0-0.1,0-0.1,0c0.7-1.2,1.3-3.1,1.5-5.3C33.8,9.7,33.8,9.5,33.8,9.3z M34.2,8.1
							c-0.3,0.1-0.9,0.2-1.3,0.1c-0.8-0.2-0.1-0.7,0.6-0.7c0.3,0,0.6,0.1,0.8,0.2C34.4,7.9,34.4,8.1,34.2,8.1z M30.6,8.4
							c-0.3,0.1-0.9,0.2-1.3,0.1c-0.8-0.2-0.1-0.7,0.6-0.7c0.4,0,0.6,0.1,0.8,0.2C30.8,8.1,30.7,8.3,30.6,8.4z M23.5,12.3l0.6,3
							c0,0,0,0,0,0c0,0,0,0,0,0s0,0,0,0c-3.4,0.2-5.8-0.8-7.5-1.3c-0.3-0.1-0.6-0.2-0.8-0.6c-0.3-0.5-0.2-1,0-1.7
							c0.1-0.4,0.3-1,0.6-1.6c0.3-0.6,0.8-1.5,1.4-2.7c0-0.9,0.1-2.1,0.8-3.2c0.4-0.6,1-1,1.2-1.1C21,2.5,22,2.7,24.6,2.4
							c0.5-0.1,2.7-0.5,2.8-0.5c0.6-0.1,3.3-0.5,5.2,1.6c0.1,0.1,0.2,0.2,0.3,0.3c-0.5,0.3-0.9,0.5-1.2,0.6c-1.2,0.4-2.4,0.3-3,0.1
							c-0.1,0.4-0.4,0.9-0.7,1.4c-0.9,1.4-2,2.1-2.7,2.5c-0.2-0.2-0.6-0.5-1-0.7c-0.1,0-0.4-0.2-0.9-0.2c-0.8,0-1.6,0.7-1.8,1.6
							c-0.2,0.9,0.1,1.8,0.7,2.3c0.5,0.5,1.1,0.6,1.4,0.6C23.5,12.1,23.5,12.2,23.5,12.3z"/>
						<path id="Eyes" class="st7" d="M32.8,9.4C32.8,9.2,33,9,33.2,9c0.1,0,0.3,0,0.3,0.3c0.2,0.5-0.2,1.4-0.5,1.1
							C32.8,10.1,32.8,9.6,32.8,9.4z M30.1,9.5c0-0.2,0.2-0.4,0.4-0.4c0.1,0,0.3,0,0.3,0.3c0.2,0.5-0.2,1.4-0.5,1.1
							C30.1,10.3,30.1,9.8,30.1,9.5z"/>
						<path id="Mouth" class="st7" d="M31.5,12.9c-0.1,0-0.4-0.1-0.5-0.3c0,0,0-0.1,0-0.1c0.1-0.1,0.3-0.1,0.6-0.1
							c0.5,0,1-0.1,1-0.1s-0.1,0.4-0.2,0.5C32.3,13.1,31.7,13,31.5,12.9z"/>
						<path id="Nose" class="st7" d="M32.3,11.3C32.2,11.3,32.2,11.3,32.3,11.3c-0.2,0-0.3,0-0.8,0.1c-0.1,0-0.2,0.1-0.2,0.2
							c0,0.1,0.1,0.2,0.2,0.2c0.5,0,0.6-0.1,0.8-0.1c0,0,0,0,0.1,0c0.2-0.1,0.3-0.2,0.3-0.4l0,0l-0.4-1.8l-0.1-1
							c0-0.1-0.1-0.2-0.2-0.2c-0.1,0-0.2,0.1-0.2,0.2l0.1,1l0,0L32.3,11.3C32.3,11.3,32.3,11.3,32.3,11.3z"/>
						<polygon class="st7" points="26.4,18 24.8,15.9 26.8,16.2 						"/>
						<path id="Shadow-Arm" class="st9" d="M32.6,40.4l0.2-1.7l0-0.2l0.5-3.2l1.2-0.3l1.6,5.1c4.3,1.2,7.6,2.1,9.9,2.7
							c1.4,0.4,2.2,0.7,1.8,0.9C47.6,43.9,47,44,46,44c-2.9-0.9-5.2-1.5-7-1.9c-1.3-0.3-2.9-0.6-4.6-0.9c0,0-0.1,0-0.1,0
							c0,0-0.1,0-0.1,0c-0.5-0.1-1-0.2-1.6-0.3L32.6,40.4z"/>
						<path class="st7" d="M22.5,36.3c0.5,0.3,0.7,1,0.5,1.5c-0.3,0.6-1,0.9-1.7,0.7l-0.6-0.2c-0.1,0-0.2-0.2-0.2-0.3
							c0-0.1,0.2-0.2,0.3-0.2l0.6,0.2c0.4,0.2,0.9,0,1.1-0.4c0.2-0.4-0.1-0.8-0.5-1c-0.1-0.1-0.2-0.2-0.1-0.3c0-0.1,0.1-0.1,0.1-0.1
							c0-0.1,0.1-0.2,0.2-0.2c1-0.4,1.8-1,2.4-2.1c0.7-1.3,0.8-2.7,0.4-4.1c-0.1-0.2-0.1-0.4-0.2-0.6c0-0.1-0.1-0.2-0.1-0.3
							c-0.1-0.1,0-0.3,0.1-0.3c0.1-0.1,0.3,0,0.3,0.1c0.1,0.1,0.1,0.2,0.1,0.3c0.1,0.2,0.2,0.4,0.2,0.7c0.4,1.5,0.4,3-0.4,4.4
							C24.4,35.2,23.5,35.9,22.5,36.3z M17.1,41.9c-0.1,0.1-0.3,0-0.4-0.1s0-0.3,0.1-0.4l3-2c0.1-0.1,0.3,0,0.4,0.1s0,0.3-0.1,0.4
							L17.1,41.9z"/>
					</g>
				</g>
			</g>
		</g>
	</g>
</g>
</svg>
