<?xml version="1.0" encoding="utf-8"?>
<!-- Generator: Adobe Illustrator 23.0.1, SVG Export Plug-In . SVG Version: 6.00 Build 0)  -->
<svg version="1.1" id="Layer_1" xmlns="http://www.w3.org/2000/svg" xmlns:xlink="http://www.w3.org/1999/xlink" x="0px" y="0px"
	 viewBox="0 0 40 40" style="enable-background:new 0 0 40 40;" xml:space="preserve">
<style type="text/css">
	.st0{fill-rule:evenodd;clip-rule:evenodd;fill:#5856D6;}
</style>
<title>Icons / ic_sun / set</title>
<desc>Created with Sketch.</desc>
<g id="Symbols">
	<g id="ic_dawn">
		<g>
			<path class="st0" d="M28,27c0,0.8-0.5,1.3-1.3,1.3c-0.8,0-1.3-0.5-1.3-1.3c0-2.9-2.4-5.3-5.3-5.3s-5.3,2.4-5.3,5.3
				c0,0.8-0.5,1.3-1.3,1.3c-0.8,0-1.3-0.5-1.3-1.3c0-4.4,3.6-8,8-8S28,22.6,28,27z M10.5,19.4c0.3,0.3,0.7,0.4,0.9,0.4
				c0.3,0,0.7-0.1,0.9-0.4c0.5-0.5,0.5-1.3,0-1.9l-1.9-1.9c-0.5-0.5-1.3-0.5-1.9,0c-0.5,0.5-0.5,1.3,0,1.9L10.5,19.4z M5.3,28.3H8
				c0.8,0,1.3-0.5,1.3-1.3S8.8,25.7,8,25.7H5.3C4.5,25.7,4,26.2,4,27S4.5,28.3,5.3,28.3z M30.7,27c0,0.8,0.5,1.3,1.3,1.3h2.7
				c0.8,0,1.3-0.5,1.3-1.3s-0.5-1.3-1.3-1.3H32C31.2,25.7,30.7,26.2,30.7,27z M28.5,19.8c0.4,0,0.7-0.1,0.9-0.4l1.9-1.9
				c0.5-0.5,0.5-1.3,0-1.9c-0.5-0.5-1.3-0.5-1.9,0l-1.9,1.9c-0.5,0.5-0.5,1.3,0,1.9C27.7,19.7,28.1,19.8,28.5,19.8z M34.7,31H5.3
				C4.5,31,4,31.5,4,32.3c0,0.8,0.5,1.3,1.3,1.3h29.3c0.8,0,1.3-0.5,1.3-1.3C36,31.5,35.5,31,34.7,31z M19.1,15.9
				c0.1,0.1,0.3,0.3,0.4,0.3c0.1,0.1,0.4,0.1,0.5,0.1s0.4,0,0.5-0.1s0.3-0.1,0.4-0.3l5.3-5.3c0.5-0.5,0.5-1.3,0-1.9
				c-0.5-0.5-1.3-0.5-1.9,0l-3.1,3.1V5.7c0-0.8-0.5-1.3-1.3-1.3s-1.3,0.5-1.3,1.3v6.1l-3.1-3.1c-0.5-0.5-1.3-0.5-1.9,0
				c-0.5,0.5-0.5,1.3,0,1.9L19.1,15.9z"/>
		</g>
	</g>
</g>
</svg>
