<?xml version="1.0" encoding="utf-8"?>
<!-- Generator: Adobe Illustrator 23.0.1, SVG Export Plug-In . SVG Version: 6.00 Build 0)  -->
<svg version="1.1" id="Layer_1" xmlns="http://www.w3.org/2000/svg" xmlns:xlink="http://www.w3.org/1999/xlink" x="0px" y="0px"
	 viewBox="0 0 250 190" style="enable-background:new 0 0 250 190;" xml:space="preserve">
<style type="text/css">
	.st0{fill:#E1E5F0;}
	.st1{fill:#F2F6FB;}
	.st2{opacity:0.2176;fill-rule:evenodd;clip-rule:evenodd;fill:#D8D8D8;enable-background:new    ;}
	.st3{fill-rule:evenodd;clip-rule:evenodd;fill:#FF8B66;}
	.st4{fill-rule:evenodd;clip-rule:evenodd;fill:#CE364C;}
	.st5{fill-rule:evenodd;clip-rule:evenodd;fill:#FF2D55;}
	.st6{filter:url(#Adobe_OpacityMaskFilter);}
	.st7{fill-rule:evenodd;clip-rule:evenodd;fill:#FFFFFF;}
	.st8{mask:url(#mask-2_1_);fill-rule:evenodd;clip-rule:evenodd;fill:#0C476B;}
	.st9{filter:url(#Adobe_OpacityMaskFilter_1_);}
	.st10{mask:url(#mask-4_1_);fill-rule:evenodd;clip-rule:evenodd;fill:#0C476B;}
	.st11{fill-rule:evenodd;clip-rule:evenodd;fill:#0C476B;}
	.st12{fill-rule:evenodd;clip-rule:evenodd;fill:#0E3944;}
	.st13{fill-rule:evenodd;clip-rule:evenodd;fill:#EF6E4B;}
	.st14{fill-rule:evenodd;clip-rule:evenodd;fill:#EFEFF4;}
	.st15{fill-rule:evenodd;clip-rule:evenodd;fill:#105E99;}
	.st16{fill-rule:evenodd;clip-rule:evenodd;fill:#1A4850;}
	.st17{filter:url(#Adobe_OpacityMaskFilter_2_);}
	.st18{mask:url(#mask-6_1_);fill-rule:evenodd;clip-rule:evenodd;fill:#0C476B;}
	.st19{fill:#482D1F;}
</style>
<title>Group 10</title>
<desc>Created with Sketch.</desc>
<g id="cine_v2">
	<g id="crear_pop" transform="translate(-60.000000, -111.000000)">
		<g id="Group-10" transform="translate(60.000000, 111.000000)">
			<g id="Group-9">
				<g id="Group" transform="translate(0.000000, 7.000000)">
					<path id="Shadow" class="st0" d="M133.9,51.4c5-9.3,14.6-16.8,32.7-18.5c21.9-2,30.4,7.1,34.2,19.5c2.6-0.5,5.5-0.9,8.7-1.1
						c35.7-2.3,39.3,20.7,35.7,32.6c-3,9.8-24.6,10.4-40.2,10.3c-3,11.6-16.1,10.5-28.6,10.5c-13.3,0-36.2-3.9-44-15
						c-15.2,0.3-31.5-1.9-36.1-6c-8.5-7.7-7.5-30.1,28.3-32.3C127.9,51.1,131,51.1,133.9,51.4z"/>
					<path id="Clouds" class="st1" d="M63,72.7c7.1-12.6,20.5-22.8,45-25c30.1-2.7,42,9.6,47.4,26.6c4-0.9,8.4-1.5,13.5-1.8
						c49.6-3.2,54.6,29.1,49.6,45.7c-4.2,14-35.1,14.6-56.8,14.5c-3.8,17-22.3,15.4-40,15.4c-18.7,0-50.9-5.6-61.5-21.4
						c-21.1,0.4-43.9-2.6-50.4-8.5C-1.9,107.4-0.6,75.7,49,72.5C54.1,72.2,58.7,72.3,63,72.7z M29,15.1c3-5.5,8.8-10,19.6-10.9
						C61.8,3,66.9,8.4,69.2,15.8c1.7-0.4,3.5-0.6,5.6-0.8c21.4-1.4,23.6,12.5,21.4,19.6c-1.8,6-15.1,6.3-24.5,6.2
						c-1.7,7.1-9.7,6.5-17.3,6.5c-8,0-21.7-2.4-26.5-9C19,38.6,9.1,37.3,6.4,34.7c-5.1-4.7-4.5-18.3,17-19.7
						C25.4,14.9,27.3,15,29,15.1z"/>
				</g>
				<g id="Group-7" transform="translate(53.000000, 0.000000)">
					<ellipse id="Oval-Copy" class="st2" cx="68.6" cy="179.2" rx="52.6" ry="6.7"/>
					<g id="Group-101">
						<g id="Group-100">
							<path id="Fill-1" class="st3" d="M52,94.9c0,0,3.7,11.6,12.7,27.2c0,0-1.5,16.5,24,47.2l3.5-1.9c0,0-13.2-30.8-15.3-39.9
								c-2.1-9.1-1.2-21.3-8.1-40.4L52,94.9z"/>
							<path id="Fill-3" class="st4" d="M67.6,71.4c0,0-12.1-4.9-12.1-4.9c-2.1,6.7-7.5,11.6-7.1,22.1c0.2,5.2,3.6,10.6,3.6,10.6
								c14.3-0.5,19.1-6.5,19.1-6.5L69,82.6C69,82.6,67.5,75.8,67.6,71.4L11.8,106"/>
							<path id="Fill-5" class="st3" d="M38.9,87.1c0,0-0.4,12.2,2.9,29.9c0,0-7,15.1,6.9,52.5l4-0.7c0,0-2.1-33.4-1.1-42.8
								c1-9.3,6.4-17.5,5.8-40.8L38.9,87.1z"/>
							<path id="Fill-7" class="st5" d="M67.6,71.4l-4.8,8.1l-1.2,2l-2.5,4.2L57.6,97l-0.1,0.5l0,0.2c-12.3-1.4-18.8,2.4-18.8,2.4
								l-0.1-1.1l0-0.3c0-0.1,0-0.1-0.1-0.2c-1.1-3.4-2.7-12.4-0.8-18.6c3.1-10.1,8.7-9.1,12.9-14.8C50.5,65.2,67.6,71.4,67.6,71.4"
								/>
							<g id="Group-11" transform="translate(29.988697, 139.904510)">
								<g id="Clip-10">
								</g>
								<defs>
									<filter id="Adobe_OpacityMaskFilter" filterUnits="userSpaceOnUse" x="16.3" y="23.6" width="10.3" height="13.9">
										<feColorMatrix  type="matrix" values="1 0 0 0 0  0 1 0 0 0  0 0 1 0 0  0 0 0 1 0"/>
									</filter>
								</defs>
								<mask maskUnits="userSpaceOnUse" x="16.3" y="23.6" width="10.3" height="13.9" id="mask-2_1_">
									<g class="st6">
										<polygon id="path-1_1_" class="st7" points="16.3,23.6 26.7,23.6 26.7,37.5 16.3,37.5 										"/>
									</g>
								</mask>
								<path id="Fill-9" class="st8" d="M16.3,26.1c0,0,1.6,3.5,1.1,5.8c-0.3,1.4-1.8,3.2-0.6,5.5h9.6c0,0,1.1-2.6-1.1-4.9
									c-1.2-1.3-2.2-7.4-2.2-7.4c-1.1,0.2-0.8,1-0.8,1s0-2.9-2.4-2.5c-2.9,0.5-2.2,3-2.2,3S17.4,25.7,16.3,26.1"/>
							</g>
							<g id="Group-14" transform="translate(64.457466, 139.309179)">
								<g id="Clip-13">
								</g>
								<defs>
									<filter id="Adobe_OpacityMaskFilter_1_" filterUnits="userSpaceOnUse" x="20.9" y="23.7" width="18.4" height="14.3">
										<feColorMatrix  type="matrix" values="1 0 0 0 0  0 1 0 0 0  0 0 1 0 0  0 0 0 1 0"/>
									</filter>
								</defs>
								<mask maskUnits="userSpaceOnUse" x="20.9" y="23.7" width="18.4" height="14.3" id="mask-4_1_">
									<g class="st9">
										<polygon id="path-3_1_" class="st7" points="20.9,23.7 39.3,23.7 39.3,38.1 20.9,38.1 										"/>
									</g>
								</mask>
								<path id="Fill-12" class="st10" d="M39.2,38.1H23.2c0,0-0.4-3.4,0.3-4.6c1-1.6-2.5-5.3-2.5-5.3s2.1-2.7,4-1.2
									c0,0-0.2-3.4,2.2-3.3c0,0,2.2,5.7,4.8,7.7c0.1,0,0.1,0.1,0.2,0.1c1.9,1.4,5.3,1.7,6.7,3.6C39.3,35.9,39.5,36.8,39.2,38.1"/>
							</g>
							<path id="Fill-15" class="st4" d="M58.3,97.2l-0.1,0.5c-0.2-0.1-0.4-0.1-0.6-0.2c-10.1-2.8-17,0.5-19,1.6l0-0.3
								c0-0.1,0-0.1-0.1-0.2c0.9-0.5,2.6-1.3,5-1.9c-0.1-0.9-0.8-7.5,0-14.6c0.9-7.8,8.5-12.5,8.6-12.6l0.3,0.4
								c-0.1,0-5.5,3.4-7.6,9.1c7.1-0.1,9.9-9,9.9-9.1l0.5,0.1c0,0.1-3,9.4-10.5,9.4h-0.1c-0.3,0.8-0.5,1.7-0.6,2.6
								c-0.8,7-0.1,13.3,0,14.5c3.4-0.8,8.1-1.1,13.7,0.4C57.8,97.1,58,97.1,58.3,97.2"/>
							<path id="Fill-17" class="st4" d="M63.5,73.7c0,0.1-0.7,7-3.9,12.3l0.4,0.3c3.3-5.4,4-12.5,4-12.5L63.5,73.7z"/>
							<path id="Fill-19" class="st11" d="M85.4,70.6c0,0-1.2,5.6-2.5,6c-1.3,0.4-0.2-2.9-0.2-2.9s-8.8-3.6-12.4-3.8
								C66.7,69.7,71.8,62.8,85.4,70.6"/>
							<path id="Fill-21" class="st11" d="M83.9,71.6c0,0-9.3-4.3-15.7-3.9c-6.4,0.3,8.9-21.1,12.8-18.9
								C84.7,51,85.6,68.9,83.9,71.6"/>
							<path id="Fill-23" class="st11" d="M60.8,30.5c0,0,0.9-2.3,5.5-2.8c4.6-0.4,8.7,4.4,7.8,7.2C73.2,37.7,60.8,30.5,60.8,30.5"
								/>
							<path id="Fill-25" class="st12" d="M68.1,10.2c0,0-0.3-6-5.9-6.9c-5.6-0.9-10,0.4-8,8.4s0.7,11.2-3,11.6
								c-3.7,0.4-3.4-3.9-3.4-3.9s-0.8,3.9,3.2,5.4c0,0-4.2,0.3-2.7,3c1.5,2.6,6.2,2.2,8,0c0,0,0.1,1.8,2.4,1.2c0,0-0.9-0.3-0.8-1.5
								c0.1-1.2,6.4,0.8,8.4-6.6c2-7.5-2-8.7-2-8.7L68.1,10.2z"/>
							<path id="Fill-27" class="st3" d="M78.7,33.8c-3.4-0.2-3.5,3.2-1.8,6.5c1.7,3.3,18.3,18.2,20.8,15.4c1-1.1-1.9-6.1-1.9-6.1
								s-4.7-4.1-10.8-11.1C82.3,35.4,80.5,33.9,78.7,33.8"/>
							<path id="Fill-29" class="st3" d="M100,50.3c0.9-4.9-0.4-17.8-2.5-23.4l-2.8,0.7c0,0,0.1,14.3-1.2,18.8
								c-1.3,4.6-0.5,8,2.5,9.3C99,57.1,99.8,51.3,100,50.3"/>
							<path id="Fill-31" class="st3" d="M91.4,23.8c3.1,2.1,2,5,5.1,5.6c0.6,0.1,1.1,0,1.5-0.3c0.7-0.5,1.1-1.4,0.9-2.3
								c-0.3-2-0.2-4.7-0.1-6.1c0.2-1.5-0.4-1.1-0.4-1.1c0-0.1,0.1-0.3,0.1-0.4c0.2-1,0.6-1.7-0.2-1.4c-0.9,0.3-1.7,3.2-1.7,3.2
								c0.2-4.3,1.3-4.8,0.5-4.5c-1.1,0.3-1.8,4-1.9,4.1c-0.3-2.6,0.2-4-0.5-3.5C94.1,17.6,94,22.3,94,24c0,0.4,0,0.6,0,0.6
								C91.6,22.8,91.4,23.8,91.4,23.8"/>
							<path id="Fill-33" class="st13" d="M94,24c0,0.4,0,0.6,0,0.6s1.3,0.1,1.9,1.6C95.9,26.2,96,24.4,94,24"/>
							<path id="Fill-35" class="st13" d="M97.6,22.7c0-0.4,0.3-2.4,0.8-3c0-0.1,0.1-0.3,0.1-0.4C97.7,19.3,97.6,22.3,97.6,22.7"/>
							<path id="Fill-37" class="st11" d="M73.8,33.6c0,0,4.6-1.9,10.2,1.5c5.6,3.4,9,8.7,9,8.7s0.1-10,1.7-11.7c0,0,2.1,2.5,4.7,3
								c0,0,6.7,13.9,2.4,22.5c-4.2,8.6-16.8,0-16.8,0L73.8,33.6z"/>
							<path id="Fill-39" class="st14" d="M50.5,65.2c0,0,3.4-8.9,1.6-13.9c-2.9-8.6-1.3-15.9,1.8-18.1c5-3.5,15.4,0.5,15.4,0.5
								s10.2-1.1,11.2,2c1,3.1,3.5,15.6-1.4,22.3c-4.8,6.7-11.6,17-11.6,17S53.2,73.8,50.5,65.2"/>
							<path id="Fill-41" class="st11" d="M56.4,70.6c0,0-1.4,4.8-3.2,4.5c-1.8-0.3-9.5-4.5-9.5-5.2c0-0.7,1.1-2.2,1.1-2.2
								s-0.4-3.7,0.5-4C46.2,63.4,56.4,70.6,56.4,70.6"/>
							<path id="Fill-43" class="st15" d="M72.7,32.1c0,0,10.6,18.4,10.1,41.7c0,0,4.8-1.3,5.7-10s-2.2-25.3-6.4-29.7
								C82.1,34.1,79,30.9,72.7,32.1"/>
							<path id="Fill-45" class="st15" d="M63.7,31.3c0,0,7.9,28.3-7.4,39.3c0,0-6.4-0.4-11-5.4c-4.6-5,1.6-32,1.6-32
								S55.2,27.9,63.7,31.3"/>
							<path id="Fill-47" class="st11" d="M65.4,40.2c0,0,0-8.5-1-10.8c-1-2.2-3.5,1-3.5,1S61.5,34.4,65.4,40.2"/>
							<path id="Fill-49" class="st11" d="M76.1,39.4c0,0,1-8.4-1.9-9.9c-2.9-1.5-2.9,3.8-2.9,3.8S73.8,33,76.1,39.4"/>
							<path id="Fill-51" class="st13" d="M67.8,22.2c0,0,0.7,5.8-1.5,11c0,0,3,4.5,6,1.5c0,0,0.3-5.3,3.5-11.3
								C78,19.5,67.8,22.2,67.8,22.2"/>
							<path id="Fill-53" class="st3" d="M63.1,22.4c0,0-2.6-1.6-2.3,0.9c0.3,2.9,3.2,3.5,3.5,2.5C64.6,24.7,63.1,22.4,63.1,22.4"/>
							<path id="Fill-55" class="st3" d="M77.9,19.2c0,0,1.6-2.6,2.4-0.2c0.9,2.8-1.4,4.5-2.1,3.7C77.5,22,77.9,19.2,77.9,19.2"/>
							<path id="Fill-57" class="st3" d="M72.6,31.1c-4.7,1-8-1.4-10-10.6c-1.1-4.7,0.7-8.2,5.9-9.3c5.2-1.2,8.1,1.2,9.1,6
								C79.8,27,77.4,30,72.6,31.1"/>
							<path id="Fill-79" class="st16" d="M63.5,24c0,0-0.6-2.2-0.8-4.8c-0.3-3.4,1.8-6.5,5-7.5c1.1-0.3,2.3-0.5,3.7-0.4
								c2.1,0.2,3.9,1.5,4.8,3.5c0.7,1.6,1.5,3.7,2.1,6.3c0,0,0.8-2.7,0.1-6.9c-0.8-4.2-4.2-7.7-12.2-6C59.3,9.7,56.4,17.9,63.5,24"
								/>
							<path id="Fill-81" class="st16" d="M73.4,10.3c0,0-0.9,6.5-9.7,7.3c0,0,5.4-1.9,5.4-5.7c0,0-2.1,4.8-7.2,4.3
								C61.9,16.3,61.4,8.5,73.4,10.3"/>
							<path id="Fill-83" class="st3" d="M46.5,35.4c4.3,1.3,7.2,8.3,6.3,9.1c-0.9,0.8-21.2,4.7-21.2,4.7L44,67l-2.1,3.1
								c0,0-19.3-17.1-19.2-22.9C22.8,41.3,46.5,35.4,46.5,35.4"/>
							<path id="Fill-85" class="st3" d="M44,66.5c0,0,2.7,0.3,4.4,0.7c1.7,0.4,3.9,0.8,4,1.2c0.1,0.4-3.7,0-3.7,0s3.1,1.3,3.2,1.8
								c0.1,0.5-3.9-0.4-3.9-0.4s2.5,1.6,2.4,2c-0.1,0.4-3.3-0.6-3.3-0.6s0.6,1.5,1.2,2.2c0,0-0.6,0.3-1.8-1
								c-1.2-1.4-3.2-0.9-4.7-2.1C40.1,69,42.6,66.3,44,66.5"/>
							<g id="Group-89" transform="translate(8.000000, 26.196339)">
								<g id="Clip-88">
								</g>
								<defs>
									<filter id="Adobe_OpacityMaskFilter_2_" filterUnits="userSpaceOnUse" x="12.5" y="7.1" width="34.4" height="32">
										<feColorMatrix  type="matrix" values="1 0 0 0 0  0 1 0 0 0  0 0 1 0 0  0 0 0 1 0"/>
									</filter>
								</defs>
								<mask maskUnits="userSpaceOnUse" x="12.5" y="7.1" width="34.4" height="32" id="mask-6_1_">
									<g class="st17">
										<polygon id="path-5_1_" class="st7" points="12.5,7.1 46.9,7.1 46.9,39 12.5,39 										"/>
									</g>
								</mask>
								<path id="Fill-87" class="st18" d="M39,7.1c0,0,7.6,0.9,7.9,12c0.3,11.2-16.6,7.6-16.6,7.6s4.1,4.8,2.9,10.1
									c0,0-4.6,0-4.5,2.3c0,0-7.1,0.4-14-9.2C7.8,20.2,17.5,9.5,39,7.1"/>
							</g>
						</g>
					</g>
				</g>
			</g>
			<g id="Group-8" transform="translate(98.000000, 11.500000)">
				<path id="Face" class="st19" d="M23.6,9.7c0.1,0.4,0.2,1.2-0.1,1.5c-0.3,0.5-1.3-0.7-1.1-1.5c0.1-0.3,0.3-0.5,0.5-0.5
					C23.3,9.1,23.5,9.3,23.6,9.7z M29.2,9.2c0.1,0.4,0.2,1.2-0.1,1.5c-0.3,0.5-1.3-0.7-1.1-1.5c0.1-0.3,0.3-0.5,0.5-0.5
					C28.9,8.6,29.2,8.9,29.2,9.2z M24.9,9.7c0-0.1,0.1-0.2,0.3-0.2s0.2,0.1,0.2,0.3l-0.2,2.4c0,0,0,0.1,0,0.1c0.2,0,0.3,0,0.7,0
					c0.2,0,0.4,0,0.5,0c0.1,0,0.3,0.1,0.3,0.2s-0.1,0.2-0.3,0.2c-0.2,0-0.3,0-0.5,0c-0.5,0-0.6,0-0.8,0c-0.3,0-0.5-0.3-0.5-0.6
					L24.9,9.7z M26.9,14.2c-0.3,0.1-1.1,0.4-1.4,0.1c-0.1-0.1-0.4-0.5-0.4-0.5s0.7,0,1.5-0.1c0.5-0.1,0.8-0.2,0.9,0c0,0,0,0.1,0,0.1
					C27.5,13.9,27,14.1,26.9,14.2z"/>
				<path id="Glasses" class="st19" d="M33,7.4l1.6-0.4C34.8,6.9,35,7,35,7.3c0,0.2-0.1,0.4-0.3,0.5l-1.5,0.4
					c0.1,0.3,0.1,0.5,0.1,0.8c0,2-1.6,3.7-3.7,3.7c-1.7,0-3.1-1.1-3.5-2.7L25.2,10c-0.2,1.8-1.8,3.3-3.7,3.3c-2,0-3.7-1.6-3.7-3.7
					s1.6-3.7,3.7-3.7c1.8,0,3.3,1.3,3.6,3.1l0.8-0.1c0-2,1.7-3.7,3.7-3.7C31.1,5.2,32.4,6.1,33,7.4z M24.4,9.3
					c-0.1-1.5-1.4-2.7-2.9-2.7c-1.6,0-2.9,1.3-2.9,2.9s1.3,2.9,2.9,2.9c1.6,0,2.8-1.2,2.9-2.8c0,0,0-0.1,0-0.1
					C24.4,9.5,24.4,9.4,24.4,9.3z M29.6,11.8c1.6,0,2.9-1.3,2.9-2.9S31.2,6,29.6,6c-1.6,0-2.9,1.3-2.9,2.9S28,11.8,29.6,11.8z"/>
			</g>
		</g>
	</g>
</g>
</svg>
