<?xml version="1.0" encoding="utf-8"?>
<!-- Generator: Adobe Illustrator 23.0.1, SVG Export Plug-In . SVG Version: 6.00 Build 0)  -->
<svg version="1.1" id="Layer_1" xmlns="http://www.w3.org/2000/svg" xmlns:xlink="http://www.w3.org/1999/xlink" x="0px" y="0px"
	 viewBox="0 0 25 25" style="enable-background:new 0 0 25 25;" xml:space="preserve">
<style type="text/css">
	.st0{fill-rule:evenodd;clip-rule:evenodd;fill:#4A00BD;}
</style>
<title>Shape</title>
<desc>Created with Sketch.</desc>
<g id="Symbols">
	<g transform="translate(-2.000000, -4.000000)">
		<g id="ticket" transform="translate(2.000000, 4.000000)">
			<path id="Shape" class="st0" d="M16.1,16.8l-3.6-2.3l-3.6,2.3l1.1-4.1L6.7,10L11,9.7l1.5-3.9L14,9.7l4.3,0.3L15,12.7 M20.5,12
				c0-1.1,0.9-2,2-2V6c0-1.1-0.9-2-2-2h-16c-1.1,0-2,0.9-2,2v4c1.1,0,2,0.9,2,2s-0.9,2-2,2v4c0,1.1,0.9,2,2,2h16c1.1,0,2-0.9,2-2v-4
				C21.4,14,20.5,13.1,20.5,12z"/>
		</g>
	</g>
</g>
</svg>
