<?xml version="1.0" encoding="utf-8"?>
<!-- Generator: Adobe Illustrator 23.0.1, SVG Export Plug-In . SVG Version: 6.00 Build 0)  -->
<svg version="1.1" id="Layer_1" xmlns="http://www.w3.org/2000/svg" xmlns:xlink="http://www.w3.org/1999/xlink" x="0px" y="0px"
	 viewBox="0 0 25 25" style="enable-background:new 0 0 25 25;" xml:space="preserve">
<style type="text/css">
	.st0{fill-rule:evenodd;clip-rule:evenodd;fill:#8E8E93;}
</style>
<title>Icons / Material / ic_clear</title>
<desc>Created with Sketch.</desc>
<g id="cine_v2">
	<g id="Home_encuestas" transform="translate(-30.000000, -185.000000)">
		<g id="Group-16" transform="translate(17.000000, 101.000000)">
			<g id="Group-14">
				<g id="Group-13" transform="translate(10.000000, 83.000000)">
					<g>
						<path id="ic_timer" class="st0" d="M18.5,3h-6v2h6V3L18.5,3z M14.5,16h2v-6h-2V16L14.5,16z M22.5,9.4L24,8
							c-0.4-0.5-0.9-1-1.4-1.4L21.1,8c-1.6-1.2-3.5-2-5.6-2c-5,0-9,4-9,9s4,9,9,9s9-4,9-9C24.5,12.9,23.8,10.9,22.5,9.4L22.5,9.4z
							 M15.5,22c-3.9,0-7-3.1-7-7s3.1-7,7-7s7,3.1,7,7S19.4,22,15.5,22L15.5,22z"/>
					</g>
				</g>
			</g>
		</g>
	</g>
</g>
</svg>
