<?xml version="1.0" encoding="utf-8"?>
<!-- Generator: Adobe Illustrator 23.0.1, SVG Export Plug-In . SVG Version: 6.00 Build 0)  -->
<svg version="1.1" id="Capa_1" xmlns="http://www.w3.org/2000/svg" xmlns:xlink="http://www.w3.org/1999/xlink" x="0px" y="0px"
	 viewBox="0 0 60 60" style="enable-background:new 0 0 60 60;" xml:space="preserve">
<style type="text/css">
	.st0{fill:#5856D6;}
	.st1{fill:#FFFFFF;}
</style>
<path class="st0" d="M30,2.4C14.8,2.4,2.5,14.7,2.5,29.9c0,6.9,2.5,13.5,7.3,18.6l0,0c5.3,5.7,12.4,8.9,20.2,8.9s15-3.2,20.2-8.9
	c4.6-5.1,7.3-11.7,7.3-18.6C57.5,14.8,45.2,2.4,30,2.4z"/>
<path class="st1" d="M47,45.6c0.5-0.5,1.1-1.2,1.7-2C44,38.5,38.1,35.4,32,34.8c5.3-1,9.3-5.6,9.3-11.2c0-6.3-5.1-11.4-11.3-11.4
	s-11.3,5.1-11.3,11.4c0,5.6,4.1,10.3,9.4,11.2c-6.3,0.5-12,3.5-16.7,8.8c0.6,0.7,1,1.3,1.6,2c4.5,4.7,10.6,7.5,17,7.5
	S42.5,50.4,47,45.6z"/>
</svg>
