<?xml version="1.0" encoding="utf-8"?>
<!-- Generator: Adobe Illustrator 23.0.1, SVG Export Plug-In . SVG Version: 6.00 Build 0)  -->
<svg version="1.1" id="Layer_1" xmlns="http://www.w3.org/2000/svg" xmlns:xlink="http://www.w3.org/1999/xlink" x="0px" y="0px"
	 viewBox="0 0 220 160" style="enable-background:new 0 0 220 160;" xml:space="preserve">
<style type="text/css">
	.st0{fill:#E1E5F0;}
	.st1{fill:#F2F6FB;}
	.st2{clip-path:url(#SVGID_2_);}
	.st3{fill:#A339FF;}
	.st4{fill:#BF865F;}
	.st5{fill:#FFCB3D;}
	.st6{fill-rule:evenodd;clip-rule:evenodd;fill:#FFFFFF;}
	.st7{fill:#DB9E75;}
	.st8{fill:#482D1F;}
	.st9{fill:#3ABF7C;}
	.st10{fill:#474961;}
	.st11{opacity:0.177;fill:#444444;enable-background:new    ;}
	.st12{fill:#ED9474;}
	.st13{opacity:0.2;fill:#8C2A00;enable-background:new    ;}
	.st14{fill:#FF5645;}
	.st15{clip-path:url(#SVGID_4_);}
	.st16{fill:#5856D6;}
</style>
<g>
	<path id="Shadow" class="st0" d="M118.4,50.1c4.3-8.1,12.8-14.7,28.5-16.1c19.2-1.7,26.6,6.2,29.9,17.1c2.3-0.5,4.8-0.8,7.6-1
		c31.2-2,34.4,18.1,31.2,28.5c-2.6,8.6-21.5,9.1-35.2,9c-2.6,10.1-14,9.2-25,9.2c-11.6,0-31.6-3.4-38.4-13.1
		c-13.2,0.2-27.5-1.6-31.6-5.3C78.1,71.6,79,52,110.2,50C113.2,49.8,115.9,49.9,118.4,50.1z"/>
	<path id="Clouds" class="st1" d="M56.5,68.8c6.2-11,17.9-19.9,39.3-21.8c26.3-2.4,36.7,8.4,41.4,23.3c3.5-0.8,7.4-1.3,11.8-1.6
		c43.3-2.8,47.7,25.4,43.3,39.9c-3.7,12.2-30.6,12.8-49.6,12.7c-3.3,14.8-19.5,13.5-34.9,13.5c-16.3,0-44.5-4.9-53.7-18.7
		c-18.4,0.4-38.4-2.3-44-7.4C-0.2,99.2,1,71.5,44.3,68.8C48.7,68.3,52.8,68.4,56.5,68.8z M26.8,18.4c2.6-4.8,7.7-8.7,17.1-9.6
		c11.5-1,16,3.7,18,10.2c1.5-0.3,3.1-0.5,4.9-0.7c18.7-1.2,20.6,10.9,18.7,17.1C84,40.7,72.4,41,64.2,40.9
		c-1.5,6.2-8.4,5.7-15.1,5.7c-7,0-19-2.1-23.1-7.8c-8,0.1-16.5-1-19-3.2c-4.4-4.1-3.9-16,14.8-17.2C23.6,18.3,25.3,18.3,26.8,18.4z"
		/>
	<g id="Userpic-Copy">
		<g id="User">
			<defs>
				<ellipse id="SVGID_1_" cx="26.2" cy="85.7" rx="22.5" ry="23"/>
			</defs>
			<clipPath id="SVGID_2_">
				<use xlink:href="#SVGID_1_"  style="overflow:visible;"/>
			</clipPath>
			<g id="Oval" class="st2">
				<ellipse class="st3" cx="26.2" cy="85.7" rx="22.5" ry="23"/>
			</g>
			<g id="Body" class="st2">
				
					<g transform="translate(20.602725, 29.370483) scale(-1, 1) rotate(1.000000) translate(-20.602725, -29.370483) translate(-0.397275, 4.370483)">
					<polyline id="Path" class="st4" points="-2.1,111.5 5.8,111.3 5.8,101.8 -0.5,101 -0.9,103.1 					"/>
					<path id="Shirt" class="st5" d="M22,79.3c1.1-0.6,4.5-0.4,4.5-0.4c1.2,0,3.2,0.2,5.4,1.7c0.3,0.2,0.8,0.6,1.3,1.1
						c0.4,0.4,1.3,0.7,2.3,4.8c0.4,1.4,0.8,5,2.4,7.5c0.3,0.5,0.7,2.5,1.3,5.9c-3.6,0.5-6.3,0.8-8.1,1.1c0.5,3.6,0.5,6.7,0.2,8.7
						c0.3,1.2,0.4,1.9,0.3,2.1c-5.3,0.1-8.5,0.2-9.5,0.2c-2.5,0.1-9.3,0.7-15.7,0.3c-1.6-1.6-1.5-6.8-1.5-6.8c0-1,0.1-2,0.1-3
						c-3-0.7-5.4-1.4-7.3-2.2c0.6-3.3,1-5.2,1.2-5.8c0.6-1.6,1.8-4.5,2.1-5.9c0.9-4.5,2.1-5.8,2.6-6.3s2.6-2.4,5.7-2.8
						c0.7-0.1,2-0.2,4-0.4c0.9-0.2,1.7-0.2,2.5-0.3C17.7,78.7,19.9,78.5,22,79.3z"/>
					<path id="T-shirt" class="st6" d="M22,79.4c-1.5,3.5-2.3,6.7-2.3,9.7c0,3,0.1,8.1,0.3,15.4l-9.5,0.1c0-6.7,0.1-11.8,0.4-15.4
						c0.3-3.6,1.4-7,3.4-10.2c2.5-0.3,4.2-0.4,5.3-0.2S21.3,79.1,22,79.4z"/>
					<path id="Skin" class="st7" d="M20.1,74.2l0.4,5.4c0,0.1,0,0.2-0.1,0.3c-0.4,0.3-1,0.6-1.7,0.8c-1.3,0.4-2.5,0.2-3.1,0
						c-0.1,0-0.2-0.2-0.2-0.3l-0.2-3.2c-0.8,0.3-0.8,0.3-0.9,0.3c-1,0.3-1.9,0.3-2,0.3c-0.6,0-1.2-0.5-1.8-1.3
						c-0.8-1.1-1.5-2.8-1.9-4.9c-0.1-0.3-0.1-0.6-0.1-0.9l-0.2-2.9c0-0.7,0.1-1.3,0.4-1.9c0.1-0.3,0.2-0.5,0.4-0.7
						c0.9-1.3,2.3-1.8,3.4-2c0.6-0.1,1.1-0.1,1.5-0.1c0.1,0,0.7,0.1,1.4,0.1c0.4,0,0.7,0,0.9,0c2.4,0,3.3-0.3,4.5,0.3
						c0.2,0.1,0.8,0.4,1.2,0.9c1.3,1.6,1.1,3.7,1,4.3c-0.2,1.9-1.2,3.1-1.5,3.5C21.2,73,20.5,73.7,20.1,74.2z"/>
					<path id="Combined-Shape" class="st8" d="M28.5,102.5c0,0.1,0,0.3-0.2,0.3c-0.1,0-0.3,0-0.3-0.2c-0.6-2.1-2.5-8.6-2.9-9.8
						c0-0.1,0-0.3,0.1-0.3s0.3,0,0.3,0.2C26,93.9,27.9,100.4,28.5,102.5z M3.9,103.3c0,0.1-0.2,0.2-0.3,0.2c-0.1,0-0.2-0.2-0.2-0.3
						c0.6-2.1,2.3-8.7,2.6-9.9c0-0.1,0.2-0.2,0.3-0.2s0.2,0.2,0.2,0.3C6.2,94.6,4.5,101.1,3.9,103.3z M15.1,77.2l2.2-1l-2,3.6
						L15.1,77.2z M10.1,70.9c0,0.3,0,0.7-0.2,0.9c-0.3,0.3-0.6-0.6-0.5-1.1c0.1-0.2,0.2-0.3,0.3-0.2C10,70.6,10.1,70.8,10.1,70.9z
						 M13,70.8c0,0.3,0,0.7-0.1,0.9c-0.2,0.3-0.7-0.5-0.6-1c0.1-0.2,0.2-0.3,0.3-0.3C12.8,70.4,13,70.6,13,70.8z M11.8,74.2
						c-0.2,0.1-0.7,0.2-0.8,0c-0.1-0.1-0.2-0.4-0.2-0.4s0.4,0,0.9,0c0.3,0,0.5-0.1,0.5,0v0.1C12.2,74.1,11.9,74.2,11.8,74.2z
						 M10.4,72.7l0.2-1.7v-1c0-0.1,0.1-0.2,0.2-0.2c0.1,0,0.2,0.1,0.2,0.2l0,1l0,0l-0.2,1.8l0,0h0.1c0.3,0,0.4,0,0.7,0
						c0.1,0,0.2,0.1,0.2,0.2s-0.1,0.2-0.2,0.2c-0.3,0-0.5,0-0.7,0c0,0,0,0-0.1,0C10.6,73.1,10.4,72.9,10.4,72.7z"/>
					<path id="Hair" class="st8" d="M20.6,69.6c0-0.4-0.2-0.8-0.4-1.2c-0.5-0.7-1.5-1.1-2.3-0.8c-0.4,0.2-0.7,0.5-0.7,0.6
						c-0.1,0.2-0.2,0.3-0.3,0.5c-2.4-1.1-4.3-1.6-5.7-1.7c-1,0-2,0.2-3,0.7c0-0.6,0.1-1.2,0.4-1.8c0.1-0.3,0.2-0.5,0.4-0.7
						c0.9-1.3,2.3-1.8,3.4-2c0.6-0.1,1.1-0.1,1.5-0.1c0.1,0,0.7,0.1,1.4,0.1c0.4,0,0.7,0,0.9,0c2.4,0,3.3-0.3,4.5,0.3
						c0.2,0.1,0.8,0.4,1.2,0.9c1.3,1.6,1.1,3.7,1,4.3c0,0.4-0.1,0.8-0.2,1.1C22.2,69.9,21.4,69.8,20.6,69.6z M8.9,69.8
						c-0.2,0-0.2-0.2-0.1-0.4c0.1-0.1,0.4-0.3,0.7-0.3c0.7,0,1.4,0.4,0.6,0.6C9.7,69.9,9.2,69.9,8.9,69.8z M12.2,69.8
						c-0.2,0-0.2-0.2-0.1-0.4c0.1-0.1,0.4-0.3,0.7-0.3c0.7,0,1.4,0.4,0.6,0.6C13,70,12.5,69.9,12.2,69.8z"/>
					<path class="st8" d="M20.5,69.3c0.1,0.5,0,1-0.2,1.4c-0.2,0.5-0.6,0.8-1.1,1.1c-0.1,0-0.1,0.1-0.1,0.2s0.1,0.1,0.2,0.1
						c0.2-0.1,0.4-0.2,0.5-0.4c0.3-0.2,0.5-0.5,0.7-0.9c0.2-0.5,0.3-1.1,0.2-1.6c0-0.1-0.1-0.1-0.2-0.1S20.5,69.2,20.5,69.3z"/>
				</g>
			</g>
		</g>
	</g>
	<g id="Woman" transform="translate(0.000000, 0.500000)">
		<path id="Base" class="st9" d="M80.8,154.2c0.4,0,0.8,0.3,0.8,0.8c0,0.4-0.3,0.8-0.8,0.8H52.5c-0.4,0-0.8-0.3-0.8-0.8
			c0-0.4,0.3-0.8,0.8-0.8H80.8z M136,155.7h-17.8c-0.4,0-0.8-0.3-0.8-0.6v-0.2c0-0.4,0.3-0.6,0.8-0.6H136c0.4,0,0.8,0.3,0.8,0.6v0.2
			C136.8,155.4,136.4,155.7,136,155.7z"/>
		<path id="Shoes" class="st10" d="M80.9,154.2C80.8,154.2,80.8,154.2,80.9,154.2H52.6c0-0.1,0-0.2,0-0.4c0-0.1,0-0.3,0.1-0.4
			c0.2-0.8,0.5-1.4,1.3-1.8c0.8-0.5,1.6-0.9,2.4-1.3c3.1-1.4,4.2-1.4,6.2-2.7c0.8-0.5,1.6-1.2,2.3-1.9c0.5-0.5,1.5-1.2,3.1-2.2h13
			L80.9,154.2z M136.1,154.2C136.1,154.2,136,154.2,136.1,154.2h-17.8l1.4-8.7l12.4-1.7L136.1,154.2z"/>
		<path id="Legs" class="st3" d="M99.4,87c-4,12.8-6.4,21.6-10.6,35c-0.9,2.4-1.2,4.2-1,5.4c0.3,1.9,2,5.2,2.8,8.8
			c0.8,3.6-7.5-0.4-14.6-1.7s-14.4-2.7-14.2-3.7c0.5-2.5,7.7-5.7,8.2-8.8c0.6-3.1,1-6.5,1.1-7.1c3.7-21.3,7.1-37.6,8.9-46.5
			c0.8-3.8,2.3-11,7.8-18.4c0.4-0.5,0.6-0.8,0.8-1.1c0.5-0.5,1.1-0.9,1.7-1.2c0-0.1,0-0.2,0-0.3c1.4-1,2.3-1.7,8-2.2
			c0.1,0,0.3,0,0.4,0c5.4-0.3,10.1,1.7,13.6,5.9c2.2,3.2,4,7.2,5.2,12c1.2,4.3,5.5,23.7,13.1,58.2c0.4,1.1,0.7,2,1.1,2.5
			c1.1,1.6,4.2,3.7,6.4,6.7s-7,2.8-14,4.4c-7,1.7-14.2,3.4-14.5,2.4c-0.5-1.9,2.7-6,3.7-9.2c-2.9-7.8-5.8-15.9-8.6-24.3
			C102.9,98.1,101.1,92.5,99.4,87z"/>
		<path id="Shadow-T-shirt" class="st11" d="M99.4,87c-3.9,12.8-6.4,21.6-10.5,34.9c-0.9,2.4-1.2,4.2-1,5.4c0.3,1.9,2,5.2,2.8,8.8
			s-7.5-0.4-14.6-1.7s-14.4-2.7-14.2-3.7c0.5-2.5,7.7-5.7,8.2-8.8c0.6-3.1,1-6.5,1.1-7.1c3.7-21.3,7.1-37.6,8.9-46.5
			c0.8-3.8,2.3-11,7.8-18.4c0.4-0.5,0.6-0.8,0.8-1.1c0.5-0.5,1.1-0.9,1.6-1.2c0.6,5.3,1.4,11.3,2.4,16c1.1,4.8,2.5,9.3,3.9,14.1
			C97.5,80.9,98.4,83.9,99.4,87z"/>
		<path class="st9" d="M106.1,21.3c1,0.3,1.9,0.7,2.6,1.2c3.4,2.1,5.3,6.1,3.8,10.1c-0.3,0.8-1.4,1.8-3.2,3c-0.1,0-0.3,0-0.4,0
			l-0.6,6.1c0,0.2,0,0.4,0,0.5c0,0.9-0.2,2.1-0.9,3c-1,1.3-2.6,3.2-9,3.2c-6.9,0.1-8.6-1.8-9.7-3.1c-0.7-0.9-0.9-2-1-2.9
			c0-0.2,0-0.4,0-0.5L87,35.6c-3.3-0.5-3.8-2.7-4.3-4.3c-1.1-3.3,1.2-7.3,4.1-9.1c2.1-1.3,4.6-1.9,7-1.4c1.1-0.3,2.3-0.5,3.5-0.5h1
			C101.3,20.2,104.1,20.5,106.1,21.3z"/>
		<path class="st11" d="M87,35.5c-3.2-0.6-3.7-2.7-4.2-4.3c-1.1-3.3,1.2-7.3,4.1-9.1c2.1-1.3,4.7-1.9,7-1.4c-3.7,1-6.3,3.6-7.3,6.6
			c-0.3,0.9-0.3,1.8-0.2,2.8L87,35.5z"/>
		<path class="st12" d="M92.6,17.7L92.6,17.7C91,18.1,91.1,18,91,18.1c-1.1,0.2-2.1,0-2.2,0c-1.4-0.3-2.8-3.1-3-6.9
			c0-0.3,0-0.6,0-0.9l0.3-3c0-0.7,0.3-1.3,0.7-1.9c0-0.1,0.1-0.1,0.1-0.2c0-0.2,0.1-0.3,0.2-0.4c0.5-0.5,1.1-0.9,1.7-1.1
			c1.4-0.5,2.9-0.4,3.8-0.2c0.1,0,0.5,0.1,1,0.2c0.5,0.2,1,0.3,1.5,0.3c0.3,0,0.5,0.3,0.4,0.6L95,8.9C95,9,96.3,8,97.7,8.4
			c0.4,0.1,1,0.7,1.8,1.8c-0.3,0.8-0.4,1.2-0.4,1.3c-0.6,1-1,1.7-1.2,1.9L97.7,16l0.2,4.2h-0.6c-1.7,0-3.2,0.3-4.5,0.9L92.6,17.7z
			 M130.1,133.8l2,10l-12.4,1.7l-1.3-9.3c1.8-0.4,3.8-0.9,5.8-1.4C126.1,134.4,128.1,134.1,130.1,133.8z M71.2,133.6
			c1.6,0.3,3.3,0.6,5,0.9c2.2,0.4,4.5,1.1,6.7,1.7l-1.8,7.5H67.8L71.2,133.6z M86.4,45.6c-2,1.5-4,2.2-6,2.1
			c-5.9-0.4-12-6.1-18.2-17.1l0,0l0,0L56,19c1.5-1.3,3-1.2,4.3,0.1c1.2,1.5,1.9,2.5,2.1,2.8c2.7,4.5,4.9,3.7,7.6,7l8.3,7l3-3.1
			c-0.4-1.4-0.7-2.9-1.1-4.5c-0.9-0.6-2.3-1.7-4.7-3.6c-0.2-0.2-1.3-0.4-3.2-0.7c-2.9,0.4-4.2-0.4-3.9-2.4
			c8.4,1.9,13.1,3.5,15.5,4.6c1.4-0.8,1.9-1.3,1.6-1.4l7.8,11.5l3.8-6.1c1.1,2,2.8,2.9,5.1,4.1c1.9,1,4.1,1.4,6.8,1.2
			c-5.1,9.9-10.1,14.9-15.1,15.1C91.1,50.7,88.6,49,86.4,45.6z M109.4,22.9c0.4,0.3,0.7,0.6,1,0.9C110.1,23.4,109.8,23.1,109.4,22.9
			z"/>
		<path id="Shadow-Arm" class="st13" d="M86.5,45.5c-2,1.6-4,2.3-6.1,2.1c-5.9-0.4-12-6.1-18.2-17.1l0,0l0,0L56,19
			c1.5-1.3,3-1.2,4.3,0.1c1.2,1.5,1.9,2.5,2.1,2.8c2.7,4.5,4.9,3.7,7.6,7l8.3,7l3.1-3.1C82.8,38.3,84.5,42.6,86.5,45.5z"/>
		<polygon class="st8" points="92.7,19.2 94.7,17.2 92.6,17.7 		"/>
		<path class="st8" d="M101.2,12c-0.2,0.8-0.2,1.4,0.2,1.9c1.8,2.2,2.6,2.5,2.2,3.3c-0.5,0.9-2.4,1.1-5.7,0.7
			c-2.2-1.5-1.7-4.1-1.7-4.3l0,0c0.2,0,0.9-0.1,1.5-0.6s1-1.4,0.8-2.3c-0.2-0.9-1-1.6-1.8-1.7c-0.5,0-0.9,0.2-0.9,0.2
			c-0.6,0.3-1,0.9-1,0.9l-0.2,0.4c-0.1-0.1-0.1-0.2-0.2-0.3C93.3,8.8,92.2,7.4,91,6c-2-0.6-3.9-0.6-4.2-0.7c0.1-0.2,0.3-0.3,0.4-0.5
			c0.5-0.5,1.1-0.9,1.7-1.1c1.4-0.5,2.9-0.4,3.8-0.2c0.1,0,0.5,0.1,1,0.2c0.2,0,0.3,0.1,0.5,0.1c0.4,0.1,0.8,0.1,1,0.2
			c2.6,0.4,3.7,0.1,4.9,0.9c0.2,0.2,0.8,0.5,1.2,1.1c1.2,1.8,0.7,4,0.5,4.6C101.6,11.1,101.4,11.6,101.2,12z M85.5,9.1
			c-0.2-0.1-0.2-0.3-0.1-0.4c0.2-0.1,0.5-0.3,0.8-0.2c0.7,0.1,1.4,0.6,0.6,0.7C86.4,9.3,85.8,9.2,85.5,9.1z M88.9,9.5
			c-0.2-0.1-0.2-0.3-0.1-0.4C89,9,89.3,8.9,89.6,8.9C90.3,9,91,9.5,90.2,9.6C89.7,9.7,89.2,9.6,88.9,9.5z"/>
		<path id="Phone" class="st10" d="M57.1,13c0.5-0.3,1-0.3,1.2,0l8.6,12.4c0.2,0.3,0,0.7-0.5,1s-1,0.3-1.2,0L56.6,14
			C56.4,13.7,56.6,13.3,57.1,13z"/>
		<path id="Eyes" class="st8" d="M86.6,10.6c0,0.3,0,0.8-0.2,1c-0.3,0.3-0.7-0.6-0.5-1.1c0.1-0.2,0.2-0.3,0.3-0.3
			C86.5,10.2,86.6,10.4,86.6,10.6z M89.7,10.8c0,0.3,0,0.8-0.2,1c-0.3,0.3-0.7-0.6-0.5-1.1c0.1-0.2,0.2-0.3,0.3-0.3
			C89.6,10.5,89.7,10.6,89.7,10.8z"/>
		<path id="Mouth" class="st8" d="M88.4,14.1c0.1,0,0.4-0.1,0.5-0.3v-0.1c-0.1-0.1-0.3-0.1-0.6-0.1c-0.6,0-1-0.1-1-0.1
			s0.1,0.4,0.2,0.4C87.7,14.3,88.2,14.2,88.4,14.1z"/>
		<path id="Nose" class="st8" d="M87.1,12.6L87.1,12.6c0,0.2,0.1,0.4,0.3,0.4h0.1c0.2,0,0.3,0.1,0.9,0.1c0.1,0,0.2-0.1,0.2-0.1
			s-0.1-0.2-0.2-0.2c-0.5-0.1-0.6-0.1-0.8-0.1c0,0,0,0-0.1,0l0,0l0.4-1.8l0,0l0.1-1c0-0.1-0.1-0.2-0.2-0.2s-0.2,0.1-0.2,0.2l-0.1,1
			L87.1,12.6z"/>
		<path id="Heart" class="st14" d="M68,15.1L68,15.1L68,15.1c-0.1,0-0.1,0.1-0.2,0.1v-0.1c-3.5-1.5-4.9-3.2-4.1-5.1s2.2-2.2,4.2-0.9
			c2-1.3,3.4-1,4.2,0.9C72.9,11.9,71.6,13.6,68,15.1z"/>
		<path class="st8" d="M97.3,30.3c-0.2-2.4,0.2-4.2,1.2-5.4c0.1-0.1,0.1-0.3,0-0.4s-0.3-0.1-0.4,0c-1.1,1.3-1.5,3.2-1.3,5.8
			c0,0.1,0.1,0.2,0.3,0.2S97.4,30.4,97.3,30.3z"/>
	</g>
	<g id="Userpic-2" transform="translate(0.000000, 0.500000)">
		<g id="Userpic" transform="translate(0.000000, 0.267001)">
			<defs>
				<ellipse id="SVGID_3_" cx="169.7" cy="45.6" rx="22.5" ry="21.4"/>
			</defs>
			<clipPath id="SVGID_4_">
				<use xlink:href="#SVGID_3_"  style="overflow:visible;"/>
			</clipPath>
			<g transform="translate(22.500000, 21.360117) scale(-1, 1) translate(-22.500000, -21.360117) " class="st15">
				<ellipse class="st16" cx="-124.7" cy="45.6" rx="22.5" ry="-21.4"/>
			</g>
			<g class="st15">
				
					<g transform="translate(25.515464, 29.404148) scale(-1, 1) translate(-25.515464, -29.404148) translate(10.515464, 4.404148)">
					<path class="st5" d="M-136.8,57.9c-1.1-0.2-2-0.4-2.8-0.6c-0.9-0.1-2.2-0.4-2.7-1.4c-0.7-1.4-0.2-3.9,2.2-5.4
						c2.6-1.6,2.6-4.2,4.3-5.4c1.9-1.3,3.5-1.5,4.7-1.1c1.3-0.6,2.8-0.9,4.3-0.8c0,0,0,0,0.1,0h0.8c5.8,0.1,10.7,4.4,11.5,10.1
						c0.8,5-2.6,9.7-7.6,10.4c-0.3,0-0.5,0.1-0.8,0.1l-4.1,0.3C-131.3,64.4-135.2,61.8-136.8,57.9z"/>
					<path class="st12" d="M-122.9,41.1L-123,42l0,0c-0.1,1.2-1.2,2.2-2.4,2.1c-0.1,0-0.3,0-0.4-0.1c-1-0.3-1.6-1.4-1.2-2.4l0,0
						c0.2-0.7,0.4-1.2,0.5-1.7l0,0c0-1.1,0-2,0-2.6c0,0-0.1,0-0.3,0c-0.4-0.1-0.9-0.3-1.2-0.6c-0.6-0.5-0.8-1.5-0.6-2.3
						c0.2-0.7,0.8-1.6,1.6-1.6c0.2,0,0.5,0.1,1.1,0.2c0.1,0.1,0.3,0,0.4,0c0.3,0,0.4,0.1,0.3-0.2l-0.3-3.8c0-0.2,0.2-0.4,0.4-0.5
						c0.6-0.1,1.1-0.1,1.7-0.3c0.1,0,0.1,0,0.2,0c0.5-0.1,3.5-0.6,5.3,1.3c0.2,0.2,0.3,0.4,0.5,0.6c0.3,0.5,0.5,1.1,0.5,1.7l0.1,2.7
						c0,0.3,0,0.5,0,0.8c-0.4,3.4-1.7,5.8-3,6c-0.7,0.1-1.4,0.1-2,0C-122,41.4-121.9,41.4-122.9,41.1z M-141.9,56.4
						c0.6,0.6,1.6,0.8,2.3,0.9c1,0.3,2.3,0.5,4,0.8c0.7,0.1,1.5,0.1,2.2,0c0.3-0.1,0.6-0.1,0.9-0.2l1.7,0.9l-0.4,9.5
						c-4.7,6.2-8.3,7.4-10.7,3.6C-144,68.6-144,63.4-141.9,56.4z"/>
					<path class="st8" d="M-124.2,35.9l-1-1.7c-0.2-0.3-0.5-0.6-0.8-0.8c-0.3-0.1-0.5-0.2-0.8-0.2c-0.7,0-1.5,0.6-1.7,1.4
						c-0.2,0.7,0,1.5,0.6,2c0.4,0.3,0.9,0.5,1.4,0.6l0.6-0.1c0,0-0.1,0-0.1,0.1c-0.4,1.8-0.5,2.7-0.5,2.7s-0.8-0.2-2.5-0.7
						c-1.1-0.4-2-1.7-2.7-4.1c-0.5,0.2-0.9,0.2-1.4,0.2c-3-0.3-5.1-2.8-5.9-5.3s0.6-3.7,2.9-5.1c2.3-1.4,4.9-0.4,7.1,0.7
						c1.3,0.6,2,1.7,2.2,3.3c0.3,0,0.7-0.1,1.1-0.1c0.5,0,1.3-0.2,2.2-0.4c0.1,0,0.1,0,0.2,0c0.5-0.1,3.5-0.5,5.3,1.4
						c0,0-0.5,0-1.9,0.9C-121.3,31.6-122.8,35.7-124.2,35.9z M-119.4,33.9c-0.3,0.1-0.8,0.2-1.2,0.1c-0.7-0.1-0.1-0.6,0.6-0.6
						c0.3,0,0.6,0.1,0.7,0.2C-119.2,33.6-119.2,33.8-119.4,33.9z M-116.6,33.9c-0.3,0.1-0.8,0.2-1.2,0.1c-0.7-0.2-0.1-0.6,0.6-0.6
						c0.3,0,0.6,0.1,0.7,0.2C-116.4,33.7-116.4,33.9-116.6,33.9z"/>
					<path class="st8" d="M-120.4,35.7c-0.2-0.2-0.1-0.6-0.1-0.8s0.2-0.3,0.4-0.3c0.1,0,0.2,0.1,0.3,0.3
						C-119.7,35.3-120.2,36-120.4,35.7z M-117.6,35.7c-0.1-0.2-0.1-0.6-0.1-0.8s0.2-0.3,0.4-0.3c0.1,0,0.3,0.1,0.3,0.3
						C-116.9,35.3-117.4,36-117.6,35.7z M-118,34.5l-0.1,0.9V37l0,0c0,0.2-0.2,0.3-0.3,0.3l0,0c-0.2,0-0.4,0-0.7-0.1
						c-0.1,0-0.1-0.1-0.1-0.2s0.1-0.1,0.2-0.1c0.3,0,0.5,0,0.7,0.1l0,0v-1.6l0,0l0.1-0.9C-118.2,34.4-118.1,34.4-118,34.5
						C-117.9,34.4-118,34.4-118,34.5z M-119.3,38.4c-0.1,0-0.4-0.1-0.5-0.2v-0.1c0-0.1,0.5-0.1,0.5-0.1c0.6,0,0.8,0,0.8,0
						s0,0.1-0.1,0.2C-118.7,38.5-119.1,38.4-119.3,38.4z M-130,58.8c0,0.1-0.2,0.2-0.3,0.1c-0.1,0-0.2-0.2-0.1-0.3
						c1.2-3,1.8-5.1,2-6.4c0-0.1,0.1-0.2,0.3-0.2c0.1,0,0.2,0.1,0.2,0.2C-128.2,53.6-128.9,55.8-130,58.8z"/>
				</g>
			</g>
		</g>
	</g>
</g>
</svg>
